{
classes = (
{
automatic = 1;
code = "A Aacute Abreve Acircumflex Adieresis Agrave Amacron Aogonek Aring Atilde AE B C Cacute Ccaron Ccedilla D Eth Dcaron Dcroat E Eacute Ecaron Ecircumflex Edieresis Edotaccent Egrave Emacron Eogonek F G Gbreve Gcommaaccent H I Iacute Icircumflex Idieresis Idotaccent Igrave Imacron Iogonek J K Kcommaaccent L Lacute Lcaron Lcommaaccent Lslash M N Nacute Ncaron Ncommaaccent Ntilde O Oacute Ocircumflex Odieresis Ograve Ohungarumlaut Omacron Oslash Otilde OE P Thorn Q R Racute Rcaron Rcommaaccent S Sacute Scaron Scedilla Scommaaccent T Tcaron Tcedilla Tcommaaccent U Uacute Ucircumflex Udieresis Ugrave Uhungarumlaut Umacron Uogonek Uring V W X Y Yacute Ydieresis Z Zacute Zcaron Zdotaccent";
name = Uppercase;
}
);
copyright = "Copyright (c) 2013, Botio Nikoltchev (nikoltchev@lettersoup.de www.lettersoup.de), with Reserved Font Name \"Ropa Sans\"";
customParameters = (
{
name = license;
value = "New ValueThis Font Software is licensed under the SIL Open Font License\012Version 1.1. This license is available with a FAQ at: http://scripts.sil.org/OFL";
},
{
name = licenseURL;
value = "http://scripts.sil.org/OFL";
}
);
date = "2013-12-19 11:26:27 +0000";
designer = "Botio Nikoltchev";
designerURL = www.lettersoup.de;
familyName = "Ropa Sans ";
featurePrefixes = (
{
automatic = 1;
code = "languagesystem DFLT dflt;\012languagesystem grek dflt;\012languagesystem latn dflt;\012languagesystem latn ROM;\012languagesystem latn MOL;\012";
name = Languagesystems;
}
);
features = (
{
automatic = 1;
code = "feature locl;\012feature sups;\012feature frac;\012feature ordn;\012feature case;\012";
name = aalt;
},
{
automatic = 1;
code = "script latn;\012language ROM;\012sub Scedilla by Scommaaccent;\012sub scedilla by scommaaccent;\012sub Tcedilla by Tcommaaccent;\012sub tcedilla by tcommaaccent;\012language MOL;\012sub Scedilla by Scommaaccent;\012sub scedilla by scommaaccent;\012sub Tcedilla by Tcommaaccent;\012sub tcedilla by tcommaaccent;\012";

glyphs = (
{
color = 4;
glyphname = A;
lastChange = "2013-12-19 10:54:20 +0100";
layers = (
{
anchors = (
{
name = ogonek;
position = "{479, 10}";
},
{
name = top;
position = "{319, 655}";
},
{
name = topleft;
position = "{200, 655}";
}
);
layerId = "F9064169-91CB-4D1F-AD97-42715B9ED178";
name = Light;
paths = (
{
closed = 1;
nodes = (
"257 655 LINE",
"-23 0 LINE",
"67 0 LINE",
"90 50 OFFCURVE",
"111 101 OFFCURVE",
"131 152 CURVE",
"370 152 LINE",
"378 101 OFFCURVE",
"386 51 OFFCURVE",
"392 0 CURVE",
"483 0 LINE",
"362 655 LINE"
);
},
{
closed = 1;
nodes = (
"320 461 OFFCURVE",
"340 344 OFFCURVE",
"358 228 CURVE",
"163 228 LINE",
"210 343 OFFCURVE",
"255 459 OFFCURVE",
"299 576 CURVE"
);
}
);
width = 532;
}
);
leftKerningGroup = A;
rightKerningGroup = A;
unicode = 0041;
},
{
color = 4;
glyphname = Aogonek;
lastChange = "2013-12-19 10:54:20 +0100";
layers = (
{
layerId = "F9064169-91CB-4D1F-AD97-42715B9ED178";
name = Light;
paths = (
{
closed = 1;
nodes = (
"257 655 LINE",
"-23 0 LINE",
"67 0 LINE",
"89 50 OFFCURVE",
"110 101 OFFCURVE",
"131 152 CURVE",
"370 152 LINE",
"378 102 OFFCURVE",
"386 51 OFFCURVE",
"392 1 CURVE",
"351 -24 OFFCURVE",
"323 -65 OFFCURVE",
"318 -103 CURVE SMOOTH",
"316 -116 LINE SMOOTH",
"309 -164 OFFCURVE",
"336 -197 OFFCURVE",
"404 -197 CURVE SMOOTH",
"419 -197 OFFCURVE",
"435 -196 OFFCURVE",
"453 -192 CURVE",
"461 -131 LINE",
"449 -133 OFFCURVE",
"437 -134 OFFCURVE",
"428 -134 CURVE SMOOTH",
"398 -134 OFFCURVE",
"387 -123 OFFCURVE",
"391 -97 CURVE SMOOTH",
"392 -87 LINE SMOOTH",
"397 -53 OFFCURVE",
"421 -19 OFFCURVE",
"460 0 CURVE",
"483 0 LINE",
"362 655 LINE"
);
},
{
closed = 1;
nodes = (
"320 461 OFFCURVE",
"340 344 OFFCURVE",
"358 228 CURVE",
"163 228 LINE",
"210 343 OFFCURVE",
"255 459 OFFCURVE",
"299 576 CURVE"
);
}
);
width = 532;
}
);
leftKerningGroup = A;
leftMetricsKey = A;
rightKerningGroup = A;
rightMetricsKey = A;
unicode = 0104;
},
{
color = 4;
glyphname = Aring;
lastChange = "2013-12-19 10:54:20 +0100";
layers = (
{
background = {
paths = (
{
closed = 1;
nodes = (
"358 747 OFFCURVE",
"376 732 OFFCURVE",
"376 707 CURVE SMOOTH",
"376 671 OFFCURVE",
"362 655 OFFCURVE",
"322 655 CURVE SMOOTH",
"317 655 LINE SMOOTH",
"288 656 OFFCURVE",
"273 674 OFFCURVE",
"273 698 CURVE SMOOTH",
"273 733 OFFCURVE",
"288 747 OFFCURVE",
"328 747 CURVE SMOOTH"
);
}
);
};
layerId = "F9064169-91CB-4D1F-AD97-42715B9ED178";
name = Light;
paths = (
{
closed = 1;
nodes = (
"254 798 OFFCURVE",
"211 757 OFFCURVE",
"211 694 CURVE SMOOTH",
"211 665 OFFCURVE",
"224 641 OFFCURVE",
"244 626 CURVE",
"-23 0 LINE",
"67 0 LINE",
"89 50 OFFCURVE",
"110 101 OFFCURVE",
"131 152 CURVE",
"370 152 LINE",
"379 101 OFFCURVE",
"385 51 OFFCURVE",
"392 0 CURVE",
"483 0 LINE",
"370 612 LINE",
"414 627 OFFCURVE",
"437 664 OFFCURVE",
"437 709 CURVE SMOOTH",
"437 763 OFFCURVE",
"392 798 OFFCURVE",
"330 798 CURVE SMOOTH"
);
},
{
closed = 1;
nodes = (
"320 461 OFFCURVE",
"340 344 OFFCURVE",
"358 228 CURVE",
"163 228 LINE",
"210 343 OFFCURVE",
"255 459 OFFCURVE",
"299 576 CURVE"
);
},
{
closed = 1;
nodes = (
"358 747 OFFCURVE",
"376 732 OFFCURVE",
"376 707 CURVE SMOOTH",
"376 671 OFFCURVE",
"362 655 OFFCURVE",
"322 655 CURVE SMOOTH",
"286 656 OFFCURVE",
"273 672 OFFCURVE",
"273 698 CURVE SMOOTH",
"273 733 OFFCURVE",
"288 747 OFFCURVE",
"328 747 CURVE SMOOTH"
);
}
);
width = 532;
}
);
leftKerningGroup = A;
leftMetricsKey = A;
rightKerningGroup = A;
rightMetricsKey = A;
unicode = 00C5;
},
{
color = 4;
glyphname = AE;
lastChange = "2013-12-19 10:54:20 +0100";
layers = (
{
anchors = (
{
name = top;
position = "{570, 655}";
}
);
layerId = "F9064169-91CB-4D1F-AD97-42715B9ED178";
name = Light;
paths = (
{
closed = 1;
nodes = (
"342 655 LINE",
"-46 0 LINE",
"46 0 LINE",
"77 51 OFFCURVE",
"107 101 OFFCURVE",
"138 152 CURVE",
"333 152 LINE",
"315 0 LINE",
"660 0 LINE",
"668 77 LINE",
"408 77 LINE",
"435 295 LINE",
"675 295 LINE",
"685 371 LINE",
"445 371 LINE",
"470 578 LINE",
"730 578 LINE",
"740 655 LINE"
);
},
{
closed = 1;
nodes = (
"343 228 LINE",
"183 228 LINE",
"261 362 OFFCURVE",
"330 485 OFFCURVE",
"387 592 CURVE"
);
}
);
width = 761;
}
);
leftKerningGroup = A;
rightKerningGroup = E;
unicode = 00C6;
},
{
color = 4;
glyphname = B;
lastChange = "2013-12-19 11:16:22 +0100";
layers = (
{
layerId = "F9064169-91CB-4D1F-AD97-42715B9ED178";
name = Light;
paths = (
{
closed = 1;
nodes = (
"38 -3 LINE",
"130 -10 OFFCURVE",
"175 -12 OFFCURVE",
"232 -12 CURVE SMOOTH",
"385 -12 OFFCURVE",
"461 53 OFFCURVE",
"476 163 CURVE SMOOTH",
"478 178 LINE SMOOTH",
"489 259 OFFCURVE",
"444 321 OFFCURVE",
"373 340 CURVE",
"447 364 OFFCURVE",
"484 417 OFFCURVE",
"491 492 CURVE SMOOTH",
"492 503 LINE SMOOTH",
"500 596 OFFCURVE",
"430 667 OFFCURVE",
"284 667 CURVE SMOOTH",
"232 667 OFFCURVE",
"163 664 OFFCURVE",
"120 662 CURVE"
);
},
{
closed = 1;
nodes = (
"159 298 LINE",
"263 298 LINE SMOOTH",
"363 298 OFFCURVE",
"406 256 OFFCURVE",
"395 186 CURVE SMOOTH",
"393 173 LINE SMOOTH",
"382 101 OFFCURVE",
"337 62 OFFCURVE",
"230 62 CURVE SMOOTH",
"204 62 OFFCURVE",
"181 63 OFFCURVE",
"131 68 CURVE"
);
},
{
closed = 1;
nodes = (
"196 591 LINE",
"225 593 OFFCURVE",
"251 594 OFFCURVE",
"273 594 CURVE SMOOTH",
"375 594 OFFCURVE",
"413 559 OFFCURVE",
"405 489 CURVE SMOOTH",
"404 480 LINE SMOOTH",
"396 410 OFFCURVE",
"351 367 OFFCURVE",
"271 367 CURVE SMOOTH",
"168 367 LINE"
);
}
);
width = 528;
}
);
unicode = 0042;
},
{
color = 4;
glyphname = C;
lastChange = "2013-12-19 11:16:22 +0100";
layers = (
{
anchors = (
{
name = bottom;
position = "{238, 0}";
},
{
name = top;
position = "{314, 655}";
}
);
layerId = "F9064169-91CB-4D1F-AD97-42715B9ED178";
name = Light;
paths = (
{
closed = 1;
nodes = (
"179 667 OFFCURVE",
"107 603 OFFCURVE",
"90 463 CURVE SMOOTH",
"59 207 LINE SMOOTH",
"41 58 OFFCURVE",
"99 -12 OFFCURVE",
"228 -12 CURVE SMOOTH",
"273 -12 OFFCURVE",
"340 3 OFFCURVE",
"383 24 CURVE",
"391 104 LINE",
"335 79 OFFCURVE",
"287 66 OFFCURVE",
"241 66 CURVE SMOOTH",
"163 66 OFFCURVE",
"132 100 OFFCURVE",
"143 194 CURVE SMOOTH",
"176 469 LINE SMOOTH",
"186 555 OFFCURVE",
"229 593 OFFCURVE",
"301 593 CURVE SMOOTH",
"341 593 OFFCURVE",
"395 581 OFFCURVE",
"441 563 CURVE",
"452 643 LINE",
"405 658 OFFCURVE",
"347 667 OFFCURVE",
"303 667 CURVE"
);
}
);
width = 476;
}
);
unicode = 0043;
},
{
color = 4;
glyphname = Ccedilla;
lastChange = "2013-12-19 10:54:20 +0100";
layers = (
{
anchors = (
{
name = _bottom;
position = "{238, 0}";
},
{
name = bottom;
position = "{238, 0}";
},
{
name = top;
position = "{314, 655}";
}
);
layerId = "F9064169-91CB-4D1F-AD97-42715B9ED178";
leftMetricsKey = C;
rightMetricsKey = C;
name = Light;
paths = (
{
closed = 1;
nodes = (
"179 667 OFFCURVE",
"107 603 OFFCURVE",
"90 463 CURVE SMOOTH",
"59 207 LINE SMOOTH",
"42 64 OFFCURVE",
"95 -7 OFFCURVE",
"214 -12 CURVE",
"191 -60 LINE",
"188 -80 LINE",
"214 -80 LINE SMOOTH",
"239 -80 OFFCURVE",
"251 -92 OFFCURVE",
"248 -113 CURVE SMOOTH",
"247 -120 LINE SMOOTH",
"245 -133 OFFCURVE",
"234 -143 OFFCURVE",
"212 -143 CURVE SMOOTH",
"197 -143 OFFCURVE",
"181 -139 OFFCURVE",
"167 -133 CURVE",
"160 -188 LINE",
"177 -193 OFFCURVE",
"203 -197 OFFCURVE",
"219 -197 CURVE SMOOTH",
"278 -197 OFFCURVE",
"308 -169 OFFCURVE",
"314 -121 CURVE SMOOTH",
"315 -112 LINE SMOOTH",
"320 -70 OFFCURVE",
"296 -41 OFFCURVE",
"259 -41 CURVE SMOOTH",
"257 -41 LINE",
"271 -9 LINE",
"310 -3 OFFCURVE",
"353 9 OFFCURVE",
"383 24 CURVE",
"391 104 LINE",
"335 79 OFFCURVE",
"287 66 OFFCURVE",
"241 66 CURVE SMOOTH",
"163 66 OFFCURVE",
"132 100 OFFCURVE",
"143 194 CURVE SMOOTH",
"176 469 LINE SMOOTH",
"186 555 OFFCURVE",
"229 593 OFFCURVE",
"301 593 CURVE SMOOTH",
"341 593 OFFCURVE",
"395 581 OFFCURVE",
"441 563 CURVE",
"452 643 LINE",
"405 658 OFFCURVE",
"347 667 OFFCURVE",
"303 667 CURVE SMOOTH"
);
}
);
width = 476;
}
);
leftKerningGroup = O;
leftMetricsKey = C;
rightKerningGroup = C;
rightMetricsKey = C;
unicode = 00C7;
},
{
color = 4;
glyphname = D;
lastChange = "2013-12-19 10:54:20 +0100";
layers = (
{
anchors = (
{
name = center;
position = "{288, 328}";
},
{
name = top;
position = "{315, 655}";
}
);
layerId = "F9064169-91CB-4D1F-AD97-42715B9ED178";
name = Light;
paths = (
{
closed = 1;
nodes = (
"197 593 LINE",
"223 594 OFFCURVE",
"265 595 OFFCURVE",
"285 595 CURVE SMOOTH",
"392 595 OFFCURVE",
"450 531 OFFCURVE",
"434 402 CURVE SMOOTH",
"412 227 LINE SMOOTH",
"399 121 OFFCURVE",
"326 61 OFFCURVE",
"224 61 CURVE SMOOTH",
"199 61 OFFCURVE",
"171 63 OFFCURVE",
"132 68 CURVE"
);
},
{
closed = 1;
nodes = (
"39 -3 LINE",
"100 -9 OFFCURVE",
"149 -12 OFFCURVE",
"216 -12 CURVE SMOOTH",
"389 -12 OFFCURVE",
"477 71 OFFCURVE",
"497 229 CURVE SMOOTH",
"518 395 LINE SMOOTH",
"539 563 OFFCURVE",
"458 667 OFFCURVE",
"291 667 CURVE SMOOTH",
"226 667 OFFCURVE",
"163 665 OFFCURVE",
"121 662 CURVE"
);
}
);
width = 573;
}
);
leftKerningGroup = H;
leftMetricsKey = H;
rightKerningGroup = D;
unicode = 0044;
},
{
color = 4;
glyphname = Eth;
lastChange = "2013-12-19 10:54:20 +0100";
layers = (
{
layerId = "F9064169-91CB-4D1F-AD97-42715B9ED178";
name = Light;
paths = (
{
closed = 1;
nodes = (
"229 667 OFFCURVE",
"166 665 OFFCURVE",
"124 662 CURVE",
"88 373 LINE",
"19 373 LINE",
"9 303 LINE",
"79 303 LINE",
"42 -3 LINE",
"103 -9 OFFCURVE",
"152 -12 OFFCURVE",
"219 -12 CURVE SMOOTH",
"394 -12 OFFCURVE",
"480 73 OFFCURVE",
"500 229 CURVE SMOOTH",
"521 395 LINE SMOOTH",
"542 563 OFFCURVE",
"461 667 OFFCURVE",
"294 667 CURVE SMOOTH"
);
},
{
closed = 1;
nodes = (
"395 595 OFFCURVE",
"453 531 OFFCURVE",
"437 402 CURVE SMOOTH",
"415 227 LINE SMOOTH",
"402 121 OFFCURVE",
"329 61 OFFCURVE",
"227 61 CURVE SMOOTH",
"202 61 OFFCURVE",
"174 63 OFFCURVE",
"135 68 CURVE",
"164 303 LINE",
"299 303 LINE",
"309 373 LINE",
"172 373 LINE",
"200 593 LINE",
"226 594 OFFCURVE",
"268 595 OFFCURVE",
"288 595 CURVE SMOOTH"
);
}
);
width = 576;
}
);
rightKerningGroup = D;
rightMetricsKey = D;
unicode = 00D0;
},
{
color = 4;
glyphname = E;
lastChange = "2013-12-19 10:54:20 +0100";
layers = (
{
anchors = (
{
name = bottom;
position = "{243, 0}";
},
{
name = ogonek;
position = "{436, 10}";
},
{
name = top;
position = "{302, 655}";
},
{
name = topleft;
position = "{89, 655}";
}
);
layerId = "F9064169-91CB-4D1F-AD97-42715B9ED178";
name = Light;
paths = (
{
closed = 1;
nodes = (
"384 0 LINE",
"392 77 LINE",
"132 77 LINE",
"159 295 LINE",
"399 295 LINE",
"409 371 LINE",
"169 371 LINE",
"194 578 LINE",
"454 578 LINE",
"464 655 LINE",
"119 655 LINE",
"39 0 LINE"
);
}
);
width = 485;
}
);
leftKerningGroup = H;
leftMetricsKey = H;
rightKerningGroup = E;
unicode = 0045;
},
{
color = 4;
glyphname = Eogonek;
lastChange = "2013-12-19 10:54:20 +0100";
layers = (
{
layerId = "F9064169-91CB-4D1F-AD97-42715B9ED178";
leftMetricsKey = E;
rightMetricsKey = E;
name = Light;
paths = (
{
closed = 1;
nodes = (
"119 655 LINE",
"39 0 LINE",
"249 0 LINE",
"210 -25 OFFCURVE",
"182 -65 OFFCURVE",
"177 -103 CURVE SMOOTH",
"175 -116 LINE SMOOTH",
"168 -164 OFFCURVE",
"195 -197 OFFCURVE",
"263 -197 CURVE SMOOTH",
"278 -197 OFFCURVE",
"294 -196 OFFCURVE",
"312 -192 CURVE",
"320 -131 LINE",
"308 -133 OFFCURVE",
"296 -134 OFFCURVE",
"287 -134 CURVE SMOOTH",
"257 -134 OFFCURVE",
"246 -123 OFFCURVE",
"250 -97 CURVE SMOOTH",
"251 -87 LINE SMOOTH",
"256 -53 OFFCURVE",
"280 -19 OFFCURVE",
"319 0 CURVE",
"384 0 LINE",
"392 77 LINE",
"132 77 LINE",
"159 295 LINE",
"399 295 LINE",
"409 371 LINE",
"169 371 LINE",
"194 578 LINE",
"454 578 LINE",
"464 655 LINE"
);
}
);
width = 485;
}
);
leftKerningGroup = H;
leftMetricsKey = E;
rightKerningGroup = E;
rightMetricsKey = E;
unicode = 0118;
},
{
color = 4;
glyphname = F;
lastChange = "2013-12-19 10:54:20 +0100";
layers = (
{
layerId = "F9064169-91CB-4D1F-AD97-42715B9ED178";
name = Light;
paths = (
{
closed = 1;
nodes = (
"119 655 LINE",
"39 0 LINE",
"124 0 LINE",
"159 295 LINE",
"355 295 LINE",
"365 371 LINE",
"169 371 LINE",
"194 578 LINE",
"454 578 LINE",
"464 655 LINE"
);
}
);
width = 464;
}
);
leftKerningGroup = H;
leftMetricsKey = H;
rightKerningGroup = F;
unicode = 0046;
},
{
color = 4;
glyphname = G;
lastChange = "2013-12-19 10:54:20 +0100";
layers = (
{
anchors = (
{
name = bottom;
position = "{259, 0}";
},
{
name = top;
position = "{326, 655}";
}
);
layerId = "F9064169-91CB-4D1F-AD97-42715B9ED178";
name = Light;
paths = (
{
closed = 1;
nodes = (
"318 -12 OFFCURVE",
"397 15 OFFCURVE",
"454 45 CURVE",
"495 378 LINE",
"285 378 LINE",
"274 298 LINE",
"400 298 LINE",
"374 85 LINE",
"339 71 OFFCURVE",
"300 63 OFFCURVE",
"256 63 CURVE SMOOTH",
"172 63 OFFCURVE",
"130 105 OFFCURVE",
"141 193 CURVE SMOOTH",
"175 471 LINE SMOOTH",
"186 558 OFFCURVE",
"228 594 OFFCURVE",
"312 594 CURVE SMOOTH",
"365 594 OFFCURVE",
"433 580 OFFCURVE",
"487 560 CURVE",
"497 638 LINE",
"449 653 OFFCURVE",
"372 667 OFFCURVE",
"316 667 CURVE SMOOTH",
"173 667 OFFCURVE",
"106 601 OFFCURVE",
"90 465 CURVE SMOOTH",
"59 208 LINE SMOOTH",
"42 68 OFFCURVE",
"109 -12 OFFCURVE",
"253 -12 CURVE SMOOTH"
);
}
);
width = 555;
}
);
leftKerningGroup = O;
rightKerningGroup = G;
unicode = 0047;
},
{
color = 4;
glyphname = H;
lastChange = "2013-12-19 10:54:20 +0100";
layers = (
{
anchors = (
{
name = center;
position = "{290, 328}";
},
{
name = top;
position = "{340, 655}";
},
{
name = topleft;
position = "{89, 655}";
}
);
layerId = "F9064169-91CB-4D1F-AD97-42715B9ED178";
name = Light;
paths = (
{
closed = 1;
nodes = (
"469 0 LINE",
"549 655 LINE",
"464 655 LINE",
"429 376 LINE",
"169 376 LINE",
"204 655 LINE",
"119 655 LINE",
"39 0 LINE",
"124 0 LINE",
"160 300 LINE",
"420 300 LINE",
"384 0 LINE"
);
}
);
width = 580;
}
);
leftKerningGroup = H;
rightKerningGroup = H;
unicode = 0048;
},
{
color = 4;
glyphname = I;
lastChange = "2013-12-19 10:54:20 +0100";
layers = (
{
anchors = (
{
name = ogonek;
position = "{211, 10}";
},
{
name = top;
position = "{172, 655}";
},
{
name = topleft;
position = "{89, 655}";
}
);
layerId = "F9064169-91CB-4D1F-AD97-42715B9ED178";
name = Light;
paths = (
{
closed = 1;
nodes = (
"124 0 LINE",
"204 655 LINE",
"119 655 LINE",
"39 0 LINE"
);
}
);
width = 235;
}
);
leftKerningGroup = I;
rightKerningGroup = I;
unicode = 0049;
},
{
color = 4;
glyphname = Iogonek;
lastChange = "2013-12-19 10:54:20 +0100";
layers = (
{
layerId = "F9064169-91CB-4D1F-AD97-42715B9ED178";
name = Light;
paths = (
{
closed = 1;
nodes = (
"119 655 LINE",
"39 3 LINE",
"-3 -21 OFFCURVE",
"-34 -63 OFFCURVE",
"-39 -103 CURVE SMOOTH",
"-41 -116 LINE SMOOTH",
"-48 -164 OFFCURVE",
"-21 -197 OFFCURVE",
"47 -197 CURVE SMOOTH",
"62 -197 OFFCURVE",
"78 -196 OFFCURVE",
"96 -192 CURVE",
"104 -131 LINE",
"92 -133 OFFCURVE",
"80 -134 OFFCURVE",
"71 -134 CURVE SMOOTH",
"41 -134 OFFCURVE",
"30 -123 OFFCURVE",
"34 -97 CURVE SMOOTH",
"35 -87 LINE SMOOTH",
"40 -53 OFFCURVE",
"64 -19 OFFCURVE",
"103 0 CURVE",
"124 0 LINE",
"204 655 LINE"
);
}
);
width = 235;
}
);
rightMetricsKey = I;
unicode = 012E;
},
{
color = 4;
glyphname = J;
lastChange = "2013-12-19 10:54:20 +0100";
layers = (
{
anchors = (
{
name = top;
position = "{223, 655}";
}
);
layerId = "F9064169-91CB-4D1F-AD97-42715B9ED178";
name = Light;
paths = (
{
closed = 1;
nodes = (
"171 655 LINE",
"107 134 LINE SMOOTH",
"100 77 OFFCURVE",
"81 61 OFFCURVE",
"43 61 CURVE SMOOTH",
"20 61 OFFCURVE",
"-10 67 OFFCURVE",
"-33 75 CURVE",
"-42 2 LINE",
"-22 -4 OFFCURVE",
"24 -12 OFFCURVE",
"50 -12 CURVE SMOOTH",
"136 -12 OFFCURVE",
"178 27 OFFCURVE",
"192 137 CURVE SMOOTH",
"256 655 LINE"
);
}
);
width = 287;
}
);
leftKerningGroup = J;
unicode = 004A;
},
{
color = 4;
glyphname = K;
lastChange = "2013-12-19 10:54:20 +0100";
layers = (
{
anchors = (
{
name = bottom;
position = "{238, 0}";
},
{
name = top;
position = "{263, 655}";
}
);
layerId = "F9064169-91CB-4D1F-AD97-42715B9ED178";
name = Light;
paths = (
{
closed = 1;
nodes = (
"124 0 LINE",
"164 325 LINE",
"243 219 OFFCURVE",
"303 126 OFFCURVE",
"381 0 CURVE",
"489 0 LINE",
"255 338 LINE",
"543 655 LINE",
"439 655 LINE",
"364 560 OFFCURVE",
"272 459 OFFCURVE",
"167 352 CURVE",
"204 655 LINE",
"119 655 LINE",
"39 0 LINE"
);
}
);
width = 525;
}
);
leftKerningGroup = H;
leftMetricsKey = H;
rightKerningGroup = K;
unicode = 004B;
},
{
color = 4;
glyphname = L;
lastChange = "2013-12-19 10:54:20 +0100";
layers = (
{
anchors = (
{
name = bottom;
position = "{221, 0}";
},
{
name = center;
position = "{324, 359}";
},
{
name = top;
position = "{176, 655}";
},
{
name = topleft;
position = "{309, 460}";
}
);
layerId = "F9064169-91CB-4D1F-AD97-42715B9ED178";
name = Light;
paths = (
{
closed = 1;
nodes = (
"384 0 LINE",
"392 75 LINE",
"132 75 LINE",
"204 655 LINE",
"119 655 LINE",
"39 0 LINE"
);
}
);
width = 450;
}
);
leftKerningGroup = H;
leftMetricsKey = H;
rightKerningGroup = L;
unicode = 004C;
},
{
color = 4;
glyphname = Lslash;
lastChange = "2013-12-19 10:54:20 +0100";
layers = (
{
layerId = "F9064169-91CB-4D1F-AD97-42715B9ED178";
name = Light;
paths = (
{
closed = 1;
nodes = (
"7 268 LINE",
"80 287 LINE",
"40 0 LINE",
"385 0 LINE",
"395 75 LINE",
"135 75 LINE",
"168 311 LINE",
"303 348 LINE",
"314 424 LINE",
"179 387 LINE",
"217 655 LINE",
"132 655 LINE",
"91 363 LINE",
"18 344 LINE"
);
}
);
width = 453;
}
);
rightKerningGroup = L;
rightMetricsKey = L;
unicode = 0141;
},
{
color = 4;
glyphname = M;
lastChange = "2013-12-19 10:54:20 +0100";
layers = (
{
layerId = "F9064169-91CB-4D1F-AD97-42715B9ED178";
name = Light;
paths = (
{
closed = 1;
nodes = (
"534 655 LINE",
"472 488 OFFCURVE",
"404 319 OFFCURVE",
"325 146 CURVE",
"305 317 OFFCURVE",
"275 486 OFFCURVE",
"241 655 CURVE",
"120 655 LINE",
"34 0 LINE",
"118 0 LINE",
"187 533 LINE",
"267 68 LINE",
"371 68 LINE",
"568 535 LINE",
"509 0 LINE",
"593 0 LINE",
"667 655 LINE"
);
}
);
width = 699;
}
);
leftKerningGroup = H;
rightKerningGroup = H;
unicode = 004D;
},
{
color = 4;
glyphname = N;
lastChange = "2013-12-19 10:54:20 +0100";
layers = (
{
anchors = (
{
name = bottom;
position = "{255, 0}";
},
{
name = top;
position = "{356, 655}";
}
);
layerId = "F9064169-91CB-4D1F-AD97-42715B9ED178";
name = Light;
paths = (
{
closed = 1;
nodes = (
"471 0 LINE",
"551 655 LINE",
"467 655 LINE",
"399 100 LINE",
"352 290 OFFCURVE",
"301 471 OFFCURVE",
"244 655 CURVE",
"119 655 LINE",
"39 0 LINE",
"123 0 LINE",
"190 556 LINE",
"346 0 LINE"
);
}
);
width = 582;
}
);
leftKerningGroup = H;
leftMetricsKey = H;
rightKerningGroup = H;
rightMetricsKey = H;
unicode = 004E;
},
{
color = 4;
glyphname = O;
lastChange = "2013-12-19 10:54:20 +0100";
layers = (
{
anchors = (
{
name = top;
position = "{334, 655}";
},
{
name = topleft;
position = "{99, 655}";
}
);
layerId = "F9064169-91CB-4D1F-AD97-42715B9ED178";
name = Light;
paths = (
{
closed = 1;
nodes = (
"180 667 OFFCURVE",
"107 601 OFFCURVE",
"89 457 CURVE SMOOTH",
"58 208 LINE SMOOTH",
"41 69 OFFCURVE",
"111 -12 OFFCURVE",
"256 -12 CURVE SMOOTH",
"400 -12 OFFCURVE",
"477 59 OFFCURVE",
"494 198 CURVE SMOOTH",
"525 447 LINE SMOOTH",
"542 585 OFFCURVE",
"467 667 OFFCURVE",
"327 667 CURVE SMOOTH"
);
},
{
closed = 1;
nodes = (
"411 592 OFFCURVE",
"452 547 OFFCURVE",
"441 458 CURVE SMOOTH",
"408 191 LINE SMOOTH",
"397 104 OFFCURVE",
"347 63 OFFCURVE",
"261 63 CURVE SMOOTH",
"175 63 OFFCURVE",
"131 108 OFFCURVE",
"142 197 CURVE SMOOTH",
"174 465 LINE SMOOTH",
"184 550 OFFCURVE",
"233 592 OFFCURVE",
"321 592 CURVE SMOOTH"
);
}
);
width = 576;
}
);
leftKerningGroup = O;
rightKerningGroup = O;
unicode = 004F;
},
{
color = 4;
glyphname = Oslash;
lastChange = "2013-12-19 10:54:20 +0100";
layers = (
{
anchors = (
{
name = top;
position = "{334, 655}";
}
);
layerId = "F9064169-91CB-4D1F-AD97-42715B9ED178";
name = Light;
paths = (
{
closed = 1;
nodes = (
"513 705 LINE",
"460 630 LINE",
"427 654 OFFCURVE",
"382 667 OFFCURVE",
"327 667 CURVE SMOOTH",
"179 667 OFFCURVE",
"107 600 OFFCURVE",
"89 457 CURVE SMOOTH",
"58 208 LINE SMOOTH",
"51 155 OFFCURVE",
"57 110 OFFCURVE",
"75 75 CURVE",
"-15 -50 LINE",
"74 -50 LINE",
"126 20 LINE",
"158 0 OFFCURVE",
"201 -12 OFFCURVE",
"256 -12 CURVE SMOOTH",
"401 -12 OFFCURVE",
"477 60 OFFCURVE",
"494 198 CURVE SMOOTH",
"525 447 LINE SMOOTH",
"531 497 OFFCURVE",
"525 540 OFFCURVE",
"508 575 CURVE",
"602 705 LINE"
);
},
{
closed = 1;
nodes = (
"442 478 OFFCURVE",
"442 468 OFFCURVE",
"441 458 CURVE",
"408 191 LINE SMOOTH",
"397 104 OFFCURVE",
"347 63 OFFCURVE",
"261 63 CURVE SMOOTH",
"221 63 OFFCURVE",
"190 72 OFFCURVE",
"169 92 CURVE",
"442 487 LINE"
);
},
{
closed = 1;
nodes = (
"364 592 OFFCURVE",
"397 581 OFFCURVE",
"417 560 CURVE",
"140 159 LINE",
"139 170 OFFCURVE",
"140 183 OFFCURVE",
"142 197 CURVE SMOOTH",
"174 465 LINE SMOOTH",
"184 551 OFFCURVE",
"234 592 OFFCURVE",
"321 592 CURVE SMOOTH"
);
}
);
width = 576;
}
);
leftKerningGroup = O;
rightKerningGroup = O;
unicode = 00D8;
},
{
color = 4;
glyphname = OE;
lastChange = "2013-12-19 10:54:20 +0100";
layers = (
{
anchors = (
{
name = top;
position = "{386, 655}";
}
);
layerId = "F9064169-91CB-4D1F-AD97-42715B9ED178";
name = Light;
paths = (
{
closed = 1;
nodes = (
"185 667 OFFCURVE",
"113 592 OFFCURVE",
"94 460 CURVE SMOOTH",
"59 211 LINE SMOOTH",
"40 79 OFFCURVE",
"97 -12 OFFCURVE",
"244 -12 CURVE SMOOTH",
"274 -12 OFFCURVE",
"301 -8 OFFCURVE",
"326 0 CURVE",
"671 0 LINE",
"679 77 LINE",
"419 77 LINE",
"446 295 LINE",
"686 295 LINE",
"696 371 LINE",
"456 371 LINE",
"481 578 LINE",
"741 578 LINE",
"751 655 LINE",
"412 655 LINE",
"384 662 OFFCURVE",
"353 667 OFFCURVE",
"320 667 CURVE SMOOTH"
);
},
{
closed = 1;
nodes = (
"347 593 OFFCURVE",
"374 587 OFFCURVE",
"396 579 CURVE",
"335 79 LINE",
"313 69 OFFCURVE",
"289 64 OFFCURVE",
"256 64 CURVE SMOOTH",
"172 64 OFFCURVE",
"131 118 OFFCURVE",
"143 202 CURVE SMOOTH",
"180 470 LINE SMOOTH",
"192 554 OFFCURVE",
"241 593 OFFCURVE",
"320 593 CURVE SMOOTH"
);
}
);
width = 772;
}
);
leftKerningGroup = O;
leftMetricsKey = O;
rightKerningGroup = E;
unicode = 0152;
},
{
color = 4;
glyphname = P;
lastChange = "2013-12-19 10:54:20 +0100";
layers = (
{
layerId = "F9064169-91CB-4D1F-AD97-42715B9ED178";
name = Light;
paths = (
{
closed = 1;
nodes = (
"238 667 OFFCURVE",
"155 664 OFFCURVE",
"120 662 CURVE",
"39 0 LINE",
"124 0 LINE",
"157 280 LINE",
"204 271 OFFCURVE",
"241 267 OFFCURVE",
"259 267 CURVE SMOOTH",
"399 267 OFFCURVE",
"480 333 OFFCURVE",
"497 451 CURVE SMOOTH",
"499 465 LINE SMOOTH",
"517 589 OFFCURVE",
"439 667 OFFCURVE",
"282 667 CURVE SMOOTH"
);
},
{
closed = 1;
nodes = (
"382 596 OFFCURVE",
"428 546 OFFCURVE",
"414 467 CURVE SMOOTH",
"412 456 LINE SMOOTH",
"397 375 OFFCURVE",
"350 337 OFFCURVE",
"257 337 CURVE SMOOTH",
"233 337 OFFCURVE",
"203 340 OFFCURVE",
"165 347 CURVE",
"196 594 LINE",
"217 595 OFFCURVE",
"240 596 OFFCURVE",
"279 596 CURVE SMOOTH"
);
}
);
width = 510;
}
);
leftKerningGroup = H;
leftMetricsKey = H;
rightKerningGroup = P;
unicode = 0050;
},
{
color = 4;
glyphname = Thorn;
lastChange = "2013-12-19 10:54:20 +0100";
layers = (
{
layerId = "F9064169-91CB-4D1F-AD97-42715B9ED178";
name = Light;
paths = (
{
closed = 1;
nodes = (
"131 655 LINE",
"39 0 LINE",
"124 0 LINE",
"145 148 LINE",
"189 140 OFFCURVE",
"225 137 OFFCURVE",
"246 137 CURVE SMOOTH",
"393 137 OFFCURVE",
"468 203 OFFCURVE",
"488 320 CURVE SMOOTH",
"490 335 LINE SMOOTH",
"507 461 OFFCURVE",
"438 537 OFFCURVE",
"280 537 CURVE SMOOTH",
"257 537 OFFCURVE",
"228 536 OFFCURVE",
"199 535 CURVE",
"216 655 LINE"
);
},
{
closed = 1;
nodes = (
"376 466 OFFCURVE",
"418 419 OFFCURVE",
"406 344 CURVE SMOOTH",
"404 332 LINE SMOOTH",
"390 250 OFFCURVE",
"342 208 OFFCURVE",
"245 208 CURVE SMOOTH",
"221 208 OFFCURVE",
"197 210 OFFCURVE",
"154 217 CURVE",
"189 464 LINE",
"210 465 OFFCURVE",
"233 466 OFFCURVE",
"272 466 CURVE SMOOTH"
);
}
);
width = 502;
}
);
leftKerningGroup = H;
leftMetricsKey = H;
unicode = 00DE;
},
{
color = 4;
glyphname = Q;
lastChange = "2013-12-19 10:54:20 +0100";
layers = (
{
layerId = "F9064169-91CB-4D1F-AD97-42715B9ED178";
name = Light;
paths = (
{
closed = 1;
nodes = (
"179 667 OFFCURVE",
"107 600 OFFCURVE",
"89 457 CURVE SMOOTH",
"58 208 LINE SMOOTH",
"41 72 OFFCURVE",
"108 -12 OFFCURVE",
"256 -12 CURVE SMOOTH",
"263 -12 OFFCURVE",
"269 -12 OFFCURVE",
"276 -11 CURVE",
"462 -85 LINE",
"481 -85 LINE",
"489 -6 LINE",
"393 19 LINE",
"451 53 OFFCURVE",
"483 113 OFFCURVE",
"494 198 CURVE SMOOTH",
"525 447 LINE SMOOTH",
"542 583 OFFCURVE",
"469 667 OFFCURVE",
"327 667 CURVE SMOOTH"
);
},
{
closed = 1;
nodes = (
"408 592 OFFCURVE",
"452 550 OFFCURVE",
"441 458 CURVE SMOOTH",
"408 191 LINE SMOOTH",
"397 104 OFFCURVE",
"347 63 OFFCURVE",
"261 63 CURVE SMOOTH",
"174 63 OFFCURVE",
"131 109 OFFCURVE",
"142 197 CURVE SMOOTH",
"174 465 LINE SMOOTH",
"184 551 OFFCURVE",
"234 592 OFFCURVE",
"321 592 CURVE SMOOTH"
);
}
);
width = 576;
}
);
leftKerningGroup = O;
rightKerningGroup = O;
unicode = 0051;
},
{
color = 4;
glyphname = R;
lastChange = "2013-12-19 10:54:20 +0100";
layers = (
{
anchors = (
{
name = bottom;
position = "{249, 0}";
},
{
name = top;
position = "{303, 655}";
}
);
layerId = "F9064169-91CB-4D1F-AD97-42715B9ED178";
name = Light;
paths = (
{
closed = 1;
nodes = (
"239 667 OFFCURVE",
"176 665 OFFCURVE",
"120 662 CURVE",
"39 0 LINE",
"124 0 LINE",
"159 293 LINE",
"200 287 OFFCURVE",
"229 285 OFFCURVE",
"265 285 CURVE",
"304 213 OFFCURVE",
"331 151 OFFCURVE",
"392 0 CURVE",
"489 0 LINE",
"352 296 LINE",
"431 321 OFFCURVE",
"485 382 OFFCURVE",
"496 457 CURVE SMOOTH",
"499 477 LINE SMOOTH",
"515 584 OFFCURVE",
"439 667 OFFCURVE",
"289 667 CURVE SMOOTH"
);
},
{
closed = 1;
nodes = (
"382 596 OFFCURVE",
"426 550 OFFCURVE",
"413 471 CURVE SMOOTH",
"412 465 LINE SMOOTH",
"400 394 OFFCURVE",
"351 352 OFFCURVE",
"255 352 CURVE SMOOTH",
"233 352 OFFCURVE",
"211 353 OFFCURVE",
"167 358 CURVE",
"196 594 LINE",
"223 595 OFFCURVE",
"262 596 OFFCURVE",
"282 596 CURVE SMOOTH"
);
}
);
width = 540;
}
);
leftKerningGroup = H;
rightKerningGroup = R;
unicode = 0052;
},
{
color = 4;
glyphname = S;
lastChange = "2013-12-19 10:54:20 +0100";
layers = (
{
anchors = (
{
name = bottom;
position = "{216, 0}";
},
{
name = top;
position = "{270, 655}";
}
);
layerId = "F9064169-91CB-4D1F-AD97-42715B9ED178";
name = Light;
paths = (
{
closed = 1;
nodes = (
"220 388 LINE SMOOTH",
"162 411 OFFCURVE",
"142 448 OFFCURVE",
"151 504 CURVE SMOOTH",
"153 516 LINE SMOOTH",
"161 565 OFFCURVE",
"196 591 OFFCURVE",
"265 591 CURVE SMOOTH",
"275 591 OFFCURVE",
"285 591 OFFCURVE",
"300 590 CURVE",
"337 583 OFFCURVE",
"374 574 OFFCURVE",
"409 564 CURVE",
"420 645 LINE",
"375 657 OFFCURVE",
"312 667 OFFCURVE",
"269 667 CURVE SMOOTH",
"150 667 OFFCURVE",
"87 621 OFFCURVE",
"68 536 CURVE SMOOTH",
"66 527 LINE SMOOTH",
"44 430 OFFCURVE",
"82 352 OFFCURVE",
"169 317 CURVE SMOOTH",
"258 281 LINE SMOOTH",
"317 257 OFFCURVE",
"336 225 OFFCURVE",
"325 163 CURVE SMOOTH",
"323 152 LINE SMOOTH",
"313 92 OFFCURVE",
"279 64 OFFCURVE",
"209 64 CURVE SMOOTH",
"197 64 OFFCURVE",
"186 64 OFFCURVE",
"166 66 CURVE",
"128 75 OFFCURVE",
"84 92 OFFCURVE",
"39 115 CURVE",
"29 30 LINE",
"74 8 OFFCURVE",
"150 -12 OFFCURVE",
"209 -12 CURVE SMOOTH",
"329 -12 OFFCURVE",
"393 41 OFFCURVE",
"409 145 CURVE SMOOTH",
"411 158 LINE SMOOTH",
"426 257 OFFCURVE",
"390 318 OFFCURVE",
"303 354 CURVE SMOOTH"
);
}
);
width = 456;
}
);
leftKerningGroup = S;
rightKerningGroup = S;
unicode = 0053;
},
{
color = 4;
glyphname = Scedilla;
lastChange = "2013-12-19 10:54:20 +0100";
layers = (
{
layerId = "F9064169-91CB-4D1F-AD97-42715B9ED178";
name = Light;
paths = (
{
closed = 1;
nodes = (
"150 667 OFFCURVE",
"87 621 OFFCURVE",
"68 536 CURVE SMOOTH",
"66 527 LINE SMOOTH",
"44 430 OFFCURVE",
"82 352 OFFCURVE",
"169 317 CURVE SMOOTH",
"258 281 LINE SMOOTH",
"317 257 OFFCURVE",
"336 225 OFFCURVE",
"325 163 CURVE SMOOTH",
"323 152 LINE SMOOTH",
"313 92 OFFCURVE",
"279 64 OFFCURVE",
"209 64 CURVE SMOOTH",
"197 64 OFFCURVE",
"186 64 OFFCURVE",
"166 66 CURVE",
"128 75 OFFCURVE",
"84 92 OFFCURVE",
"39 115 CURVE",
"29 30 LINE",
"65 12 OFFCURVE",
"122 -4 OFFCURVE",
"174 -10 CURVE",
"151 -60 LINE",
"148 -80 LINE",
"174 -80 LINE SMOOTH",
"199 -80 OFFCURVE",
"211 -92 OFFCURVE",
"208 -113 CURVE SMOOTH",
"207 -120 LINE SMOOTH",
"205 -133 OFFCURVE",
"194 -143 OFFCURVE",
"172 -143 CURVE SMOOTH",
"157 -143 OFFCURVE",
"141 -139 OFFCURVE",
"127 -133 CURVE",
"120 -188 LINE",
"137 -193 OFFCURVE",
"163 -197 OFFCURVE",
"179 -197 CURVE SMOOTH",
"238 -197 OFFCURVE",
"268 -169 OFFCURVE",
"274 -121 CURVE SMOOTH",
"275 -112 LINE SMOOTH",
"280 -70 OFFCURVE",
"256 -41 OFFCURVE",
"219 -41 CURVE SMOOTH",
"217 -41 LINE",
"230 -11 LINE",
"336 -5 OFFCURVE",
"394 47 OFFCURVE",
"409 145 CURVE SMOOTH",
"411 158 LINE SMOOTH",
"426 257 OFFCURVE",
"390 318 OFFCURVE",
"303 354 CURVE SMOOTH",
"220 388 LINE SMOOTH",
"162 411 OFFCURVE",
"142 448 OFFCURVE",
"151 504 CURVE SMOOTH",
"153 516 LINE SMOOTH",
"161 565 OFFCURVE",
"196 591 OFFCURVE",
"265 591 CURVE SMOOTH",
"275 591 OFFCURVE",
"285 591 OFFCURVE",
"300 590 CURVE",
"337 583 OFFCURVE",
"374 574 OFFCURVE",
"409 564 CURVE",
"420 645 LINE",
"375 657 OFFCURVE",
"312 667 OFFCURVE",
"269 667 CURVE SMOOTH"
);
}
);
width = 456;
}
);
leftKerningGroup = S;
leftMetricsKey = S;
rightKerningGroup = S;
rightMetricsKey = S;
unicode = 015E;
},
{
color = 4;
glyphname = T;
lastChange = "2013-12-19 10:54:20 +0100";
layers = (
{
anchors = (
{
name = bottom;
position = "{215, 0}";
},
{
name = center;
position = "{263, 328}";
}
);
layerId = "F9064169-91CB-4D1F-AD97-42715B9ED178";
name = Light;
paths = (
{
closed = 1;
nodes = (
"254 578 LINE",
"184 0 LINE",
"269 0 LINE",
"339 578 LINE",
"529 578 LINE",
"539 655 LINE",
"74 655 LINE",
"64 578 LINE"
);
}
);
width = 525;
}
);
leftKerningGroup = T;
rightKerningGroup = T;
unicode = 0054;
},
{
color = 8;
glyphname = Tcedilla;
lastChange = "2014-01-03 10:10:55 +0100";
layers = (
{
layerId = "F9064169-91CB-4D1F-AD97-42715B9ED178";
name = Light;
paths = (
{
closed = 1;
nodes = (
"74 655 LINE",
"64 578 LINE",
"254 578 LINE",
"187 26 LINE",
"147 -60 LINE",
"144 -80 LINE",
"170 -80 LINE SMOOTH",
"195 -80 OFFCURVE",
"207 -92 OFFCURVE",
"204 -113 CURVE SMOOTH",
"203 -120 LINE SMOOTH",
"201 -133 OFFCURVE",
"190 -143 OFFCURVE",
"168 -143 CURVE SMOOTH",
"153 -143 OFFCURVE",
"137 -139 OFFCURVE",
"123 -133 CURVE",
"116 -188 LINE",
"133 -193 OFFCURVE",
"159 -197 OFFCURVE",
"175 -197 CURVE SMOOTH",
"234 -197 OFFCURVE",
"264 -169 OFFCURVE",
"270 -121 CURVE SMOOTH",
"271 -112 LINE SMOOTH",
"276 -70 OFFCURVE",
"252 -41 OFFCURVE",
"215 -41 CURVE SMOOTH",
"213 -41 LINE",
"231 0 LINE",
"269 0 LINE",
"339 578 LINE",
"529 578 LINE",
"539 655 LINE"
);
}
);
width = 525;
}
);
leftKerningGroup = T;
leftMetricsKey = T;
rightKerningGroup = T;
rightMetricsKey = T;
unicode = 0162;
},
{
color = 4;
glyphname = U;
lastChange = "2013-12-19 10:54:20 +0100";
layers = (
{
anchors = (
{
name = ogonek;
position = "{518, 10}";
},
{
name = top;
position = "{340, 655}";
}
);
layerId = "F9064169-91CB-4D1F-AD97-42715B9ED178";
name = Light;
paths = (
{
closed = 1;
nodes = (
"460 655 LINE",
"403 194 LINE SMOOTH",
"392 104 OFFCURVE",
"347 65 OFFCURVE",
"267 65 CURVE SMOOTH",
"181 65 OFFCURVE",
"136 112 OFFCURVE",
"147 197 CURVE SMOOTH",
"204 655 LINE",
"119 655 LINE",
"63 204 LINE SMOOTH",
"46 68 OFFCURVE",
"114 -12 OFFCURVE",
"261 -12 CURVE SMOOTH",
"399 -12 OFFCURVE",
"471 56 OFFCURVE",
"489 201 CURVE SMOOTH",
"545 655 LINE"
);
}
);
width = 576;
}
);
leftKerningGroup = U;
rightKerningGroup = U;
unicode = 0055;
},
{
color = 4;
glyphname = Uogonek;
lastChange = "2013-12-19 10:54:20 +0100";
layers = (
{
layerId = "F9064169-91CB-4D1F-AD97-42715B9ED178";
name = Light;
paths = (
{
closed = 1;
nodes = (
"460 655 LINE",
"403 194 LINE SMOOTH",
"392 104 OFFCURVE",
"347 65 OFFCURVE",
"267 65 CURVE SMOOTH",
"181 65 OFFCURVE",
"136 112 OFFCURVE",
"147 197 CURVE SMOOTH",
"204 655 LINE",
"119 655 LINE",
"63 204 LINE SMOOTH",
"46 71 OFFCURVE",
"111 -9 OFFCURVE",
"252 -12 CURVE",
"221 -37 OFFCURVE",
"200 -71 OFFCURVE",
"196 -103 CURVE SMOOTH",
"194 -116 LINE SMOOTH",
"187 -164 OFFCURVE",
"214 -197 OFFCURVE",
"282 -197 CURVE SMOOTH",
"297 -197 OFFCURVE",
"313 -196 OFFCURVE",
"331 -192 CURVE",
"339 -131 LINE",
"327 -133 OFFCURVE",
"315 -134 OFFCURVE",
"306 -134 CURVE SMOOTH",
"276 -134 OFFCURVE",
"265 -123 OFFCURVE",
"269 -97 CURVE SMOOTH",
"270 -87 LINE SMOOTH",
"275 -56 OFFCURVE",
"296 -25 OFFCURVE",
"328 -5 CURVE",
"423 14 OFFCURVE",
"474 82 OFFCURVE",
"489 201 CURVE SMOOTH",
"545 655 LINE"
);
}
);
width = 576;
}
);
leftKerningGroup = U;
leftMetricsKey = U;
rightKerningGroup = U;
rightMetricsKey = U;
unicode = 0172;
},
{
color = 4;
glyphname = V;
lastChange = "2013-12-19 10:54:20 +0100";
layers = (
{
layerId = "F9064169-91CB-4D1F-AD97-42715B9ED178";
name = Light;
paths = (
{
closed = 1;
nodes = (
"462 655 LINE",
"394 464 OFFCURVE",
"317 273 OFFCURVE",
"231 82 CURVE",
"208 272 OFFCURVE",
"177 463 OFFCURVE",
"142 655 CURVE",
"57 655 LINE",
"171 0 LINE",
"283 0 LINE",
"557 655 LINE"
);
}
);
width = 526;
}
);
leftKerningGroup = V;
rightKerningGroup = V;
unicode = 0056;
},
{
color = 4;
glyphname = W;
lastChange = "2013-12-19 10:54:20 +0100";
layers = (
{
anchors = (
{
name = top;
position = "{476, 655}";
}
);
layerId = "F9064169-91CB-4D1F-AD97-42715B9ED178";
name = Light;
paths = (
{
closed = 1;
nodes = (
"774 655 LINE",
"718 468 OFFCURVE",
"657 280 OFFCURVE",
"587 93 CURVE",
"571 280 OFFCURVE",
"548 468 OFFCURVE",
"521 655 CURVE",
"407 655 LINE",
"347 467 OFFCURVE",
"281 279 OFFCURVE",
"207 93 CURVE",
"195 281 OFFCURVE",
"178 469 OFFCURVE",
"156 655 CURVE",
"69 655 LINE",
"139 0 LINE",
"253 0 LINE",
"456 558 LINE",
"524 0 LINE",
"638 0 LINE",
"867 655 LINE"
);
}
);
width = 848;
}
);
leftKerningGroup = W;
rightKerningGroup = W;
unicode = 0057;
},
{
color = 4;
glyphname = X;
lastChange = "2013-12-19 10:54:20 +0100";
layers = (
{
layerId = "F9064169-91CB-4D1F-AD97-42715B9ED178";
name = Light;
paths = (
{
closed = 1;
nodes = (
"439 655 LINE",
"387 571 OFFCURVE",
"333 492 OFFCURVE",
"270 405 CURVE",
"236 488 OFFCURVE",
"201 572 OFFCURVE",
"165 655 CURVE",
"69 655 LINE",
"210 341 LINE",
"-23 0 LINE",
"76 0 LINE",
"138 89 OFFCURVE",
"197 179 OFFCURVE",
"256 268 CURVE",
"301 171 OFFCURVE",
"335 91 OFFCURVE",
"370 0 CURVE",
"470 0 LINE",
"319 335 LINE",
"539 655 LINE"
);
}
);
width = 519;
}
);
leftKerningGroup = X;
rightKerningGroup = X;
unicode = 0058;
},
{
color = 4;
glyphname = Y;
lastChange = "2013-12-19 10:54:20 +0100";
layers = (
{
anchors = (
{
name = top;
position = "{295, 655}";
},
{
name = topleft;
position = "{44, 655}";
}
);
layerId = "F9064169-91CB-4D1F-AD97-42715B9ED178";
name = Light;
paths = (
{
closed = 1;
nodes = (
"423 655 LINE",
"369 542 OFFCURVE",
"310 428 OFFCURVE",
"244 315 CURVE",
"216 428 OFFCURVE",
"184 542 OFFCURVE",
"150 655 CURVE",
"57 655 LINE",
"194 225 LINE",
"167 0 LINE",
"252 0 LINE",
"279 225 LINE",
"522 655 LINE"
);
}
);
width = 491;
}
);
leftKerningGroup = Y;
rightKerningGroup = Y;
unicode = 0059;
},
{
color = 4;
glyphname = Z;
lastChange = "2013-12-19 10:54:20 +0100";
layers = (
{
anchors = (
{
name = top;
position = "{297, 655}";
}
);
layerId = "F9064169-91CB-4D1F-AD97-42715B9ED178";
name = Light;
paths = (
{
closed = 1;
nodes = (
"399 0 LINE",
"407 77 LINE",
"115 77 LINE",
"228 252 OFFCURVE",
"345 423 OFFCURVE",
"470 588 CURVE",
"479 655 LINE",
"90 655 LINE",
"80 578 LINE",
"365 578 LINE",
"11 67 LINE",
"4 0 LINE"
);
}
);
width = 480;
}
);
leftKerningGroup = Z;
rightKerningGroup = Z;
unicode = 005A;
},
{
color = 4;
glyphname = a;
lastChange = "2013-12-19 10:54:20 +0100";
layers = (
{
anchors = (
{
name = ogonek;
position = "{428, 10}";
},
{
name = top;
position = "{271, 488}";
}
);
layerId = "F9064169-91CB-4D1F-AD97-42715B9ED178";
name = Light;
paths = (
{
closed = 1;
nodes = (
"148 500 OFFCURVE",
"84 444 OFFCURVE",
"65 327 CURVE SMOOTH",
"39 164 LINE SMOOTH",
"20 49 OFFCURVE",
"71 -12 OFFCURVE",
"146 -12 CURVE SMOOTH",
"218 -12 OFFCURVE",
"282 48 OFFCURVE",
"330 191 CURVE",
"333 192 LINE",
"335 190 LINE",
"294 65 LINE",
"285 0 LINE",
"366 0 LINE",
"434 488 LINE",
"354 488 LINE",
"348 438 LINE",
"316 476 OFFCURVE",
"273 500 OFFCURVE",
"227 500 CURVE SMOOTH"
);
},
{
closed = 1;
nodes = (
"272 427 OFFCURVE",
"308 406 OFFCURVE",
"334 373 CURVE",
"321 280 LINE",
"302 189 OFFCURVE",
"250 64 OFFCURVE",
"170 64 CURVE SMOOTH",
"131 64 OFFCURVE",
"112 90 OFFCURVE",
"126 175 CURVE SMOOTH",
"150 322 LINE SMOOTH",
"162 396 OFFCURVE",
"194 427 OFFCURVE",
"238 427 CURVE SMOOTH"
);
}
);
width = 476;
}
);
leftKerningGroup = o;
rightKerningGroup = u;
unicode = 0061;
},
{
color = 4;
glyphname = aogonek;
lastChange = "2013-12-19 10:54:20 +0100";
layers = (
{
layerId = "F9064169-91CB-4D1F-AD97-42715B9ED178";
name = Light;
paths = (
{
closed = 1;
nodes = (
"148 500 OFFCURVE",
"84 444 OFFCURVE",
"65 327 CURVE SMOOTH",
"39 164 LINE SMOOTH",
"20 49 OFFCURVE",
"71 -12 OFFCURVE",
"146 -12 CURVE SMOOTH",
"218 -12 OFFCURVE",
"282 48 OFFCURVE",
"330 191 CURVE",
"333 192 LINE",
"335 190 LINE",
"294 65 LINE",
"285 3 LINE",
"243 -22 OFFCURVE",
"213 -64 OFFCURVE",
"208 -103 CURVE SMOOTH",
"206 -116 LINE SMOOTH",
"199 -164 OFFCURVE",
"226 -197 OFFCURVE",
"294 -197 CURVE SMOOTH",
"309 -197 OFFCURVE",
"325 -196 OFFCURVE",
"343 -192 CURVE",
"351 -131 LINE",
"339 -133 OFFCURVE",
"327 -134 OFFCURVE",
"318 -134 CURVE SMOOTH",
"288 -134 OFFCURVE",
"277 -123 OFFCURVE",
"281 -97 CURVE SMOOTH",
"282 -87 LINE SMOOTH",
"287 -53 OFFCURVE",
"311 -19 OFFCURVE",
"350 0 CURVE",
"366 0 LINE",
"434 488 LINE",
"354 488 LINE",
"347 438 LINE",
"315 476 OFFCURVE",
"273 500 OFFCURVE",
"227 500 CURVE SMOOTH"
);
},
{
closed = 1;
nodes = (
"272 427 OFFCURVE",
"308 406 OFFCURVE",
"334 373 CURVE",
"320 278 LINE",
"301 187 OFFCURVE",
"250 64 OFFCURVE",
"170 64 CURVE SMOOTH",
"131 64 OFFCURVE",
"112 90 OFFCURVE",
"126 175 CURVE SMOOTH",
"150 322 LINE SMOOTH",
"162 396 OFFCURVE",
"194 427 OFFCURVE",
"238 427 CURVE SMOOTH"
);
}
);
width = 476;
}
);
leftKerningGroup = o;
leftMetricsKey = a;
rightKerningGroup = u;
rightMetricsKey = a;
unicode = 0105;
},
{
color = 4;
glyphname = ae;
lastChange = "2013-12-19 10:54:20 +0100";
layers = (
{
anchors = (
{
name = top;
position = "{424, 488}";
}
);
background = {
paths = (
{
closed = 1;
nodes = (
"463 500 OFFCURVE",
"407 470 OFFCURVE",
"369 411 CURVE",
"341 459 OFFCURVE",
"280 500 OFFCURVE",
"224 500 CURVE SMOOTH",
"142 500 OFFCURVE",
"84 443 OFFCURVE",
"66 331 CURVE SMOOTH",
"39 164 LINE SMOOTH",
"36 148 OFFCURVE",
"35 133 OFFCURVE",
"35 119 CURVE SMOOTH",
"35 35 OFFCURVE",
"79 -12 OFFCURVE",
"146 -12 CURVE SMOOTH",
"206 -12 OFFCURVE",
"260 29 OFFCURVE",
"304 125 CURVE",
"307 33 OFFCURVE",
"354 -12 OFFCURVE",
"448 -12 CURVE SMOOTH",
"488 -12 OFFCURVE",
"544 2 OFFCURVE",
"589 23 CURVE",
"604 100 LINE",
"559 77 OFFCURVE",
"505 61 OFFCURVE",
"462 61 CURVE SMOOTH",
"404 61 OFFCURVE",
"378 94 OFFCURVE",
"390 162 CURVE SMOOTH",
"392 173 LINE",
"591 190 OFFCURVE",
"669 277 OFFCURVE",
"669 374 CURVE SMOOTH",
"669 450 OFFCURVE",
"617 500 OFFCURVE",
"527 500 CURVE SMOOTH"
);
},
{
closed = 1;
nodes = (
"280 424 OFFCURVE",
"323 397 OFFCURVE",
"345 361 CURVE",
"332 327 OFFCURVE",
"324 291 OFFCURVE",
"321 270 CURVE SMOOTH",
"314 220 OFFCURVE",
"256 64 OFFCURVE",
"170 64 CURVE SMOOTH",
"140 64 OFFCURVE",
"121 80 OFFCURVE",
"121 127 CURVE SMOOTH",
"121 140 OFFCURVE",
"123 156 OFFCURVE",
"126 175 CURVE SMOOTH",
"150 323 LINE SMOOTH",
"162 397 OFFCURVE",
"193 424 OFFCURVE",
"244 424 CURVE SMOOTH"
);
},
{
closed = 1;
nodes = (
"561 429 OFFCURVE",
"585 406 OFFCURVE",
"585 367 CURVE SMOOTH",
"585 326 OFFCURVE",
"562 291 OFFCURVE",
"508 254 CURVE",
"480 243 OFFCURVE",
"444 234 OFFCURVE",
"400 227 CURVE",
"407 272 LINE SMOOTH",
"423 378 OFFCURVE",
"474 429 OFFCURVE",
"524 429 CURVE SMOOTH"
);
}
);
};
layerId = "F9064169-91CB-4D1F-AD97-42715B9ED178";
name = Light;
paths = (
{
closed = 1;
nodes = (
"463 500 OFFCURVE",
"407 470 OFFCURVE",
"369 411 CURVE",
"341 459 OFFCURVE",
"280 500 OFFCURVE",
"224 500 CURVE SMOOTH",
"142 500 OFFCURVE",
"84 443 OFFCURVE",
"66 331 CURVE SMOOTH",
"39 164 LINE SMOOTH",
"25 89 OFFCURVE",
"45 -12 OFFCURVE",
"146 -12 CURVE SMOOTH",
"206 -12 OFFCURVE",
"260 29 OFFCURVE",
"304 125 CURVE",
"307 33 OFFCURVE",
"354 -12 OFFCURVE",
"448 -12 CURVE SMOOTH",
"488 -12 OFFCURVE",
"544 2 OFFCURVE",
"589 23 CURVE",
"604 100 LINE",
"559 77 OFFCURVE",
"505 61 OFFCURVE",
"462 61 CURVE SMOOTH",
"404 61 OFFCURVE",
"378 94 OFFCURVE",
"390 162 CURVE SMOOTH",
"392 173 LINE",
"591 190 OFFCURVE",
"669 277 OFFCURVE",
"669 374 CURVE SMOOTH",
"669 450 OFFCURVE",
"617 500 OFFCURVE",
"527 500 CURVE SMOOTH"
);
},
{
closed = 1;
nodes = (
"280 424 OFFCURVE",
"323 397 OFFCURVE",
"345 361 CURVE",
"332 327 OFFCURVE",
"323 291 OFFCURVE",
"321 270 CURVE SMOOTH",
"316 220 OFFCURVE",
"256 64 OFFCURVE",
"170 64 CURVE SMOOTH",
"113 64 OFFCURVE",
"118 124 OFFCURVE",
"126 175 CURVE SMOOTH",
"150 323 LINE SMOOTH",
"162 397 OFFCURVE",
"193 424 OFFCURVE",
"244 424 CURVE SMOOTH"
);
},
{
closed = 1;
nodes = (
"561 429 OFFCURVE",
"585 406 OFFCURVE",
"585 367 CURVE SMOOTH",
"585 326 OFFCURVE",
"562 291 OFFCURVE",
"508 254 CURVE",
"480 243 OFFCURVE",
"444 234 OFFCURVE",
"400 227 CURVE",
"407 272 LINE SMOOTH",
"423 378 OFFCURVE",
"474 429 OFFCURVE",
"524 429 CURVE SMOOTH"
);
}
);
width = 700;
}
);
leftKerningGroup = o;
leftMetricsKey = a;
rightKerningGroup = e;
rightMetricsKey = e;
unicode = 00E6;
},
{
color = 4;
glyphname = b;
lastChange = "2013-12-19 10:54:20 +0100";
layers = (
{
layerId = "F9064169-91CB-4D1F-AD97-42715B9ED178";
name = Light;
paths = (
{
closed = 1;
nodes = (
"109 683 LINE",
"107 616 OFFCURVE",
"102 552 OFFCURVE",
"89 458 CURVE SMOOTH",
"50 185 LINE SMOOTH",
"32 60 OFFCURVE",
"88 -12 OFFCURVE",
"208 -12 CURVE SMOOTH",
"311 -12 OFFCURVE",
"366 40 OFFCURVE",
"394 177 CURVE SMOOTH",
"418 297 LINE SMOOTH",
"445 433 OFFCURVE",
"395 500 OFFCURVE",
"312 500 CURVE SMOOTH",
"230 500 OFFCURVE",
"170 412 OFFCURVE",
"124 253 CURVE",
"121 251 LINE",
"119 253 LINE",
"178 485 LINE",
"182 514 LINE SMOOTH",
"190 571 OFFCURVE",
"193 632 OFFCURVE",
"194 683 CURVE"
);
},
{
closed = 1;
nodes = (
"327 424 OFFCURVE",
"353 387 OFFCURVE",
"333 292 CURVE SMOOTH",
"306 162 LINE SMOOTH",
"291 87 OFFCURVE",
"260 59 OFFCURVE",
"208 59 CURVE SMOOTH",
"161 59 OFFCURVE",
"132 88 OFFCURVE",
"133 141 CURVE",
"154 277 OFFCURVE",
"222 424 OFFCURVE",
"292 424 CURVE SMOOTH"
);
}
);
width = 471;
}
);
leftKerningGroup = b;
rightKerningGroup = o;
unicode = 0062;
},
{
color = 4;
glyphname = c;
lastChange = "2013-12-19 10:54:20 +0100";
layers = (
{
anchors = (
{
name = bottom;
position = "{197, 0}";
},
{
name = top;
position = "{254, 488}";
}
);
layerId = "F9064169-91CB-4D1F-AD97-42715B9ED178";
name = Light;
paths = (
{
closed = 1;
nodes = (
"221 -12 OFFCURVE",
"265 -1 OFFCURVE",
"307 19 CURVE",
"316 96 LINE",
"278 74 OFFCURVE",
"235 63 OFFCURVE",
"198 63 CURVE SMOOTH",
"147 63 OFFCURVE",
"118 91 OFFCURVE",
"129 174 CURVE SMOOTH",
"150 328 LINE SMOOTH",
"160 396 OFFCURVE",
"195 428 OFFCURVE",
"247 428 CURVE SMOOTH",
"275 428 OFFCURVE",
"310 421 OFFCURVE",
"350 406 CURVE",
"362 482 LINE",
"317 495 OFFCURVE",
"283 500 OFFCURVE",
"248 500 CURVE SMOOTH",
"145 500 OFFCURVE",
"82 445 OFFCURVE",
"64 321 CURVE SMOOTH",
"43 173 LINE SMOOTH",
"26 54 OFFCURVE",
"80 -12 OFFCURVE",
"186 -12 CURVE"
);
}
);
width = 393;
}
);
leftKerningGroup = c;
rightKerningGroup = c;
unicode = 0063;
},
{
color = 4;
glyphname = ccedilla;
lastChange = "2013-12-19 10:54:20 +0100";
layers = (
{
layerId = "F9064169-91CB-4D1F-AD97-42715B9ED178";
name = Light;
paths = (
{
closed = 1;
nodes = (
"145 500 OFFCURVE",
"82 445 OFFCURVE",
"64 321 CURVE SMOOTH",
"43 173 LINE SMOOTH",
"28 73 OFFCURVE",
"64 10 OFFCURVE",
"139 -7 CURVE",
"114 -60 LINE",
"111 -80 LINE",
"137 -80 LINE SMOOTH",
"162 -80 OFFCURVE",
"174 -92 OFFCURVE",
"171 -113 CURVE SMOOTH",
"170 -120 LINE SMOOTH",
"168 -133 OFFCURVE",
"157 -143 OFFCURVE",
"135 -143 CURVE SMOOTH",
"120 -143 OFFCURVE",
"104 -139 OFFCURVE",
"90 -133 CURVE",
"83 -188 LINE",
"100 -193 OFFCURVE",
"126 -197 OFFCURVE",
"142 -197 CURVE SMOOTH",
"201 -197 OFFCURVE",
"231 -169 OFFCURVE",
"237 -121 CURVE SMOOTH",
"238 -112 LINE SMOOTH",
"243 -70 OFFCURVE",
"219 -41 OFFCURVE",
"182 -41 CURVE SMOOTH",
"180 -41 LINE",
"192 -12 LINE",
"226 -10 OFFCURVE",
"267 0 OFFCURVE",
"307 19 CURVE",
"316 96 LINE",
"278 74 OFFCURVE",
"235 63 OFFCURVE",
"198 63 CURVE SMOOTH",
"147 63 OFFCURVE",
"118 91 OFFCURVE",
"129 174 CURVE SMOOTH",
"150 328 LINE SMOOTH",
"160 396 OFFCURVE",
"195 428 OFFCURVE",
"247 428 CURVE SMOOTH",
"275 428 OFFCURVE",
"310 421 OFFCURVE",
"350 406 CURVE",
"362 482 LINE",
"317 495 OFFCURVE",
"283 500 OFFCURVE",
"248 500 CURVE SMOOTH"
);
}
);
width = 393;
}
);
leftKerningGroup = c;
leftMetricsKey = c;
rightKerningGroup = c;
rightMetricsKey = c;
unicode = 00E7;
},
{
color = 4;
glyphname = d;
lastChange = "2013-12-19 10:54:20 +0100";
layers = (
{
anchors = (
{
name = center;
position = "{238, 244}";
},
{
name = topleft;
position = "{540, 488}";
}
);
layerId = "F9064169-91CB-4D1F-AD97-42715B9ED178";
name = Light;
paths = (
{
closed = 1;
nodes = (
"376 683 LINE",
"343 443 LINE",
"311 478 OFFCURVE",
"269 500 OFFCURVE",
"225 500 CURVE SMOOTH",
"146 500 OFFCURVE",
"85 447 OFFCURVE",
"66 331 CURVE SMOOTH",
"39 164 LINE SMOOTH",
"20 49 OFFCURVE",
"71 -12 OFFCURVE",
"146 -12 CURVE SMOOTH",
"218 -12 OFFCURVE",
"282 48 OFFCURVE",
"330 191 CURVE",
"333 192 LINE",
"335 190 LINE",
"294 65 LINE",
"285 0 LINE",
"366 0 LINE",
"461 683 LINE"
);
},
{
closed = 1;
nodes = (
"272 424 OFFCURVE",
"307 406 OFFCURVE",
"333 374 CURVE",
"320 276 LINE",
"301 186 OFFCURVE",
"250 64 OFFCURVE",
"170 64 CURVE SMOOTH",
"131 64 OFFCURVE",
"112 90 OFFCURVE",
"126 175 CURVE SMOOTH",
"150 322 LINE SMOOTH",
"162 396 OFFCURVE",
"193 424 OFFCURVE",
"238 424 CURVE SMOOTH"
);
}
);
width = 476;
}
);
leftKerningGroup = o;
rightKerningGroup = d;
unicode = 0064;
},
{
color = 4;
glyphname = eth;
lastChange = "2013-12-19 10:54:20 +0100";
layers = (
{
layerId = "F9064169-91CB-4D1F-AD97-42715B9ED178";
name = Light;
paths = (
{
closed = 1;
nodes = (
"158 631 LINE",
"210 631 OFFCURVE",
"253 617 OFFCURVE",
"285 591 CURVE",
"212 571 LINE",
"202 505 LINE",
"327 539 LINE",
"347 500 OFFCURVE",
"354 448 OFFCURVE",
"345 386 CURVE SMOOTH",
"341 361 LINE",
"311 415 OFFCURVE",
"262 439 OFFCURVE",
"217 439 CURVE SMOOTH",
"135 439 OFFCURVE",
"85 393 OFFCURVE",
"70 282 CURVE SMOOTH",
"54 167 LINE SMOOTH",
"37 51 OFFCURVE",
"93 -12 OFFCURVE",
"214 -12 CURVE SMOOTH",
"328 -12 OFFCURVE",
"383 48 OFFCURVE",
"399 165 CURVE SMOOTH",
"423 335 LINE SMOOTH",
"436 428 OFFCURVE",
"430 504 OFFCURVE",
"405 561 CURVE",
"468 579 LINE",
"477 645 LINE",
"372 615 LINE",
"328 668 OFFCURVE",
"259 695 OFFCURVE",
"167 695 CURVE"
);
},
{
closed = 1;
nodes = (
"264 363 OFFCURVE",
"305 336 OFFCURVE",
"330 281 CURVE",
"311 148 LINE SMOOTH",
"303 90 OFFCURVE",
"276 59 OFFCURVE",
"216 59 CURVE SMOOTH",
"159 59 OFFCURVE",
"127 91 OFFCURVE",
"135 152 CURVE SMOOTH",
"151 264 LINE SMOOTH",
"161 336 OFFCURVE",
"188 363 OFFCURVE",
"228 363 CURVE SMOOTH"
);
}
);
width = 487;
}
);
unicode = 00F0;
},
{
color = 4;
glyphname = dcaron;
lastChange = "2013-12-19 11:34:11 +0100";
layers = (
{
anchors = (
{
name = center;
position = "{238, 244}";
},
{
name = topleft;
position = "{540, 488}";
}
);
layerId = "F9064169-91CB-4D1F-AD97-42715B9ED178";
rightMetricsKey = caron.alt;
name = Light;
paths = (
{
closed = 1;
nodes = (
"589 649 LINE SMOOTH",
"594 679 OFFCURVE",
"577 695 OFFCURVE",
"542 695 CURVE SMOOTH",
"512 695 OFFCURVE",
"500 683 OFFCURVE",
"496 658 CURVE SMOOTH",
"493 638 LINE SMOOTH",
"490 617 OFFCURVE",
"497 603 OFFCURVE",
"517 596 CURVE",
"491 525 LINE",
"543 525 LINE",
"571 584 LINE SMOOTH",
"579 601 OFFCURVE",
"583 612 OFFCURVE",
"586 629 CURVE SMOOTH"
);
},
{
closed = 1;
nodes = (
"376 683 LINE",
"343 443 LINE",
"311 478 OFFCURVE",
"269 500 OFFCURVE",
"225 500 CURVE SMOOTH",
"146 500 OFFCURVE",
"85 447 OFFCURVE",
"66 331 CURVE SMOOTH",
"39 164 LINE SMOOTH",
"20 49 OFFCURVE",
"71 -12 OFFCURVE",
"146 -12 CURVE SMOOTH",
"218 -12 OFFCURVE",
"282 48 OFFCURVE",
"330 191 CURVE",
"333 192 LINE",
"335 190 LINE",
"294 65 LINE",
"285 0 LINE",
"366 0 LINE",
"461 683 LINE"
);
},
{
closed = 1;
nodes = (
"272 424 OFFCURVE",
"307 406 OFFCURVE",
"333 374 CURVE",
"320 276 LINE",
"301 186 OFFCURVE",
"250 64 OFFCURVE",
"170 64 CURVE SMOOTH",
"131 64 OFFCURVE",
"112 90 OFFCURVE",
"126 175 CURVE SMOOTH",
"150 322 LINE SMOOTH",
"162 396 OFFCURVE",
"193 424 OFFCURVE",
"238 424 CURVE SMOOTH"
);
}
);
width = 540;
}
);
leftKerningGroup = o;
leftMetricsKey = d;
rightMetricsKey = caronalt;
unicode = 010F;
},
{
color = 4;
glyphname = dcroat;
lastChange = "2013-12-19 10:54:20 +0100";
layers = (
{
layerId = "F9064169-91CB-4D1F-AD97-42715B9ED178";
name = Light;
paths = (
{
closed = 1;
nodes = (
"376 683 LINE",
"367 623 LINE",
"248 623 LINE",
"238 553 LINE",
"358 553 LINE",
"343 443 LINE",
"311 478 OFFCURVE",
"269 500 OFFCURVE",
"225 500 CURVE SMOOTH",
"146 500 OFFCURVE",
"85 447 OFFCURVE",
"66 331 CURVE SMOOTH",
"39 164 LINE SMOOTH",
"20 49 OFFCURVE",
"71 -12 OFFCURVE",
"146 -12 CURVE SMOOTH",
"218 -12 OFFCURVE",
"282 48 OFFCURVE",
"330 191 CURVE",
"333 192 LINE",
"335 190 LINE",
"294 65 LINE",
"285 0 LINE",
"366 0 LINE",
"443 553 LINE",
"513 553 LINE",
"523 623 LINE",
"452 623 LINE",
"461 683 LINE"
);
},
{
closed = 1;
nodes = (
"272 424 OFFCURVE",
"307 406 OFFCURVE",
"333 374 CURVE",
"320 276 LINE",
"301 186 OFFCURVE",
"250 64 OFFCURVE",
"170 64 CURVE SMOOTH",
"131 64 OFFCURVE",
"112 90 OFFCURVE",
"126 175 CURVE SMOOTH",
"150 322 LINE SMOOTH",
"162 396 OFFCURVE",
"193 424 OFFCURVE",
"238 424 CURVE SMOOTH"
);
}
);
width = 481;
}
);
leftKerningGroup = o;
leftMetricsKey = d;
unicode = 0111;
},
{
color = 4;
glyphname = e;
lastChange = "2013-12-19 10:54:20 +0100";
layers = (
{
anchors = (
{
name = bottom;
position = "{218, 0}";
},
{
name = ogonek;
position = "{392, 10}";
},
{
name = top;
position = "{271, 488}";
}
);
layerId = "F9064169-91CB-4D1F-AD97-42715B9ED178";
name = Light;
paths = (
{
closed = 1;
nodes = (
"160 500 OFFCURVE",
"80 424 OFFCURVE",
"57 268 CURVE SMOOTH",
"45 190 LINE SMOOTH",
"25 54 OFFCURVE",
"71 -12 OFFCURVE",
"184 -12 CURVE SMOOTH",
"224 -12 OFFCURVE",
"280 2 OFFCURVE",
"325 23 CURVE",
"340 100 LINE",
"295 77 OFFCURVE",
"241 61 OFFCURVE",
"198 61 CURVE SMOOTH",
"140 61 OFFCURVE",
"115 92 OFFCURVE",
"126 162 CURVE",
"127 173 LINE",
"326 190 OFFCURVE",
"404 277 OFFCURVE",
"405 374 CURVE SMOOTH",
"406 450 OFFCURVE",
"353 500 OFFCURVE",
"263 500 CURVE SMOOTH"
);
},
{
closed = 1;
nodes = (
"297 429 OFFCURVE",
"321 406 OFFCURVE",
"321 367 CURVE SMOOTH",
"321 326 OFFCURVE",
"298 291 OFFCURVE",
"244 254 CURVE",
"216 243 OFFCURVE",
"180 234 OFFCURVE",
"136 227 CURVE",
"143 272 LINE SMOOTH",
"159 378 OFFCURVE",
"210 429 OFFCURVE",
"260 429 CURVE SMOOTH"
);
}
);
width = 436;
}
);
leftKerningGroup = e;
rightKerningGroup = e;
unicode = 0065;
},
{
color = 4;
glyphname = eogonek;
lastChange = "2013-12-19 10:54:20 +0100";
layers = (
{
layerId = "F9064169-91CB-4D1F-AD97-42715B9ED178";
name = Light;
paths = (
{
closed = 1;
nodes = (
"160 500 OFFCURVE",
"80 424 OFFCURVE",
"57 268 CURVE SMOOTH",
"45 190 LINE SMOOTH",
"25 54 OFFCURVE",
"70 -11 OFFCURVE",
"183 -12 CURVE",
"152 -37 OFFCURVE",
"131 -71 OFFCURVE",
"127 -103 CURVE SMOOTH",
"125 -116 LINE SMOOTH",
"118 -164 OFFCURVE",
"145 -197 OFFCURVE",
"213 -197 CURVE SMOOTH",
"228 -197 OFFCURVE",
"244 -196 OFFCURVE",
"262 -192 CURVE",
"270 -131 LINE",
"258 -133 OFFCURVE",
"246 -134 OFFCURVE",
"237 -134 CURVE SMOOTH",
"207 -134 OFFCURVE",
"196 -123 OFFCURVE",
"200 -97 CURVE SMOOTH",
"201 -87 LINE SMOOTH",
"207 -49 OFFCURVE",
"238 -10 OFFCURVE",
"286 7 CURVE",
"298 11 OFFCURVE",
"314 18 OFFCURVE",
"325 23 CURVE",
"340 100 LINE",
"295 77 OFFCURVE",
"241 61 OFFCURVE",
"198 61 CURVE SMOOTH",
"140 61 OFFCURVE",
"120 91 OFFCURVE",
"126 162 CURVE SMOOTH",
"127 173 LINE",
"326 190 OFFCURVE",
"404 277 OFFCURVE",
"405 374 CURVE SMOOTH",
"406 450 OFFCURVE",
"353 500 OFFCURVE",
"263 500 CURVE SMOOTH"
);
},
{
closed = 1;
nodes = (
"297 429 OFFCURVE",
"321 406 OFFCURVE",
"321 367 CURVE SMOOTH",
"321 326 OFFCURVE",
"298 291 OFFCURVE",
"244 254 CURVE",
"216 243 OFFCURVE",
"180 234 OFFCURVE",
"136 227 CURVE",
"143 272 LINE SMOOTH",
"159 378 OFFCURVE",
"210 429 OFFCURVE",
"260 429 CURVE SMOOTH"
);
}
);
width = 436;
}
);
leftKerningGroup = e;
leftMetricsKey = e;
rightKerningGroup = e;
rightMetricsKey = e;
unicode = 0119;
},
{
color = 4;
glyphname = f;
lastChange = "2013-12-19 10:54:20 +0100";
layers = (
{
layerId = "F9064169-91CB-4D1F-AD97-42715B9ED178";
name = Light;
paths = (
{
closed = 1;
nodes = (
"205 695 OFFCURVE",
"150 646 OFFCURVE",
"135 539 CURVE SMOOTH",
"127 482 LINE",
"51 468 LINE",
"44 418 LINE",
"118 418 LINE",
"55 -37 LINE SMOOTH",
"46 -105 OFFCURVE",
"26 -125 OFFCURVE",
"-11 -125 CURVE SMOOTH",
"-33 -125 OFFCURVE",
"-60 -120 OFFCURVE",
"-83 -112 CURVE",
"-93 -183 LINE",
"-71 -190 OFFCURVE",
"-32 -197 OFFCURVE",
"-5 -197 CURVE SMOOTH",
"81 -197 OFFCURVE",
"125 -148 OFFCURVE",
"141 -32 CURVE SMOOTH",
"203 418 LINE",
"293 418 LINE",
"303 488 LINE",
"213 488 LINE",
"221 544 LINE SMOOTH",
"230 606 OFFCURVE",
"253 626 OFFCURVE",
"292 626 CURVE SMOOTH",
"311 626 OFFCURVE",
"340 621 OFFCURVE",
"365 614 CURVE",
"374 684 LINE",
"353 690 OFFCURVE",
"319 695 OFFCURVE",
"297 695 CURVE SMOOTH"
);
}
);
width = 294;
}
);
leftKerningGroup = f;
rightKerningGroup = f;
unicode = 0066;
},
{
color = 4;
glyphname = g;
lastChange = "2013-12-19 10:54:20 +0100";
layers = (
{
anchors = (
{
name = top;
position = "{268, 488}";
}
);
layerId = "F9064169-91CB-4D1F-AD97-42715B9ED178";
name = Light;
paths = (
{
closed = 1;
nodes = (
"150 500 OFFCURVE",
"87 444 OFFCURVE",
"68 327 CURVE SMOOTH",
"42 164 LINE SMOOTH",
"23 49 OFFCURVE",
"73 -12 OFFCURVE",
"148 -12 CURVE SMOOTH",
"221 -12 OFFCURVE",
"284 48 OFFCURVE",
"333 191 CURVE",
"336 192 LINE",
"338 190 LINE",
"288 28 LINE",
"277 -43 LINE SMOOTH",
"268 -99 OFFCURVE",
"243 -124 OFFCURVE",
"181 -124 CURVE SMOOTH",
"142 -124 OFFCURVE",
"89 -114 OFFCURVE",
"45 -100 CURVE",
"35 -175 LINE",
"79 -188 OFFCURVE",
"137 -197 OFFCURVE",
"178 -197 CURVE SMOOTH",
"294 -197 OFFCURVE",
"347 -149 OFFCURVE",
"363 -36 CURVE SMOOTH",
"437 488 LINE",
"357 488 LINE",
"350 438 LINE",
"318 476 OFFCURVE",
"275 500 OFFCURVE",
"229 500 CURVE SMOOTH"
);
},
{
closed = 1;
nodes = (
"274 427 OFFCURVE",
"311 406 OFFCURVE",
"337 372 CURVE",
"326 295 LINE",
"309 202 OFFCURVE",
"257 64 OFFCURVE",
"172 64 CURVE SMOOTH",
"133 64 OFFCURVE",
"115 90 OFFCURVE",
"129 175 CURVE SMOOTH",
"153 322 LINE SMOOTH",
"165 396 OFFCURVE",
"196 427 OFFCURVE",
"240 427 CURVE SMOOTH"
);
}
);
width = 478;
}
);
leftKerningGroup = o;
rightKerningGroup = u;
unicode = 0067;
},
{
color = 4;
glyphname = h;
lastChange = "2013-12-19 10:54:20 +0100";
layers = (
{
anchors = (
{
name = center;
position = "{241, 244}";
},
{
name = top;
position = "{262, 655}";
}
);
layerId = "F9064169-91CB-4D1F-AD97-42715B9ED178";
name = Light;
paths = (
{
closed = 1;
nodes = (
"114 683 LINE",
"112 616 OFFCURVE",
"107 552 OFFCURVE",
"94 458 CURVE SMOOTH",
"30 0 LINE",
"115 0 LINE",
"124 65 LINE SMOOTH",
"151 262 OFFCURVE",
"234 421 OFFCURVE",
"304 421 CURVE SMOOTH",
"337 421 OFFCURVE",
"354 398 OFFCURVE",
"341 318 CURVE SMOOTH",
"291 0 LINE",
"376 0 LINE",
"424 316 LINE SMOOTH",
"444 450 OFFCURVE",
"406 500 OFFCURVE",
"327 500 CURVE SMOOTH",
"248 500 OFFCURVE",
"175 412 OFFCURVE",
"128 240 CURVE",
"125 238 LINE",
"122 240 LINE",
"183 485 LINE",
"187 514 LINE SMOOTH",
"195 571 OFFCURVE",
"198 632 OFFCURVE",
"199 683 CURVE"
);
}
);
width = 481;
}
);
leftKerningGroup = k;
rightKerningGroup = n;
unicode = 0068;
},
{
color = 4;
glyphname = dotlessi;
lastChange = "2013-12-19 10:54:20 +0100";
layers = (
{
anchors = (
{
name = ogonek;
position = "{202, 10}";
},
{
name = top;
position = "{159, 488}";
}
);
layerId = "F9064169-91CB-4D1F-AD97-42715B9ED178";
name = Light;
paths = (
{
closed = 1;
nodes = (
"115 0 LINE",
"183 488 LINE",
"98 488 LINE",
"30 0 LINE"
);
}
);
width = 225;
}
);
leftKerningGroup = n;
rightKerningGroup = u;
unicode = 0131;
},
{
color = 4;
glyphname = iogonek;
lastChange = "2013-12-19 10:54:20 +0100";
layers = (
{
anchors = (
{
name = _top;
position = "{159, 488}";
}
);
layerId = "F9064169-91CB-4D1F-AD97-42715B9ED178";
name = Light;
paths = (
{
closed = 1;
nodes = (
"98 488 LINE",
"30 2 LINE",
"-10 -23 OFFCURVE",
"-40 -64 OFFCURVE",
"-45 -103 CURVE SMOOTH",
"-47 -116 LINE SMOOTH",
"-54 -164 OFFCURVE",
"-27 -197 OFFCURVE",
"41 -197 CURVE SMOOTH",
"56 -197 OFFCURVE",
"72 -196 OFFCURVE",
"90 -192 CURVE",
"98 -131 LINE",
"86 -133 OFFCURVE",
"74 -134 OFFCURVE",
"65 -134 CURVE SMOOTH",
"35 -134 OFFCURVE",
"24 -123 OFFCURVE",
"28 -97 CURVE SMOOTH",
"29 -87 LINE SMOOTH",
"34 -53 OFFCURVE",
"58 -19 OFFCURVE",
"97 0 CURVE",
"115 0 LINE",
"183 488 LINE"
);
},
{
closed = 1;
nodes = (
"128 695 OFFCURVE",
"109 682 OFFCURVE",
"105 652 CURVE",
"101 623 LINE",
"97 594 OFFCURVE",
"119 575 OFFCURVE",
"154 575 CURVE SMOOTH",
"190 575 OFFCURVE",
"208 588 OFFCURVE",
"212 617 CURVE SMOOTH",
"216 646 LINE SMOOTH",
"220 676 OFFCURVE",
"199 695 OFFCURVE",
"163 695 CURVE SMOOTH"
);
}
);
width = 225;
}
);
rightKerningGroup = i;
rightMetricsKey = i;
unicode = 012F;
},
{
color = 4;
glyphname = j;
lastChange = "2013-12-19 11:38:29 +0100";
layers = (
{
anchors = (
{
name = top;
position = "{153, 488}";
}
);
layerId = "F9064169-91CB-4D1F-AD97-42715B9ED178";
name = Light;
paths = (
{
closed = 1;
nodes = (
"98 488 LINE",
"21 -59 LINE SMOOTH",
"14 -112 OFFCURVE",
"-5 -124 OFFCURVE",
"-42 -124 CURVE SMOOTH",
"-67 -124 OFFCURVE",
"-98 -118 OFFCURVE",
"-114 -112 CURVE",
"-124 -185 LINE",
"-105 -191 OFFCURVE",
"-70 -197 OFFCURVE",
"-43 -197 CURVE SMOOTH",
"49 -197 OFFCURVE",
"93 -153 OFFCURVE",
"107 -51 CURVE",
"183 488 LINE"
);
},
{
closed = 1;
nodes = (
"210 646 LINE SMOOTH",
"214 676 OFFCURVE",
"193 695 OFFCURVE",
"157 695 CURVE SMOOTH",
"122 695 OFFCURVE",
"103 682 OFFCURVE",
"99 652 CURVE SMOOTH",
"95 623 LINE SMOOTH",
"91 593 OFFCURVE",
"113 575 OFFCURVE",
"148 575 CURVE SMOOTH",
"184 575 OFFCURVE",
"202 588 OFFCURVE",
"206 617 CURVE SMOOTH"
);
}
);
width = 225;
}
);
leftKerningGroup = j;
rightKerningGroup = j;
unicode = 006A;
},
{
color = 4;
glyphname = k;
lastChange = "2013-12-19 10:54:20 +0100";
layers = (
{
anchors = (
{
name = bottom;
position = "{195, 0}";
}
);
layerId = "F9064169-91CB-4D1F-AD97-42715B9ED178";
name = Light;
paths = (
{
closed = 1;
nodes = (
"114 683 LINE",
"112 616 OFFCURVE",
"107 552 OFFCURVE",
"94 458 CURVE SMOOTH",
"30 0 LINE",
"115 0 LINE",
"127 92 LINE SMOOTH",
"148 249 OFFCURVE",
"223 429 OFFCURVE",
"294 429 CURVE SMOOTH",
"318 429 OFFCURVE",
"334 411 OFFCURVE",
"334 381 CURVE SMOOTH",
"334 319 OFFCURVE",
"292 249 OFFCURVE",
"174 229 CURVE",
"213 153 OFFCURVE",
"245 86 OFFCURVE",
"284 0 CURVE",
"378 0 LINE",
"268 209 LINE",
"369 246 OFFCURVE",
"418 315 OFFCURVE",
"418 392 CURVE SMOOTH",
"418 457 OFFCURVE",
"377 500 OFFCURVE",
"319 500 CURVE SMOOTH",
"223 500 OFFCURVE",
"163 372 OFFCURVE",
"127 239 CURVE",
"124 237 LINE",
"121 239 LINE",
"183 485 LINE",
"187 514 LINE SMOOTH",
"195 571 OFFCURVE",
"198 632 OFFCURVE",
"199 683 CURVE"
);
}
);
width = 448;
}
);
leftKerningGroup = k;
rightKerningGroup = k;
unicode = 006B;
},
{
color = 4;
glyphname = l;
lastChange = "2013-12-19 10:54:20 +0100";
layers = (
{
anchors = (
{
name = bottom;
position = "{60, 0}";
},
{
name = center;
position = "{253, 440}";
},
{
name = top;
position = "{162, 655}";
},
{
name = topright;
position = "{205, 488}";
}
);
layerId = "F9064169-91CB-4D1F-AD97-42715B9ED178";
name = Light;
paths = (
{
closed = 1;
nodes = (
"114 683 LINE",
"112 616 OFFCURVE",
"107 552 OFFCURVE",
"94 458 CURVE SMOOTH",
"30 0 LINE",
"115 0 LINE",
"180 464 LINE SMOOTH",
"194 564 OFFCURVE",
"198 632 OFFCURVE",
"199 683 CURVE"
);
}
);
width = 225;
}
);
leftKerningGroup = k;
rightKerningGroup = l;
unicode = 006C;
},
{
color = 4;
glyphname = lcaron;
lastChange = "2013-12-19 11:23:12 +0100";
layers = (
{
anchors = (
{
name = bottom;
position = "{60, 0}";
},
{
name = center;
position = "{253, 440}";
},
{
name = top;
position = "{162, 655}";
},
{
name = topright;
position = "{205, 488}";
}
);
layerId = "F9064169-91CB-4D1F-AD97-42715B9ED178";
name = Light;
paths = (
{
closed = 1;
nodes = (
"327 649 LINE SMOOTH",
"332 679 OFFCURVE",
"315 695 OFFCURVE",
"280 695 CURVE SMOOTH",
"250 695 OFFCURVE",
"238 683 OFFCURVE",
"234 658 CURVE SMOOTH",
"231 638 LINE SMOOTH",
"228 617 OFFCURVE",
"235 603 OFFCURVE",
"255 596 CURVE",
"229 525 LINE",
"281 525 LINE",
"309 584 LINE SMOOTH",
"317 601 OFFCURVE",
"321 612 OFFCURVE",
"324 629 CURVE SMOOTH"
);
},
{
closed = 1;
nodes = (
"114 683 LINE",
"112 616 OFFCURVE",
"107 552 OFFCURVE",
"94 458 CURVE SMOOTH",
"30 0 LINE",
"115 0 LINE",
"180 464 LINE SMOOTH",
"194 564 OFFCURVE",
"198 632 OFFCURVE",
"199 683 CURVE"
);
}
);
width = 278;
}
);
leftKerningGroup = k;
leftMetricsKey = l;
rightKerningGroup = dcaron;
rightMetricsKey = caron.alt;
unicode = 013E;
},
{
color = 4;
glyphname = lslash;
lastChange = "2013-12-19 10:54:20 +0100";
layers = (
{
layerId = "F9064169-91CB-4D1F-AD97-42715B9ED178";
name = Light;
paths = (
{
closed = 1;
nodes = (
"119 683 LINE",
"117 616 OFFCURVE",
"112 552 OFFCURVE",
"99 458 CURVE SMOOTH",
"94 425 LINE",
"0 398 LINE",
"-9 328 LINE",
"84 355 LINE",
"35 0 LINE",
"120 0 LINE",
"173 380 LINE",
"267 408 LINE",
"277 478 LINE",
"183 450 LINE",
"185 464 LINE SMOOTH",
"199 564 OFFCURVE",
"203 632 OFFCURVE",
"204 683 CURVE"
);
}
);
width = 235;
}
);
leftKerningGroup = k;
rightKerningGroup = l;
unicode = 0142;
},
{
color = 4;
glyphname = m;
lastChange = "2013-12-19 10:54:20 +0100";
layers = (
{
layerId = "F9064169-91CB-4D1F-AD97-42715B9ED178";
name = Light;
paths = (
{
closed = 1;
nodes = (
"503 500 OFFCURVE",
"431 412 OFFCURVE",
"384 240 CURVE",
"381 238 LINE",
"378 240 LINE",
"422 392 LINE",
"420 467 OFFCURVE",
"383 500 OFFCURVE",
"322 500 CURVE SMOOTH",
"247 500 OFFCURVE",
"175 412 OFFCURVE",
"128 240 CURVE",
"125 238 LINE",
"122 240 LINE",
"167 409 LINE",
"178 488 LINE",
"98 488 LINE",
"30 0 LINE",
"115 0 LINE",
"121 43 LINE SMOOTH",
"153 273 OFFCURVE",
"233 421 OFFCURVE",
"300 421 CURVE SMOOTH",
"333 421 OFFCURVE",
"349 401 OFFCURVE",
"335 313 CURVE SMOOTH",
"286 0 LINE",
"371 0 LINE",
"377 43 LINE SMOOTH",
"409 273 OFFCURVE",
"489 421 OFFCURVE",
"556 421 CURVE",
"589 421 OFFCURVE",
"605 401 OFFCURVE",
"591 313 CURVE SMOOTH",
"542 0 LINE",
"627 0 LINE",
"675 316 LINE SMOOTH",
"695 450 OFFCURVE",
"657 500 OFFCURVE",
"578 500 CURVE SMOOTH"
);
}
);
width = 736;
}
);
leftKerningGroup = n;
leftMetricsKey = n;
rightKerningGroup = n;
rightMetricsKey = n;
unicode = 006D;
},
{
color = 4;
glyphname = n;
lastChange = "2013-12-19 10:54:20 +0100";
layers = (
{
anchors = (
{
name = apo;
position = "{49, 488}";
},
{
name = bottom;
position = "{203, 0}";
},
{
name = top;
position = "{284, 488}";
}
);
layerId = "F9064169-91CB-4D1F-AD97-42715B9ED178";
name = Light;
paths = (
{
closed = 1;
nodes = (
"248 500 OFFCURVE",
"175 412 OFFCURVE",
"128 240 CURVE",
"125 238 LINE",
"122 240 LINE",
"167 409 LINE",
"178 488 LINE",
"98 488 LINE",
"30 0 LINE",
"115 0 LINE",
"119 30 LINE SMOOTH",
"152 276 OFFCURVE",
"234 421 OFFCURVE",
"304 421 CURVE SMOOTH",
"337 421 OFFCURVE",
"354 398 OFFCURVE",
"341 318 CURVE SMOOTH",
"291 0 LINE",
"376 0 LINE",
"424 316 LINE SMOOTH",
"444 450 OFFCURVE",
"406 500 OFFCURVE",
"327 500 CURVE SMOOTH"
);
}
);
width = 485;
}
);
leftKerningGroup = n;
rightKerningGroup = n;
unicode = 006E;
},
{
color = 4;
glyphname = o;
lastChange = "2013-12-19 10:54:20 +0100";
layers = (
{
anchors = (
{
name = top;
position = "{267, 488}";
}
);
layerId = "F9064169-91CB-4D1F-AD97-42715B9ED178";
name = Light;
paths = (
{
closed = 1;
nodes = (
"309 161 LINE",
"300 91 OFFCURVE",
"266 59 OFFCURVE",
"208 59 CURVE SMOOTH",
"152 59 OFFCURVE",
"117 98 OFFCURVE",
"127 165 CURVE SMOOTH",
"150 327 LINE SMOOTH",
"160 398 OFFCURVE",
"196 429 OFFCURVE",
"252 429 CURVE SMOOTH",
"309 429 OFFCURVE",
"342 390 OFFCURVE",
"332 322 CURVE SMOOTH"
);
},
{
closed = 1;
nodes = (
"416 315 LINE",
"432 426 OFFCURVE",
"378 500 OFFCURVE",
"256 500 CURVE SMOOTH",
"148 500 OFFCURVE",
"79 434 OFFCURVE",
"63 316 CURVE SMOOTH",
"43 172 LINE SMOOTH",
"27 60 OFFCURVE",
"82 -12 OFFCURVE",
"205 -12 CURVE SMOOTH",
"316 -12 OFFCURVE",
"381 56 OFFCURVE",
"397 176 CURVE SMOOTH"
);
}
);
width = 472;
}
);
leftKerningGroup = o;
rightKerningGroup = o;
unicode = 006F;
},
{
color = 4;
glyphname = oslash;
lastChange = "2013-12-19 10:54:20 +0100";
layers = (
{
anchors = (
{
name = top;
position = "{267, 488}";
}
);
background = {
paths = (
{
closed = 1;
nodes = (
"423 538 LINE",
"367 468 LINE",
"340 488 OFFCURVE",
"303 500 OFFCURVE",
"256 500 CURVE SMOOTH",
"148 500 OFFCURVE",
"79 434 OFFCURVE",
"63 316 CURVE SMOOTH",
"43 172 LINE SMOOTH",
"38 135 OFFCURVE",
"40 102 OFFCURVE",
"50 75 CURVE",
"-51 -51 LINE",
"36 -51 LINE",
"92 18 LINE",
"119 -1 OFFCURVE",
"157 -12 OFFCURVE",
"205 -12 CURVE SMOOTH",
"316 -12 OFFCURVE",
"381 56 OFFCURVE",
"397 176 CURVE SMOOTH",
"416 315 LINE SMOOTH",
"421 351 OFFCURVE",
"419 384 OFFCURVE",
"409 411 CURVE",
"511 538 LINE"
);
},
{
closed = 1;
nodes = (
"309 161 LINE",
"300 91 OFFCURVE",
"266 59 OFFCURVE",
"208 59 CURVE SMOOTH",
"179 59 OFFCURVE",
"155 69 OFFCURVE",
"141 89 CURVE",
"333 328 LINE"
);
},
{
closed = 1;
nodes = (
"282 429 OFFCURVE",
"305 418 OFFCURVE",
"319 397 CURVE",
"126 157 LINE",
"150 327 LINE",
"160 398 OFFCURVE",
"196 429 OFFCURVE",
"252 429 CURVE SMOOTH"
);
}
);
};
layerId = "F9064169-91CB-4D1F-AD97-42715B9ED178";
name = Light;
paths = (
{
closed = 1;
nodes = (
"423 538 LINE",
"367 468 LINE",
"340 488 OFFCURVE",
"303 500 OFFCURVE",
"256 500 CURVE SMOOTH",
"148 500 OFFCURVE",
"79 434 OFFCURVE",
"63 316 CURVE SMOOTH",
"43 172 LINE SMOOTH",
"38 135 OFFCURVE",
"40 102 OFFCURVE",
"50 75 CURVE",
"-51 -51 LINE",
"36 -51 LINE",
"92 18 LINE",
"119 -1 OFFCURVE",
"157 -12 OFFCURVE",
"205 -12 CURVE SMOOTH",
"316 -12 OFFCURVE",
"381 56 OFFCURVE",
"397 176 CURVE SMOOTH",
"416 315 LINE SMOOTH",
"421 351 OFFCURVE",
"419 384 OFFCURVE",
"409 411 CURVE",
"511 538 LINE"
);
},
{
closed = 1;
nodes = (
"332 321 OFFCURVE",
"331 314 OFFCURVE",
"330 307 CURVE SMOOTH",
"309 161 LINE",
"300 91 OFFCURVE",
"266 59 OFFCURVE",
"208 59 CURVE SMOOTH",
"179 59 OFFCURVE",
"155 69 OFFCURVE",
"141 89 CURVE",
"333 328 LINE"
);
},
{
closed = 1;
nodes = (
"282 429 OFFCURVE",
"305 418 OFFCURVE",
"319 397 CURVE",
"126 157 LINE",
"127 164 OFFCURVE",
"127 164 OFFCURVE",
"128 171 CURVE",
"150 327 LINE",
"160 398 OFFCURVE",
"196 429 OFFCURVE",
"252 429 CURVE SMOOTH"
);
}
);
width = 472;
}
);
leftKerningGroup = o;
rightKerningGroup = o;
unicode = 00F8;
},
{
color = 4;
glyphname = oe;
lastChange = "2013-12-19 10:54:20 +0100";
layers = (
{
anchors = (
{
name = top;
position = "{352, 488}";
}
);
layerId = "F9064169-91CB-4D1F-AD97-42715B9ED178";
name = Light;
paths = (
{
closed = 1;
nodes = (
"476 500 OFFCURVE",
"423 471 OFFCURVE",
"388 421 CURVE",
"368 467 OFFCURVE",
"319 500 OFFCURVE",
"253 500 CURVE SMOOTH",
"134 500 OFFCURVE",
"80 434 OFFCURVE",
"64 322 CURVE SMOOTH",
"43 173 LINE SMOOTH",
"28 61 OFFCURVE",
"81 -12 OFFCURVE",
"204 -12 CURVE SMOOTH",
"265 -12 OFFCURVE",
"306 16 OFFCURVE",
"336 53 CURVE",
"366 8 OFFCURVE",
"417 -12 OFFCURVE",
"469 -12 CURVE SMOOTH",
"502 -12 OFFCURVE",
"548 -2 OFFCURVE",
"593 19 CURVE",
"608 96 LINE",
"563 73 OFFCURVE",
"511 61 OFFCURVE",
"468 61 CURVE SMOOTH",
"412 61 OFFCURVE",
"383 94 OFFCURVE",
"393 155 CURVE SMOOTH",
"396 173 LINE",
"594 190 OFFCURVE",
"673 277 OFFCURVE",
"673 374 CURVE SMOOTH",
"673 450 OFFCURVE",
"621 500 OFFCURVE",
"531 500 CURVE SMOOTH"
);
},
{
closed = 1;
nodes = (
"309 429 OFFCURVE",
"342 392 OFFCURVE",
"332 324 CURVE SMOOTH",
"309 161 LINE SMOOTH",
"300 93 OFFCURVE",
"265 59 OFFCURVE",
"208 59 CURVE SMOOTH",
"151 59 OFFCURVE",
"118 97 OFFCURVE",
"127 165 CURVE SMOOTH",
"150 327 LINE SMOOTH",
"160 395 OFFCURVE",
"195 429 OFFCURVE",
"252 429 CURVE SMOOTH"
);
},
{
closed = 1;
nodes = (
"565 429 OFFCURVE",
"589 406 OFFCURVE",
"589 367 CURVE SMOOTH",
"589 326 OFFCURVE",
"566 291 OFFCURVE",
"512 254 CURVE",
"484 243 OFFCURVE",
"448 234 OFFCURVE",
"404 227 CURVE",
"411 272 LINE SMOOTH",
"427 378 OFFCURVE",
"478 429 OFFCURVE",
"528 429 CURVE SMOOTH"
);
}
);
width = 704;
}
);
leftKerningGroup = o;
leftMetricsKey = o;
rightKerningGroup = e;
rightMetricsKey = e;
unicode = 0153;
},
{
color = 4;
glyphname = p;
lastChange = "2013-12-19 10:54:20 +0100";
layers = (
{
layerId = "F9064169-91CB-4D1F-AD97-42715B9ED178";
name = Light;
paths = (
{
closed = 1;
nodes = (
"234 500 OFFCURVE",
"176 413 OFFCURVE",
"129 254 CURVE",
"126 252 LINE",
"124 254 LINE",
"170 430 LINE",
"178 488 LINE",
"98 488 LINE",
"42 97 LINE SMOOTH",
"27 -6 OFFCURVE",
"7 -111 OFFCURVE",
"-12 -185 CURVE",
"72 -185 LINE",
"88 -125 OFFCURVE",
"105 -45 OFFCURVE",
"119 38 CURVE",
"151 8 OFFCURVE",
"197 -12 OFFCURVE",
"237 -12 CURVE SMOOTH",
"322 -12 OFFCURVE",
"374 40 OFFCURVE",
"394 148 CURVE SMOOTH",
"422 297 LINE SMOOTH",
"447 432 OFFCURVE",
"399 500 OFFCURVE",
"316 500 CURVE SMOOTH"
);
},
{
closed = 1;
nodes = (
"330 424 OFFCURVE",
"356 387 OFFCURVE",
"337 292 CURVE SMOOTH",
"311 160 LINE SMOOTH",
"297 91 OFFCURVE",
"265 63 OFFCURVE",
"216 63 CURVE SMOOTH",
"189 63 OFFCURVE",
"154 77 OFFCURVE",
"128 99 CURVE",
"133 134 LINE SMOOTH",
"154 280 OFFCURVE",
"228 424 OFFCURVE",
"296 424 CURVE SMOOTH"
);
}
);
width = 477;
}
);
leftKerningGroup = n;
rightKerningGroup = o;
unicode = 0070;
},
{
color = 4;
glyphname = thorn;
lastChange = "2013-12-19 10:54:20 +0100";
layers = (
{
layerId = "F9064169-91CB-4D1F-AD97-42715B9ED178";
name = Light;
paths = (
{
closed = 1;
nodes = (
"125 683 LINE",
"3 -185 LINE",
"88 -185 LINE",
"119 37 LINE",
"151 8 OFFCURVE",
"197 -12 OFFCURVE",
"237 -12 CURVE SMOOTH",
"322 -12 OFFCURVE",
"374 40 OFFCURVE",
"394 148 CURVE SMOOTH",
"422 297 LINE SMOOTH",
"447 432 OFFCURVE",
"399 500 OFFCURVE",
"316 500 CURVE SMOOTH",
"234 500 OFFCURVE",
"176 413 OFFCURVE",
"129 254 CURVE",
"126 252 LINE",
"124 254 LINE",
"179 458 LINE",
"210 683 LINE"
);
},
{
closed = 1;
nodes = (
"330 424 OFFCURVE",
"356 387 OFFCURVE",
"337 292 CURVE SMOOTH",
"311 160 LINE SMOOTH",
"297 91 OFFCURVE",
"265 63 OFFCURVE",
"216 63 CURVE SMOOTH",
"189 63 OFFCURVE",
"154 77 OFFCURVE",
"128 99 CURVE",
"134 139 LINE SMOOTH",
"156 284 OFFCURVE",
"227 424 OFFCURVE",
"296 424 CURVE SMOOTH"
);
}
);
width = 477;
}
);
leftKerningGroup = k;
rightKerningGroup = o;
unicode = 00FE;
},
{
color = 4;
glyphname = q;
lastChange = "2013-12-19 10:54:20 +0100";
layers = (
{
layerId = "F9064169-91CB-4D1F-AD97-42715B9ED178";
name = Light;
paths = (
{
closed = 1;
nodes = (
"148 500 OFFCURVE",
"84 444 OFFCURVE",
"65 327 CURVE SMOOTH",
"39 164 LINE SMOOTH",
"20 49 OFFCURVE",
"71 -12 OFFCURVE",
"146 -12 CURVE SMOOTH",
"218 -12 OFFCURVE",
"282 48 OFFCURVE",
"330 191 CURVE",
"333 192 LINE",
"335 190 LINE",
"285 28 LINE",
"254 -185 LINE",
"339 -185 LINE",
"434 488 LINE",
"354 488 LINE",
"347 439 LINE",
"315 476 OFFCURVE",
"273 500 OFFCURVE",
"227 500 CURVE SMOOTH"
);
},
{
closed = 1;
nodes = (
"272 427 OFFCURVE",
"308 407 OFFCURVE",
"334 373 CURVE",
"320 276 LINE",
"301 186 OFFCURVE",
"250 64 OFFCURVE",
"170 64 CURVE SMOOTH",
"131 64 OFFCURVE",
"112 90 OFFCURVE",
"126 175 CURVE SMOOTH",
"150 322 LINE SMOOTH",
"162 396 OFFCURVE",
"194 427 OFFCURVE",
"238 427 CURVE SMOOTH"
);
}
);
width = 476;
}
);
leftKerningGroup = o;
unicode = 0071;
},
{
color = 4;
glyphname = r;
lastChange = "2013-12-19 10:54:20 +0100";
layers = (
{
anchors = (
{
name = bottom;
position = "{62, 0}";
},
{
name = top;
position = "{229, 488}";
}
);
layerId = "F9064169-91CB-4D1F-AD97-42715B9ED178";
name = Light;
paths = (
{
closed = 1;
nodes = (
"245 500 OFFCURVE",
"175 412 OFFCURVE",
"128 240 CURVE",
"125 238 LINE",
"122 240 LINE",
"167 409 LINE",
"178 488 LINE",
"98 488 LINE",
"30 0 LINE",
"115 0 LINE",
"121 45 LINE SMOOTH",
"147 242 OFFCURVE",
"211 394 OFFCURVE",
"292 394 CURVE SMOOTH",
"303 394 OFFCURVE",
"310 393 OFFCURVE",
"318 391 CURVE",
"334 498 LINE",
"330 499 OFFCURVE",
"322 500 OFFCURVE",
"318 500 CURVE SMOOTH"
);
}
);
width = 325;
}
);
leftKerningGroup = n;
rightKerningGroup = r;
unicode = 0072;
},
{
color = 4;
glyphname = s;
lastChange = "2013-12-19 10:54:20 +0100";
layers = (
{
anchors = (
{
name = bottom;
position = "{166, 0}";
},
{
name = top;
position = "{220, 488}";
}
);
layerId = "F9064169-91CB-4D1F-AD97-42715B9ED178";
name = Light;
paths = (
{
closed = 1;
nodes = (
"115 500 OFFCURVE",
"67 460 OFFCURVE",
"55 395 CURVE SMOOTH",
"52 379 LINE SMOOTH",
"41 318 OFFCURVE",
"67 266 OFFCURVE",
"132 236 CURVE SMOOTH",
"212 199 LINE SMOOTH",
"241 185 OFFCURVE",
"255 157 OFFCURVE",
"250 130 CURVE",
"249 124 LINE SMOOTH",
"242 81 OFFCURVE",
"216 60 OFFCURVE",
"168 60 CURVE SMOOTH",
"159 60 OFFCURVE",
"145 61 OFFCURVE",
"129 63 CURVE",
"102 71 OFFCURVE",
"60 88 OFFCURVE",
"33 103 CURVE",
"20 26 LINE",
"62 4 OFFCURVE",
"122 -12 OFFCURVE",
"170 -12 CURVE SMOOTH",
"268 -12 OFFCURVE",
"322 41 OFFCURVE",
"331 116 CURVE SMOOTH",
"333 132 LINE SMOOTH",
"340 191 OFFCURVE",
"311 241 OFFCURVE",
"255 267 CURVE SMOOTH",
"173 305 LINE SMOOTH",
"142 319 OFFCURVE",
"128 345 OFFCURVE",
"133 374 CURVE SMOOTH",
"134 380 LINE SMOOTH",
"139 412 OFFCURVE",
"162 431 OFFCURVE",
"209 431 CURVE SMOOTH",
"218 431 OFFCURVE",
"235 430 OFFCURVE",
"245 429 CURVE",
"267 424 OFFCURVE",
"299 413 OFFCURVE",
"326 403 CURVE",
"338 480 LINE",
"296 492 OFFCURVE",
"248 500 OFFCURVE",
"216 500 CURVE SMOOTH"
);
}
);
width = 385;
}
);
leftKerningGroup = s;
rightKerningGroup = s;
unicode = 0073;
},
{
color = 4;
glyphname = scedilla;
lastChange = "2013-12-19 10:54:20 +0100";
layers = (
{
layerId = "F9064169-91CB-4D1F-AD97-42715B9ED178";
name = Light;
paths = (
{
closed = 1;
nodes = (
"106 500 OFFCURVE",
"58 460 OFFCURVE",
"46 395 CURVE SMOOTH",
"43 379 LINE SMOOTH",
"32 318 OFFCURVE",
"58 266 OFFCURVE",
"123 236 CURVE SMOOTH",
"203 199 LINE SMOOTH",
"232 185 OFFCURVE",
"246 157 OFFCURVE",
"241 130 CURVE",
"240 124 LINE SMOOTH",
"233 81 OFFCURVE",
"207 60 OFFCURVE",
"159 60 CURVE SMOOTH",
"150 60 OFFCURVE",
"136 61 OFFCURVE",
"120 63 CURVE",
"93 71 OFFCURVE",
"51 88 OFFCURVE",
"24 103 CURVE",
"11 26 LINE",
"41 10 OFFCURVE",
"82 -2 OFFCURVE",
"120 -8 CURVE",
"96 -60 LINE",
"93 -80 LINE",
"119 -80 LINE SMOOTH",
"144 -80 OFFCURVE",
"156 -92 OFFCURVE",
"153 -113 CURVE SMOOTH",
"152 -120 LINE SMOOTH",
"150 -133 OFFCURVE",
"139 -143 OFFCURVE",
"117 -143 CURVE SMOOTH",
"102 -143 OFFCURVE",
"86 -139 OFFCURVE",
"72 -133 CURVE",
"65 -188 LINE",
"82 -193 OFFCURVE",
"108 -197 OFFCURVE",
"124 -197 CURVE SMOOTH",
"183 -197 OFFCURVE",
"213 -169 OFFCURVE",
"219 -121 CURVE SMOOTH",
"220 -112 LINE SMOOTH",
"225 -70 OFFCURVE",
"201 -41 OFFCURVE",
"164 -41 CURVE SMOOTH",
"162 -41 LINE",
"175 -11 LINE",
"264 -6 OFFCURVE",
"313 44 OFFCURVE",
"322 116 CURVE SMOOTH",
"324 132 LINE SMOOTH",
"331 191 OFFCURVE",
"302 241 OFFCURVE",
"246 267 CURVE SMOOTH",
"164 305 LINE SMOOTH",
"133 319 OFFCURVE",
"119 345 OFFCURVE",
"124 374 CURVE SMOOTH",
"125 380 LINE SMOOTH",
"130 412 OFFCURVE",
"153 431 OFFCURVE",
"200 431 CURVE SMOOTH",
"209 431 OFFCURVE",
"226 430 OFFCURVE",
"236 429 CURVE",
"258 424 OFFCURVE",
"290 413 OFFCURVE",
"317 403 CURVE",
"329 480 LINE",
"287 492 OFFCURVE",
"239 500 OFFCURVE",
"207 500 CURVE SMOOTH"
);
}
);
width = 367;
}
);
leftKerningGroup = s;
leftMetricsKey = s;
rightKerningGroup = s;
rightMetricsKey = s;
unicode = 015F;
},
{
color = 4;
glyphname = germandbls;
lastChange = "2013-12-19 10:54:20 +0100";
layers = (
{
layerId = "F9064169-91CB-4D1F-AD97-42715B9ED178";
name = Light;
paths = (
{
closed = 1;
nodes = (
"201 695 OFFCURVE",
"149 641 OFFCURVE",
"132 513 CURVE SMOOTH",
"128 482 LINE",
"52 468 LINE",
"45 418 LINE",
"118 418 LINE",
"60 0 LINE",
"145 0 LINE",
"221 544 LINE SMOOTH",
"229 602 OFFCURVE",
"250 625 OFFCURVE",
"299 625 CURVE SMOOTH",
"349 625 OFFCURVE",
"374 594 OFFCURVE",
"369 557 CURVE SMOOTH",
"367 541 LINE SMOOTH",
"357 472 OFFCURVE",
"269 468 OFFCURVE",
"259 376 CURVE SMOOTH",
"258 367 LINE SMOOTH",
"254 314 OFFCURVE",
"268 280 OFFCURVE",
"307 254 CURVE SMOOTH",
"352 224 LINE SMOOTH",
"375 209 OFFCURVE",
"387 183 OFFCURVE",
"383 151 CURVE SMOOTH",
"380 129 LINE SMOOTH",
"374 83 OFFCURVE",
"347 58 OFFCURVE",
"317 58 CURVE SMOOTH",
"311 58 OFFCURVE",
"304 58 OFFCURVE",
"297 59 CURVE SMOOTH",
"275 64 OFFCURVE",
"252 72 OFFCURVE",
"225 82 CURVE",
"214 10 LINE",
"247 -4 OFFCURVE",
"287 -12 OFFCURVE",
"323 -12 CURVE SMOOTH",
"410 -12 OFFCURVE",
"457 43 OFFCURVE",
"467 133 CURVE SMOOTH",
"468 142 LINE SMOOTH",
"474 200 OFFCURVE",
"456 253 OFFCURVE",
"407 287 CURVE SMOOTH",
"363 317 LINE SMOOTH",
"344 330 OFFCURVE",
"338 345 OFFCURVE",
"341 373 CURVE SMOOTH",
"342 380 LINE SMOOTH",
"351 440 OFFCURVE",
"437 440 OFFCURVE",
"452 548 CURVE SMOOTH",
"453 557 LINE SMOOTH",
"462 637 OFFCURVE",
"403 695 OFFCURVE",
"304 695 CURVE SMOOTH"
);
}
);
width = 498;
}
);
unicode = 00DF;
},
{
color = 4;
glyphname = t;
lastChange = "2013-12-19 10:54:20 +0100";
layers = (
{
anchors = (
{
name = bottom;
position = "{167, 0}";
},
{
name = center;
position = "{169, 244}";
},
{
name = topleft;
position = "{345, 488}";
}
);
layerId = "F9064169-91CB-4D1F-AD97-42715B9ED178";
name = Light;
paths = (
{
closed = 1;
nodes = (
"166 618 LINE",
"120 483 LINE",
"40 468 LINE",
"33 418 LINE",
"104 418 LINE",
"64 139 LINE SMOOTH",
"49 31 OFFCURVE",
"91 -12 OFFCURVE",
"185 -12 CURVE SMOOTH",
"213 -12 OFFCURVE",
"255 -1 OFFCURVE",
"277 10 CURVE",
"287 83 LINE",
"265 72 OFFCURVE",
"223 61 OFFCURVE",
"197 61 CURVE SMOOTH",
"159 61 OFFCURVE",
"141 81 OFFCURVE",
"148 132 CURVE SMOOTH",
"188 418 LINE",
"318 418 LINE",
"328 488 LINE",
"198 488 LINE",
"216 618 LINE"
);
}
);
width = 341;
}
);
leftKerningGroup = t;
rightKerningGroup = t;
unicode = 0074;
},
{
color = 8;
glyphname = tcedilla;
lastChange = "2014-01-03 10:10:55 +0100";
layers = (
{
layerId = "F9064169-91CB-4D1F-AD97-42715B9ED178";
name = Light;
paths = (
{
closed = 1;
nodes = (
"166 618 LINE",
"120 483 LINE",
"40 468 LINE",
"33 418 LINE",
"104 418 LINE",
"64 139 LINE SMOOTH",
"52 53 OFFCURVE",
"76 8 OFFCURVE",
"134 -6 CURVE",
"109 -60 LINE",
"106 -80 LINE",
"132 -80 LINE SMOOTH",
"157 -80 OFFCURVE",
"169 -92 OFFCURVE",
"166 -113 CURVE SMOOTH",
"165 -120 LINE SMOOTH",
"163 -133 OFFCURVE",
"152 -143 OFFCURVE",
"130 -143 CURVE SMOOTH",
"115 -143 OFFCURVE",
"99 -139 OFFCURVE",
"85 -133 CURVE",
"78 -188 LINE",
"95 -193 OFFCURVE",
"121 -197 OFFCURVE",
"137 -197 CURVE SMOOTH",
"196 -197 OFFCURVE",
"226 -169 OFFCURVE",
"232 -121 CURVE SMOOTH",
"233 -112 LINE SMOOTH",
"238 -70 OFFCURVE",
"214 -41 OFFCURVE",
"177 -41 CURVE SMOOTH",
"175 -41 LINE",
"187 -12 LINE",
"215 -11 OFFCURVE",
"255 0 OFFCURVE",
"277 10 CURVE",
"287 83 LINE",
"265 72 OFFCURVE",
"223 61 OFFCURVE",
"197 61 CURVE SMOOTH",
"159 61 OFFCURVE",
"141 81 OFFCURVE",
"148 132 CURVE SMOOTH",
"188 418 LINE",
"318 418 LINE",
"328 488 LINE",
"198 488 LINE",
"216 618 LINE"
);
}
);
width = 338;
}
);
leftKerningGroup = t;
leftMetricsKey = t;
rightKerningGroup = t;
rightMetricsKey = t;
unicode = 0163;
},
{
color = 4;
glyphname = u;
lastChange = "2013-12-19 10:54:20 +0100";
layers = (
{
anchors = (
{
name = ogonek;
position = "{437, 10}";
},
{
name = top;
position = "{282, 488}";
}
);
layerId = "F9064169-91CB-4D1F-AD97-42715B9ED178";
name = Light;
paths = (
{
closed = 1;
nodes = (
"359 488 LINE",
"336 326 LINE SMOOTH",
"323 235 OFFCURVE",
"277 64 OFFCURVE",
"181 64 CURVE SMOOTH",
"142 64 OFFCURVE",
"124 90 OFFCURVE",
"137 175 CURVE SMOOTH",
"183 488 LINE",
"98 488 LINE",
"51 165 LINE SMOOTH",
"34 48 OFFCURVE",
"79 -12 OFFCURVE",
"157 -12 CURVE SMOOTH",
"229 -12 OFFCURVE",
"293 48 OFFCURVE",
"341 191 CURVE",
"344 192 LINE",
"346 190 LINE",
"300 28 LINE",
"296 0 LINE",
"376 0 LINE",
"445 488 LINE"
);
}
);
width = 486;
}
);
leftKerningGroup = u;
rightKerningGroup = u;
unicode = 0075;
},
{
color = 4;
glyphname = uogonek;
lastChange = "2013-12-19 10:54:20 +0100";
layers = (
{
layerId = "F9064169-91CB-4D1F-AD97-42715B9ED178";
name = Light;
paths = (
{
closed = 1;
nodes = (
"359 488 LINE",
"336 326 LINE SMOOTH",
"323 235 OFFCURVE",
"277 64 OFFCURVE",
"181 64 CURVE SMOOTH",
"142 64 OFFCURVE",
"124 90 OFFCURVE",
"137 175 CURVE SMOOTH",
"183 488 LINE",
"98 488 LINE",
"51 165 LINE SMOOTH",
"34 48 OFFCURVE",
"79 -12 OFFCURVE",
"157 -12 CURVE SMOOTH",
"229 -12 OFFCURVE",
"293 48 OFFCURVE",
"341 191 CURVE",
"344 192 LINE",
"346 190 LINE",
"300 28 LINE",
"296 3 LINE",
"254 -21 OFFCURVE",
"223 -63 OFFCURVE",
"218 -103 CURVE SMOOTH",
"216 -116 LINE SMOOTH",
"209 -164 OFFCURVE",
"236 -197 OFFCURVE",
"304 -197 CURVE SMOOTH",
"319 -197 OFFCURVE",
"335 -196 OFFCURVE",
"353 -192 CURVE",
"361 -131 LINE",
"349 -133 OFFCURVE",
"337 -134 OFFCURVE",
"328 -134 CURVE SMOOTH",
"298 -134 OFFCURVE",
"287 -123 OFFCURVE",
"291 -97 CURVE SMOOTH",
"292 -87 LINE SMOOTH",
"297 -53 OFFCURVE",
"321 -19 OFFCURVE",
"360 0 CURVE",
"376 0 LINE",
"445 488 LINE"
);
}
);
width = 486;
}
);
leftKerningGroup = u;
leftMetricsKey = u;
rightKerningGroup = u;
rightMetricsKey = u;
unicode = 0173;
},
{
color = 4;
glyphname = v;
lastChange = "2013-12-19 10:54:20 +0100";
layers = (
{
layerId = "F9064169-91CB-4D1F-AD97-42715B9ED178";
name = Light;
paths = (
{
closed = 1;
nodes = (
"357 488 LINE",
"290 308 OFFCURVE",
"261 238 OFFCURVE",
"182 67 CURVE",
"179 65 LINE",
"177 67 LINE",
"164 207 OFFCURVE",
"147 337 OFFCURVE",
"121 488 CURVE",
"38 488 LINE",
"121 0 LINE",
"230 0 LINE",
"450 488 LINE"
);
}
);
width = 432;
}
);
leftKerningGroup = v;
rightKerningGroup = v;
unicode = 0076;
},
{
color = 4;
glyphname = w;
lastChange = "2013-12-19 10:54:20 +0100";
layers = (
{
anchors = (
{
name = top;
position = "{383, 488}";
}
);
layerId = "F9064169-91CB-4D1F-AD97-42715B9ED178";
name = Light;
paths = (
{
closed = 1;
nodes = (
"596 488 LINE",
"558 349 OFFCURVE",
"516 212 OFFCURVE",
"465 75 CURVE",
"462 73 LINE",
"460 75 LINE",
"454 214 OFFCURVE",
"443 351 OFFCURVE",
"423 488 CURVE",
"308 488 LINE",
"261 349 OFFCURVE",
"212 212 OFFCURVE",
"155 75 CURVE",
"153 73 LINE",
"150 75 LINE",
"152 212 OFFCURVE",
"147 350 OFFCURVE",
"135 488 CURVE",
"48 488 LINE",
"89 0 LINE",
"197 0 LINE",
"357 414 LINE",
"399 0 LINE",
"508 0 LINE",
"686 488 LINE"
);
}
);
width = 678;
}
);
leftKerningGroup = w;
rightKerningGroup = w;
unicode = 0077;
},
{
color = 4;
glyphname = x;
lastChange = "2013-12-19 10:54:20 +0100";
layers = (
{
layerId = "F9064169-91CB-4D1F-AD97-42715B9ED178";
name = Light;
paths = (
{
closed = 1;
nodes = (
"332 488 LINE",
"294 429 OFFCURVE",
"256 372 OFFCURVE",
"215 315 CURVE",
"212 313 LINE",
"210 315 LINE",
"186 375 OFFCURVE",
"164 430 OFFCURVE",
"137 488 CURVE",
"43 488 LINE",
"151 252 LINE",
"-35 0 LINE",
"67 0 LINE",
"106 53 OFFCURVE",
"152 120 OFFCURVE",
"198 189 CURVE",
"201 191 LINE",
"203 189 LINE",
"233 125 OFFCURVE",
"257 70 OFFCURVE",
"284 0 CURVE",
"376 0 LINE",
"259 252 LINE",
"433 488 LINE"
);
}
);
width = 421;
}
);
leftKerningGroup = x;
rightKerningGroup = x;
unicode = 0078;
},
{
color = 4;
glyphname = y;
lastChange = "2013-12-19 10:54:20 +0100";
layers = (
{
anchors = (
{
name = top;
position = "{288, 488}";
}
);
layerId = "F9064169-91CB-4D1F-AD97-42715B9ED178";
name = Light;
paths = (
{
closed = 1;
nodes = (
"359 488 LINE",
"336 326 LINE SMOOTH",
"323 235 OFFCURVE",
"277 64 OFFCURVE",
"181 64 CURVE SMOOTH",
"142 64 OFFCURVE",
"124 90 OFFCURVE",
"137 175 CURVE SMOOTH",
"183 488 LINE",
"98 488 LINE",
"51 165 LINE SMOOTH",
"34 48 OFFCURVE",
"79 -12 OFFCURVE",
"157 -12 CURVE SMOOTH",
"229 -12 OFFCURVE",
"293 48 OFFCURVE",
"341 191 CURVE",
"344 192 LINE",
"346 190 LINE",
"296 28 LINE",
"285 -43 LINE SMOOTH",
"277 -97 OFFCURVE",
"252 -124 OFFCURVE",
"189 -124 CURVE SMOOTH",
"150 -124 OFFCURVE",
"97 -114 OFFCURVE",
"53 -100 CURVE",
"43 -175 LINE",
"87 -188 OFFCURVE",
"145 -197 OFFCURVE",
"186 -197 CURVE SMOOTH",
"301 -197 OFFCURVE",
"355 -150 OFFCURVE",
"371 -36 CURVE SMOOTH",
"445 488 LINE"
);
}
);
width = 486;
}
);
rightKerningGroup = u;
unicode = 0079;
},
{
color = 4;
glyphname = z;
lastChange = "2013-12-19 10:54:20 +0100";
layers = (
{
anchors = (
{
name = top;
position = "{246, 488}";
}
);
layerId = "F9064169-91CB-4D1F-AD97-42715B9ED178";
name = Light;
paths = (
{
closed = 1;
nodes = (
"68 488 LINE",
"58 413 LINE",
"268 413 LINE",
"4 65 LINE",
"-5 0 LINE",
"321 0 LINE",
"331 75 LINE",
"110 75 LINE",
"183 184 OFFCURVE",
"279 310 OFFCURVE",
"380 423 CURVE",
"389 488 LINE"
);
}
);
width = 401;
}
);
leftKerningGroup = z;
rightKerningGroup = z;
unicode = 007A;
},
{
color = 4;
glyphname = fi;
lastChange = "2013-12-19 12:16:51 +0100";
layers = (
{
layerId = "F9064169-91CB-4D1F-AD97-42715B9ED178";
name = Light;
paths = (
{
closed = 1;
nodes = (
"205 695 OFFCURVE",
"150 646 OFFCURVE",
"135 539 CURVE SMOOTH",
"127 482 LINE",
"51 468 LINE",
"44 418 LINE",
"118 418 LINE",
"55 -37 LINE SMOOTH",
"46 -105 OFFCURVE",
"26 -125 OFFCURVE",
"-11 -125 CURVE SMOOTH",
"-36 -125 OFFCURVE",
"-63 -119 OFFCURVE",
"-83 -112 CURVE",
"-93 -183 LINE",
"-71 -190 OFFCURVE",
"-32 -197 OFFCURVE",
"-5 -197 CURVE SMOOTH",
"80 -197 OFFCURVE",
"125 -149 OFFCURVE",
"141 -32 CURVE SMOOTH",
"203 418 LINE",
"372 418 LINE",
"314 0 LINE",
"399 0 LINE",
"467 488 LINE",
"213 488 LINE",
"221 544 LINE SMOOTH",
"230 605 OFFCURVE",
"251 626 OFFCURVE",
"297 626 CURVE SMOOTH",
"325 626 OFFCURVE",
"369 616 OFFCURVE",
"403 601 CURVE",
"414 676 LINE",
"377 687 OFFCURVE",
"329 695 OFFCURVE",
"299 695 CURVE SMOOTH"
);
}
);
width = 509;
}
);
leftKerningGroup = f;
rightKerningGroup = u;
unicode = FB01;
},
{
color = 4;
glyphname = fl;
lastChange = "2013-12-19 11:39:45 +0100";
layers = (
{
layerId = "F9064169-91CB-4D1F-AD97-42715B9ED178";
name = Light;
paths = (
{
closed = 1;
nodes = (
"208 695 OFFCURVE",
"155 644 OFFCURVE",
"140 539 CURVE SMOOTH",
"132 482 LINE",
"56 468 LINE",
"49 418 LINE",
"123 418 LINE",
"60 -37 LINE SMOOTH",
"51 -105 OFFCURVE",
"31 -125 OFFCURVE",
"-6 -125 CURVE SMOOTH",
"-31 -125 OFFCURVE",
"-58 -119 OFFCURVE",
"-78 -112 CURVE",
"-88 -183 LINE",
"-66 -190 OFFCURVE",
"-27 -197 OFFCURVE",
"0 -197 CURVE SMOOTH",
"82 -197 OFFCURVE",
"129 -153 OFFCURVE",
"146 -32 CURVE SMOOTH",
"208 418 LINE",
"298 418 LINE",
"308 488 LINE",
"218 488 LINE",
"226 544 LINE SMOOTH",
"235 605 OFFCURVE",
"256 626 OFFCURVE",
"302 626 CURVE SMOOTH",
"327 626 OFFCURVE",
"367 618 OFFCURVE",
"399 605 CURVE",
"396 556 OFFCURVE",
"390 506 OFFCURVE",
"383 458 CURVE SMOOTH",
"319 0 LINE",
"404 0 LINE",
"469 464 LINE SMOOTH",
"483 564 OFFCURVE",
"487 629 OFFCURVE",
"488 680 CURVE",
"419 676 LINE",
"382 687 OFFCURVE",
"334 695 OFFCURVE",
"304 695 CURVE SMOOTH"
);
}
);
width = 519;
}
);
leftKerningGroup = f;
rightKerningGroup = l;
unicode = FB02;
},
{
color = 4;
glyphname = ordfeminine;
lastChange = "2013-12-19 10:54:20 +0100";
layers = (
{
layerId = "F9064169-91CB-4D1F-AD97-42715B9ED178";
name = Light;
paths = (
{
closed = 1;
nodes = (
"157 667 OFFCURVE",
"99 610 OFFCURVE",
"81 498 CURVE SMOOTH",
"63 393 LINE SMOOTH",
"45 281 OFFCURVE",
"92 214 OFFCURVE",
"170 214 CURVE SMOOTH",
"242 214 OFFCURVE",
"305 269 OFFCURVE",
"353 410 CURVE",
"356 411 LINE",
"358 409 LINE",
"317 284 LINE",
"309 226 LINE",
"390 226 LINE",
"449 655 LINE",
"369 655 LINE",
"362 608 LINE",
"336 636 OFFCURVE",
"291 667 OFFCURVE",
"242 667 CURVE SMOOTH"
);
},
{
closed = 1;
nodes = (
"30 73 LINE",
"20 0 LINE",
"359 0 LINE",
"369 73 LINE"
);
},
{
closed = 1;
nodes = (
"288 591 OFFCURVE",
"326 570 OFFCURVE",
"350 540 CURVE",
"344 502 LINE",
"326 412 OFFCURVE",
"274 290 OFFCURVE",
"194 290 CURVE SMOOTH",
"155 290 OFFCURVE",
"136 319 OFFCURVE",
"150 404 CURVE SMOOTH",
"165 490 LINE SMOOTH",
"178 568 OFFCURVE",
"208 591 OFFCURVE",
"256 591 CURVE SMOOTH"
);
}
);
width = 469;
}
);
unicode = 00AA;
},
{
color = 4;
glyphname = ordmasculine;
lastChange = "2013-12-19 10:54:20 +0100";
layers = (
{
layerId = "F9064169-91CB-4D1F-AD97-42715B9ED178";
name = Light;
paths = (
{
closed = 1;
nodes = (
"377 0 LINE",
"387 73 LINE",
"45 73 LINE",
"35 0 LINE"
);
},
{
closed = 1;
nodes = (
"351 388 LINE",
"343 320 OFFCURVE",
"307 286 OFFCURVE",
"250 286 CURVE SMOOTH",
"193 286 OFFCURVE",
"158 324 OFFCURVE",
"169 392 CURVE SMOOTH",
"185 494 LINE SMOOTH",
"195 562 OFFCURVE",
"230 596 OFFCURVE",
"287 596 CURVE SMOOTH",
"344 596 OFFCURVE",
"377 559 OFFCURVE",
"367 491 CURVE SMOOTH"
);
},
{
closed = 1;
nodes = (
"450 482 LINE",
"466 594 OFFCURVE",
"414 667 OFFCURVE",
"291 667 CURVE SMOOTH",
"168 667 OFFCURVE",
"117 602 OFFCURVE",
"99 489 CURVE SMOOTH",
"85 400 LINE SMOOTH",
"68 288 OFFCURVE",
"124 215 OFFCURVE",
"247 215 CURVE SMOOTH",
"366 215 OFFCURVE",
"420 276 OFFCURVE",
"437 394 CURVE SMOOTH"
);
}
);
width = 492;
}
);
unicode = 00BA;
},
{
color = 4;
glyphname = pi;
lastChange = "2013-12-19 10:54:20 +0100";
layers = (
{
layerId = "F9064169-91CB-4D1F-AD97-42715B9ED178";
name = Light;
paths = (
{
closed = 1;
nodes = (
"160 488 LINE SMOOTH",
"118 488 OFFCURVE",
"67 482 OFFCURVE",
"41 474 CURVE",
"31 404 LINE",
"53 412 OFFCURVE",
"85 418 OFFCURVE",
"105 418 CURVE SMOOTH",
"108 418 LINE",
"50 0 LINE",
"135 0 LINE",
"193 418 LINE",
"369 418 LINE",
"328 128 LINE SMOOTH",
"314 31 OFFCURVE",
"348 -12 OFFCURVE",
"419 -12 CURVE SMOOTH",
"443 -12 OFFCURVE",
"467 -6 OFFCURVE",
"483 -1 CURVE",
"492 66 LINE",
"478 61 OFFCURVE",
"460 57 OFFCURVE",
"447 57 CURVE SMOOTH",
"416 57 OFFCURVE",
"406 68 OFFCURVE",
"411 106 CURVE SMOOTH",
"454 418 LINE",
"524 418 LINE",
"534 488 LINE"
);
}
);
width = 534;
}
);
unicode = 03C0;
},
{
color = 4;
glyphname = zero;
lastChange = "2013-12-19 10:54:20 +0100";
layers = (
{
layerId = "F9064169-91CB-4D1F-AD97-42715B9ED178";
name = Light;
paths = (
{
closed = 1;
nodes = (
"172 613 OFFCURVE",
"101 549 OFFCURVE",
"82 411 CURVE SMOOTH",
"52 196 LINE SMOOTH",
"33 63 OFFCURVE",
"91 -12 OFFCURVE",
"214 -12 CURVE SMOOTH",
"332 -12 OFFCURVE",
"403 52 OFFCURVE",
"422 190 CURVE",
"452 405 LINE SMOOTH",
"472 545 OFFCURVE",
"407 613 OFFCURVE",
"290 613 CURVE SMOOTH"
);
},
{
closed = 1;
nodes = (
"345 541 OFFCURVE",
"380 502 OFFCURVE",
"368 413 CURVE SMOOTH",
"336 182 LINE SMOOTH",
"324 96 OFFCURVE",
"285 60 OFFCURVE",
"221 60 CURVE SMOOTH",
"157 60 OFFCURVE",
"124 102 OFFCURVE",
"136 188 CURVE SMOOTH",
"168 419 LINE SMOOTH",
"180 505 OFFCURVE",
"219 541 OFFCURVE",
"283 541 CURVE SMOOTH"
);
}
);
width = 500;
}
);
leftKerningGroup = zero;
rightKerningGroup = zero;
unicode = 0030;
},
{
color = 4;
glyphname = one;
lastChange = "2013-12-19 10:54:20 +0100";
layers = (
{
layerId = "F9064169-91CB-4D1F-AD97-42715B9ED178";
name = Light;
paths = (
{
closed = 1;
nodes = (
"206 601 LINE",
"35 535 LINE",
"41 462 LINE",
"182 519 LINE",
"184 519 LINE",
"112 0 LINE",
"197 0 LINE",
"281 601 LINE"
);
}
);
width = 312;
}
);
unicode = 0031;
},
{
color = 4;
glyphname = two;
lastChange = "2013-12-19 10:54:20 +0100";
layers = (
{
layerId = "F9064169-91CB-4D1F-AD97-42715B9ED178";
name = Light;
paths = (
{
closed = 1;
nodes = (
"169 613 OFFCURVE",
"113 603 OFFCURVE",
"68 588 CURVE",
"58 511 LINE",
"101 529 OFFCURVE",
"151 543 OFFCURVE",
"190 543 CURVE SMOOTH",
"259 543 OFFCURVE",
"288 516 OFFCURVE",
"278 452 CURVE SMOOTH",
"275 432 LINE SMOOTH",
"269 393 OFFCURVE",
"252 359 OFFCURVE",
"214 318 CURVE SMOOTH",
"-21 62 LINE",
"-30 0 LINE",
"297 0 LINE",
"306 71 LINE",
"80 71 LINE",
"251 248 LINE SMOOTH",
"328 328 OFFCURVE",
"353 376 OFFCURVE",
"361 433 CURVE SMOOTH",
"364 455 LINE SMOOTH",
"378 555 OFFCURVE",
"321 613 OFFCURVE",
"204 613 CURVE SMOOTH"
);
}
);
width = 387;
}
);
unicode = 0032;
},
{
color = 4;
glyphname = three;
lastChange = "2013-12-19 10:54:20 +0100";
layers = (
{
layerId = "F9064169-91CB-4D1F-AD97-42715B9ED178";
name = Light;
paths = (
{
closed = 1;
nodes = (
"167 613 OFFCURVE",
"119 606 OFFCURVE",
"74 596 CURVE",
"64 527 LINE",
"100 536 OFFCURVE",
"153 548 OFFCURVE",
"192 548 CURVE SMOOTH",
"250 548 OFFCURVE",
"280 516 OFFCURVE",
"271 455 CURVE SMOOTH",
"270 448 LINE SMOOTH",
"260 378 OFFCURVE",
"227 343 OFFCURVE",
"162 343 CURVE SMOOTH",
"73 343 LINE",
"63 277 LINE",
"152 277 LINE SMOOTH",
"219 277 OFFCURVE",
"252 241 OFFCURVE",
"243 172 CURVE SMOOTH",
"240 150 LINE SMOOTH",
"231 89 OFFCURVE",
"190 56 OFFCURVE",
"126 56 CURVE SMOOTH",
"87 56 OFFCURVE",
"33 71 OFFCURVE",
"-1 85 CURVE",
"-10 14 LINE",
"33 -2 OFFCURVE",
"91 -12 OFFCURVE",
"126 -12 CURVE SMOOTH",
"248 -12 OFFCURVE",
"317 54 OFFCURVE",
"327 156 CURVE SMOOTH",
"328 166 LINE SMOOTH",
"335 232 OFFCURVE",
"303 289 OFFCURVE",
"247 311 CURVE",
"308 333 OFFCURVE",
"344 380 OFFCURVE",
"354 448 CURVE SMOOTH",
"355 455 LINE SMOOTH",
"368 548 OFFCURVE",
"308 613 OFFCURVE",
"202 613 CURVE SMOOTH"
);
}
);
width = 387;
}
);
unicode = 0033;
},
{
color = 4;
glyphname = four;
lastChange = "2013-12-19 10:54:20 +0100";
layers = (
{
layerId = "F9064169-91CB-4D1F-AD97-42715B9ED178";
name = Light;
paths = (
{
closed = 1;
nodes = (
"299 601 LINE",
"-17 188 LINE",
"-25 129 LINE",
"247 129 LINE",
"229 0 LINE",
"312 0 LINE",
"330 129 LINE",
"391 129 LINE",
"400 199 LINE",
"339 199 LINE",
"396 601 LINE"
);
},
{
closed = 1;
nodes = (
"259 213 LINE",
"257 199 LINE",
"75 199 LINE",
"300 504 LINE"
);
}
);
width = 423;
}
);
unicode = 0034;
},
{
color = 4;
glyphname = five;
lastChange = "2013-12-19 10:54:20 +0100";
layers = (
{
layerId = "F9064169-91CB-4D1F-AD97-42715B9ED178";
name = Light;
paths = (
{
closed = 1;
nodes = (
"94 604 LINE",
"44 246 LINE",
"109 246 LINE",
"157 292 OFFCURVE",
"197 311 OFFCURVE",
"246 311 CURVE SMOOTH",
"294 311 OFFCURVE",
"320 279 OFFCURVE",
"309 202 CURVE SMOOTH",
"305 175 LINE SMOOTH",
"295 101 OFFCURVE",
"255 60 OFFCURVE",
"180 60 CURVE SMOOTH",
"146 60 OFFCURVE",
"75 75 OFFCURVE",
"31 90 CURVE",
"21 16 LINE",
"63 1 OFFCURVE",
"127 -12 OFFCURVE",
"177 -12 CURVE SMOOTH",
"305 -12 OFFCURVE",
"373 51 OFFCURVE",
"390 175 CURVE",
"393 199 LINE SMOOTH",
"409 329 OFFCURVE",
"361 382 OFFCURVE",
"268 382 CURVE SMOOTH",
"228 382 OFFCURVE",
"178 365 OFFCURVE",
"136 334 CURVE",
"169 532 LINE",
"392 532 LINE",
"402 604 LINE"
);
}
);
width = 441;
}
);
unicode = 0035;
},
{
color = 4;
glyphname = six;
lastChange = "2013-12-19 10:54:20 +0100";
layers = (
{
layerId = "F9064169-91CB-4D1F-AD97-42715B9ED178";
name = Light;
paths = (
{
closed = 1;
nodes = (
"168 612 OFFCURVE",
"97 546 OFFCURVE",
"71 364 CURVE SMOOTH",
"51 224 LINE SMOOTH",
"28 65 OFFCURVE",
"90 -12 OFFCURVE",
"218 -12 CURVE SMOOTH",
"339 -12 OFFCURVE",
"397 52 OFFCURVE",
"414 173 CURVE SMOOTH",
"419 207 LINE SMOOTH",
"436 327 OFFCURVE",
"384 389 OFFCURVE",
"289 389 CURVE SMOOTH",
"251 389 OFFCURVE",
"202 371 OFFCURVE",
"150 322 CURVE",
"156 365 LINE SMOOTH",
"175 502 OFFCURVE",
"214 542 OFFCURVE",
"291 542 CURVE SMOOTH",
"321 542 OFFCURVE",
"373 531 OFFCURVE",
"418 518 CURVE",
"428 592 LINE",
"399 600 OFFCURVE",
"339 612 OFFCURVE",
"295 612 CURVE SMOOTH"
);
},
{
closed = 1;
nodes = (
"316 315 OFFCURVE",
"346 277 OFFCURVE",
"335 210 CURVE SMOOTH",
"328 168 LINE SMOOTH",
"316 93 OFFCURVE",
"284 60 OFFCURVE",
"219 60 CURVE SMOOTH",
"154 60 OFFCURVE",
"120 107 OFFCURVE",
"132 192 CURVE SMOOTH",
"140 250 LINE",
"183 291 OFFCURVE",
"230 315 OFFCURVE",
"268 315 CURVE SMOOTH"
);
}
);
width = 475;
}
);
leftKerningGroup = six;
rightKerningGroup = six;
unicode = 0036;
},
{
color = 4;
glyphname = seven;
lastChange = "2013-12-19 10:54:20 +0100";
layers = (
{
layerId = "F9064169-91CB-4D1F-AD97-42715B9ED178";
name = Light;
paths = (
{
closed = 1;
nodes = (
"48 600 LINE",
"38 527 LINE",
"309 527 LINE",
"309 525 LINE",
"12 0 LINE",
"101 0 LINE",
"401 539 LINE",
"409 600 LINE"
);
}
);
width = 378;
}
);
unicode = 0037;
},
{
color = 4;
glyphname = eight;
lastChange = "2013-12-19 10:54:20 +0100";
layers = (
{
layerId = "F9064169-91CB-4D1F-AD97-42715B9ED178";
name = Light;
paths = (
{
closed = 1;
nodes = (
"164 613 OFFCURVE",
"103 567 OFFCURVE",
"87 472 CURVE SMOOTH",
"86 466 LINE SMOOTH",
"76 409 OFFCURVE",
"98 355 OFFCURVE",
"143 328 CURVE",
"69 302 OFFCURVE",
"31 250 OFFCURVE",
"22 182 CURVE SMOOTH",
"20 167 LINE SMOOTH",
"6 60 OFFCURVE",
"75 -12 OFFCURVE",
"203 -12 CURVE SMOOTH",
"329 -12 OFFCURVE",
"398 51 OFFCURVE",
"411 154 CURVE SMOOTH",
"413 170 LINE SMOOTH",
"421 237 OFFCURVE",
"396 292 OFFCURVE",
"338 319 CURVE",
"389 344 OFFCURVE",
"412 381 OFFCURVE",
"422 438 CURVE SMOOTH",
"423 444 LINE SMOOTH",
"440 545 OFFCURVE",
"372 613 OFFCURVE",
"268 613 CURVE SMOOTH"
);
},
{
closed = 1;
nodes = (
"300 287 OFFCURVE",
"337 244 OFFCURVE",
"327 175 CURVE SMOOTH",
"324 155 LINE SMOOTH",
"315 94 OFFCURVE",
"279 59 OFFCURVE",
"207 59 CURVE SMOOTH",
"135 59 OFFCURVE",
"97 104 OFFCURVE",
"107 174 CURVE SMOOTH",
"108 181 LINE SMOOTH",
"117 247 OFFCURVE",
"160 287 OFFCURVE",
"229 287 CURVE SMOOTH"
);
},
{
closed = 1;
nodes = (
"322 547 OFFCURVE",
"352 515 OFFCURVE",
"341 446 CURVE SMOOTH",
"340 440 LINE SMOOTH",
"328 371 OFFCURVE",
"305 353 OFFCURVE",
"247 353 CURVE SMOOTH",
"185 353 OFFCURVE",
"160 382 OFFCURVE",
"170 456 CURVE SMOOTH",
"171 462 LINE SMOOTH",
"181 522 OFFCURVE",
"211 547 OFFCURVE",
"263 547 CURVE SMOOTH"
);
}
);
width = 460;
}
);
leftKerningGroup = eight;
rightKerningGroup = eight;
unicode = 0038;
},
{
color = 4;
glyphname = nine;
lastChange = "2013-12-19 10:54:20 +0100";
layers = (
{
layerId = "F9064169-91CB-4D1F-AD97-42715B9ED178";
name = Light;
paths = (
{
closed = 1;
nodes = (
"143 612 OFFCURVE",
"81 554 OFFCURVE",
"65 435 CURVE SMOOTH",
"61 404 LINE SMOOTH",
"44 274 OFFCURVE",
"96 211 OFFCURVE",
"183 211 CURVE SMOOTH",
"227 211 OFFCURVE",
"276 234 OFFCURVE",
"329 278 CURVE",
"318 202 LINE SMOOTH",
"303 96 OFFCURVE",
"261 60 OFFCURVE",
"184 60 CURVE SMOOTH",
"156 60 OFFCURVE",
"92 73 OFFCURVE",
"61 86 CURVE",
"51 11 LINE",
"76 2 OFFCURVE",
"138 -12 OFFCURVE",
"182 -12 CURVE SMOOTH",
"315 -12 OFFCURVE",
"382 48 OFFCURVE",
"404 202 CURVE",
"432 408 LINE SMOOTH",
"450 537 OFFCURVE",
"386 612 OFFCURVE",
"266 612 CURVE SMOOTH"
);
},
{
closed = 1;
nodes = (
"324 540 OFFCURVE",
"361 499 OFFCURVE",
"350 423 CURVE SMOOTH",
"339 350 LINE",
"296 315 OFFCURVE",
"249 285 OFFCURVE",
"211 285 CURVE SMOOTH",
"165 285 OFFCURVE",
"132 323 OFFCURVE",
"144 401 CURVE SMOOTH",
"150 440 LINE SMOOTH",
"160 508 OFFCURVE",
"192 540 OFFCURVE",
"259 540 CURVE SMOOTH"
);
}
);
width = 475;
}
);
unicode = 0039;
},
{
color = 4;
glyphname = fraction;
lastChange = "2013-12-19 10:54:20 +0100";
layers = (
{
layerId = "F9064169-91CB-4D1F-AD97-42715B9ED178";
name = Light;
paths = (
{
closed = 1;
nodes = (
"39 0 LINE",
"428 601 LINE",
"345 601 LINE",
"-44 0 LINE"
);
}
);
width = 380;
}
);
unicode = 2044;
},
{
color = 4;
glyphname = onehalf;
lastChange = "2013-12-19 10:59:58 +0100";
layers = (
{
layerId = "F9064169-91CB-4D1F-AD97-42715B9ED178";
leftMetricsKey = one.numr;
rightMetricsKey = two.dnom;
name = Light;
paths = (
{
closed = 1;
nodes = (
"236 602 LINE",
"101 554 LINE",
"107 487 LINE",
"212 529 LINE",
"171 245 LINE",
"79 245 LINE",
"70 181 LINE",
"322 181 LINE",
"331 245 LINE",
"252 245 LINE",
"302 602 LINE"
);
},
{
closed = 1;
nodes = (
"359 0 LINE",
"748 601 LINE",
"665 601 LINE",
"276 0 LINE"
);
},
{
closed = 1;
nodes = (
"798 429 OFFCURVE",
"754 421 OFFCURVE",
"720 410 CURVE",
"711 344 LINE",
"739 356 OFFCURVE",
"781 365 OFFCURVE",
"811 365 CURVE SMOOTH",
"863 365 OFFCURVE",
"881 346 OFFCURVE",
"877 313 CURVE SMOOTH",
"876 304 LINE SMOOTH",
"872 270 OFFCURVE",
"854 251 OFFCURVE",
"833 230 CURVE SMOOTH",
"661 56 LINE",
"653 0 LINE",
"909 0 LINE",
"918 64 LINE",
"753 64 LINE",
"867 170 LINE SMOOTH",
"923 222 OFFCURVE",
"946 260 OFFCURVE",
"952 306 CURVE SMOOTH",
"953 314 LINE SMOOTH",
"962 383 OFFCURVE",
"927 429 OFFCURVE",
"825 429 CURVE SMOOTH"
);
}
);
width = 1022;
}
);
leftMetricsKey = one.numr;
rightMetricsKey = two.dnom;
unicode = 00BD;
},
{
color = 4;
glyphname = onequarter;
lastChange = "2013-12-19 11:00:38 +0100";
layers = (
{
layerId = "F9064169-91CB-4D1F-AD97-42715B9ED178";
rightMetricsKey = four.dnom;
name = Light;
paths = (
{
closed = 1;
nodes = (
"355 0 LINE",
"744 601 LINE",
"661 601 LINE",
"272 0 LINE"
);
},
{
closed = 1;
nodes = (
"763 421 LINE",
"618 132 LINE",
"633 90 LINE",
"804 90 LINE",
"791 0 LINE",
"868 0 LINE",
"881 90 LINE",
"937 90 LINE",
"945 152 LINE",
"889 152 LINE",
"908 286 LINE",
"832 286 LINE",
"814 159 LINE",
"813 152 LINE",
"708 152 LINE",
"839 421 LINE"
);
},
{
closed = 1;
nodes = (
"236 602 LINE",
"101 554 LINE",
"107 487 LINE",
"212 529 LINE",
"171 245 LINE",
"79 245 LINE",
"70 181 LINE",
"322 181 LINE",
"331 245 LINE",
"252 245 LINE",
"302 602 LINE"
);
}
);
width = 1004;
}
);
rightMetricsKey = four.dnom;
unicode = 00BC;
},
{
color = 4;
glyphname = threequarters;
lastChange = "2013-12-19 11:01:15 +0100";
layers = (
{
layerId = "F9064169-91CB-4D1F-AD97-42715B9ED178";
name = Light;
paths = (
{
closed = 1;
nodes = (
"355 0 LINE",
"744 601 LINE",
"661 601 LINE",
"272 0 LINE"
);
},
{
closed = 1;
nodes = (
"167 610 OFFCURVE",
"131 605 OFFCURVE",
"97 598 CURVE",
"88 539 LINE",
"116 546 OFFCURVE",
"150 552 OFFCURVE",
"179 552 CURVE SMOOTH",
"226 552 OFFCURVE",
"243 531 OFFCURVE",
"238 494 CURVE SMOOTH",
"237 487 LINE SMOOTH",
"231 443 OFFCURVE",
"209 427 OFFCURVE",
"160 427 CURVE SMOOTH",
"102 427 LINE",
"93 369 LINE",
"151 369 LINE SMOOTH",
"207 369 OFFCURVE",
"223 343 OFFCURVE",
"218 300 CURVE SMOOTH",
"217 292 LINE SMOOTH",
"212 253 OFFCURVE",
"186 233 OFFCURVE",
"144 233 CURVE SMOOTH",
"115 233 OFFCURVE",
"72 242 OFFCURVE",
"46 251 CURVE",
"38 191 LINE",
"70 180 OFFCURVE",
"116 173 OFFCURVE",
"141 173 CURVE SMOOTH",
"238 173 OFFCURVE",
"286 219 OFFCURVE",
"296 290 CURVE SMOOTH",
"297 297 LINE SMOOTH",
"303 341 OFFCURVE",
"280 381 OFFCURVE",
"236 399 CURVE",
"281 416 OFFCURVE",
"305 449 OFFCURVE",
"310 489 CURVE SMOOTH",
"311 496 LINE SMOOTH",
"320 562 OFFCURVE",
"283 610 OFFCURVE",
"193 610 CURVE SMOOTH"
);
},
{
closed = 1;
nodes = (
"763 421 LINE",
"618 132 LINE",
"633 90 LINE",
"804 90 LINE",
"791 0 LINE",
"868 0 LINE",
"881 90 LINE",
"937 90 LINE",
"945 152 LINE",
"889 152 LINE",
"908 286 LINE",
"832 286 LINE",
"814 159 LINE",
"813 152 LINE",
"708 152 LINE",
"839 421 LINE"
);
}
);
width = 1000;
}
);
unicode = 00BE;
},
{
color = 4;
glyphname = onesuperior;
lastChange = "2013-12-19 11:01:24 +0100";
layers = (
{
layerId = "F9064169-91CB-4D1F-AD97-42715B9ED178";
name = Light;
paths = (
{
closed = 1;
nodes = (
"256 752 LINE",
"121 704 LINE",
"127 637 LINE",
"232 679 LINE",
"191 395 LINE",
"99 395 LINE",
"90 331 LINE",
"342 331 LINE",
"351 395 LINE",
"272 395 LINE",
"322 752 LINE"
);
}
);
width = 400;
}
);
unicode = 00B9;
},
{
color = 4;
glyphname = twosuperior;
lastChange = "2013-12-19 11:01:29 +0100";
layers = (
{
layerId = "F9064169-91CB-4D1F-AD97-42715B9ED178";
name = Light;
paths = (
{
closed = 1;
nodes = (
"222 760 OFFCURVE",
"178 752 OFFCURVE",
"144 741 CURVE",
"135 675 LINE",
"163 687 OFFCURVE",
"205 696 OFFCURVE",
"235 696 CURVE SMOOTH",
"287 696 OFFCURVE",
"305 677 OFFCURVE",
"301 644 CURVE SMOOTH",
"300 635 LINE SMOOTH",
"296 601 OFFCURVE",
"278 582 OFFCURVE",
"257 561 CURVE SMOOTH",
"85 387 LINE",
"77 331 LINE",
"333 331 LINE",
"342 395 LINE",
"177 395 LINE",
"291 501 LINE SMOOTH",
"347 553 OFFCURVE",
"370 591 OFFCURVE",
"376 637 CURVE SMOOTH",
"377 645 LINE SMOOTH",
"386 714 OFFCURVE",
"351 760 OFFCURVE",
"249 760 CURVE SMOOTH"
);
}
);
width = 400;
}
);
unicode = 00B2;
},
{
color = 4;
glyphname = threesuperior;
lastChange = "2013-12-19 11:01:32 +0100";
layers = (
{
layerId = "F9064169-91CB-4D1F-AD97-42715B9ED178";
name = Light;
paths = (
{
closed = 1;
nodes = (
"213 760 OFFCURVE",
"177 755 OFFCURVE",
"143 748 CURVE",
"134 689 LINE",
"162 696 OFFCURVE",
"196 702 OFFCURVE",
"225 702 CURVE SMOOTH",
"272 702 OFFCURVE",
"289 681 OFFCURVE",
"284 644 CURVE SMOOTH",
"283 637 LINE SMOOTH",
"277 593 OFFCURVE",
"255 577 OFFCURVE",
"206 577 CURVE SMOOTH",
"148 577 LINE",
"139 519 LINE",
"197 519 LINE SMOOTH",
"253 519 OFFCURVE",
"269 493 OFFCURVE",
"264 450 CURVE SMOOTH",
"263 442 LINE SMOOTH",
"258 403 OFFCURVE",
"232 383 OFFCURVE",
"190 383 CURVE SMOOTH",
"161 383 OFFCURVE",
"118 392 OFFCURVE",
"92 401 CURVE",
"84 341 LINE",
"116 330 OFFCURVE",
"162 323 OFFCURVE",
"187 323 CURVE SMOOTH",
"284 323 OFFCURVE",
"332 369 OFFCURVE",
"342 440 CURVE SMOOTH",
"343 447 LINE SMOOTH",
"349 491 OFFCURVE",
"326 531 OFFCURVE",
"282 549 CURVE",
"327 566 OFFCURVE",
"351 599 OFFCURVE",
"356 639 CURVE SMOOTH",
"357 646 LINE SMOOTH",
"366 712 OFFCURVE",
"329 760 OFFCURVE",
"239 760 CURVE SMOOTH"
);
}
);
width = 400;
}
);
unicode = 00B3;
},
{
color = 4;
glyphname = asterisk;
lastChange = "2013-12-19 10:54:20 +0100";
layers = (
{
layerId = "F9064169-91CB-4D1F-AD97-42715B9ED178";
name = Light;
paths = (
{
closed = 1;
nodes = (
"207 695 LINE",
"217 584 LINE",
"115 627 LINE",
"92 561 LINE",
"202 537 LINE",
"128 452 LINE",
"184 410 LINE",
"241 507 LINE",
"298 411 LINE",
"355 452 LINE",
"281 536 LINE",
"392 561 LINE",
"369 627 LINE",
"266 583 LINE",
"276 695 LINE"
);
}
);
width = 410;
}
);
unicode = 002A;
},
{
color = 4;
glyphname = backslash;
lastChange = "2013-12-19 10:54:20 +0100";
layers = (
{
layerId = "F9064169-91CB-4D1F-AD97-42715B9ED178";
name = Light;
paths = (
{
closed = 1;
nodes = (
"10 683 LINE",
"215 0 LINE",
"300 0 LINE",
"95 683 LINE"
);
}
);
width = 320;
}
);
unicode = 005C;
},
{
color = 4;
glyphname = bullet;
lastChange = "2013-12-19 10:54:20 +0100";
layers = (
{
layerId = "F9064169-91CB-4D1F-AD97-42715B9ED178";
name = Light;
paths = (
{
closed = 1;
nodes = (
"78 335 OFFCURVE",
"59 320 OFFCURVE",
"54 285 CURVE SMOOTH",
"49 256 LINE SMOOTH",
"43 221 OFFCURVE",
"70 200 OFFCURVE",
"109 200 CURVE SMOOTH",
"151 200 OFFCURVE",
"168 213 OFFCURVE",
"174 249 CURVE SMOOTH",
"179 279 LINE SMOOTH",
"184 312 OFFCURVE",
"160 335 OFFCURVE",
"118 335 CURVE SMOOTH"
);
}
);
width = 235;
}
);
leftKerningGroup = colon;
rightKerningGroup = colon;
unicode = 2022;
},
{
color = 4;
glyphname = comma;
lastChange = "2013-12-19 10:54:20 +0100";
layers = (
{
layerId = "F9064169-91CB-4D1F-AD97-42715B9ED178";
name = Light;
paths = (
{
closed = 1;
nodes = (
"43 108 OFFCURVE",
"27 95 OFFCURVE",
"23 70 CURVE SMOOTH",
"19 42 LINE SMOOTH",
"16 19 OFFCURVE",
"27 -4 OFFCURVE",
"49 -9 CURVE",
"-8 -161 LINE",
"52 -161 LINE",
"116 -19 LINE SMOOTH",
"123 -3 OFFCURVE",
"127 6 OFFCURVE",
"130 26 CURVE SMOOTH",
"133 51 LINE SMOOTH",
"138 86 OFFCURVE",
"115 108 OFFCURVE",
"79 108 CURVE SMOOTH"
);
}
);
width = 220;
}
);
leftKerningGroup = period;
rightKerningGroup = period;
unicode = 002C;
},
{
color = 4;
glyphname = exclam;
lastChange = "2013-12-19 10:54:20 +0100";
layers = (
{
layerId = "F9064169-91CB-4D1F-AD97-42715B9ED178";
name = Light;
paths = (
{
closed = 1;
nodes = (
"115 695 LINE",
"53 200 LINE",
"134 200 LINE",
"210 695 LINE"
);
},
{
closed = 1;
nodes = (
"38 108 OFFCURVE",
"21 94 OFFCURVE",
"17 59 CURVE SMOOTH",
"14 36 LINE SMOOTH",
"10 9 OFFCURVE",
"29 -12 OFFCURVE",
"66 -12 CURVE SMOOTH",
"105 -12 OFFCURVE",
"121 3 OFFCURVE",
"125 30 CURVE SMOOTH",
"129 59 LINE SMOOTH",
"133 88 OFFCURVE",
"113 108 OFFCURVE",
"76 108 CURVE SMOOTH"
);
}
);
width = 211;
}
);
unicode = 0021;
},
{
color = 4;
glyphname = numbersign;
lastChange = "2013-12-19 10:54:20 +0100";
layers = (
{
layerId = "F9064169-91CB-4D1F-AD97-42715B9ED178";
name = Light;
paths = (
{
closed = 1;
nodes = (
"406 613 LINE",
"388 488 LINE",
"232 488 LINE",
"250 613 LINE",
"165 613 LINE",
"147 488 LINE",
"67 488 LINE",
"57 418 LINE",
"137 418 LINE",
"106 195 LINE",
"26 195 LINE",
"16 125 LINE",
"96 125 LINE",
"79 0 LINE",
"164 0 LINE",
"181 125 LINE",
"337 125 LINE",
"320 0 LINE",
"405 0 LINE",
"422 125 LINE",
"502 125 LINE",
"512 195 LINE",
"432 195 LINE",
"463 418 LINE",
"543 418 LINE",
"553 488 LINE",
"473 488 LINE",
"491 613 LINE"
);
},
{
closed = 1;
nodes = (
"347 195 LINE",
"191 195 LINE",
"222 418 LINE",
"378 418 LINE"
);
}
);
width = 556;
}
);
unicode = 0023;
},
{
color = 4;
glyphname = period;
lastChange = "2013-12-19 10:54:20 +0100";
layers = (
{
layerId = "F9064169-91CB-4D1F-AD97-42715B9ED178";
name = Light;
paths = (
{
closed = 1;
nodes = (
"43 108 OFFCURVE",
"26 94 OFFCURVE",
"22 59 CURVE SMOOTH",
"19 36 LINE SMOOTH",
"15 9 OFFCURVE",
"34 -12 OFFCURVE",
"71 -12 CURVE SMOOTH",
"110 -12 OFFCURVE",
"126 3 OFFCURVE",
"130 30 CURVE SMOOTH",
"134 59 LINE SMOOTH",
"138 88 OFFCURVE",
"118 108 OFFCURVE",
"81 108 CURVE SMOOTH"
);
}
);
width = 221;
}
);
leftKerningGroup = period;
rightKerningGroup = period;
unicode = 002E;
},
{
color = 4;
glyphname = question;
lastChange = "2013-12-19 10:54:20 +0100";
layers = (
{
layerId = "F9064169-91CB-4D1F-AD97-42715B9ED178";
name = Light;
paths = (
{
closed = 1;
nodes = (
"176 695 OFFCURVE",
"125 686 OFFCURVE",
"80 672 CURVE",
"70 599 LINE",
"106 614 OFFCURVE",
"160 627 OFFCURVE",
"197 627 CURVE SMOOTH",
"278 627 OFFCURVE",
"297 593 OFFCURVE",
"292 545 CURVE SMOOTH",
"291 535 LINE SMOOTH",
"286 489 OFFCURVE",
"276 465 OFFCURVE",
"231 422 CURVE SMOOTH",
"172 365 LINE SMOOTH",
"133 328 OFFCURVE",
"116 290 OFFCURVE",
"107 228 CURVE SMOOTH",
"103 200 LINE",
"179 200 LINE",
"183 227 LINE SMOOTH",
"192 283 OFFCURVE",
"204 302 OFFCURVE",
"225 321 CURVE SMOOTH",
"265 357 LINE SMOOTH",
"338 423 OFFCURVE",
"365 467 OFFCURVE",
"373 527 CURVE SMOOTH",
"375 542 LINE SMOOTH",
"387 628 OFFCURVE",
"346 695 OFFCURVE",
"211 695 CURVE SMOOTH"
);
},
{
closed = 1;
nodes = (
"87 108 OFFCURVE",
"70 94 OFFCURVE",
"66 59 CURVE SMOOTH",
"63 36 LINE SMOOTH",
"59 9 OFFCURVE",
"78 -12 OFFCURVE",
"115 -12 CURVE SMOOTH",
"154 -12 OFFCURVE",
"170 3 OFFCURVE",
"174 30 CURVE SMOOTH",
"178 59 LINE SMOOTH",
"182 88 OFFCURVE",
"162 108 OFFCURVE",
"125 108 CURVE SMOOTH"
);
}
);
width = 395;
}
);
unicode = 003F;
},
{
color = 4;
glyphname = quotedbl;
lastChange = "2013-12-19 10:54:20 +0100";
layers = (
{
layerId = "F9064169-91CB-4D1F-AD97-42715B9ED178";
name = Light;
paths = (
{
closed = 1;
nodes = (
"240 683 LINE",
"205 429 LINE",
"290 429 LINE",
"325 683 LINE"
);
},
{
closed = 1;
nodes = (
"100 683 LINE",
"65 429 LINE",
"150 429 LINE",
"185 683 LINE"
);
}
);
width = 315;
}
);
unicode = 0022;
},
{
color = 4;
glyphname = quotesingle;
lastChange = "2013-12-19 10:54:20 +0100";
layers = (
{
layerId = "F9064169-91CB-4D1F-AD97-42715B9ED178";
name = Light;
paths = (
{
closed = 1;
nodes = (
"100 683 LINE",
"65 429 LINE",
"150 429 LINE",
"185 683 LINE"
);
}
);
width = 175;
}
);
unicode = 0027;
},
{
color = 4;
glyphname = slash;
lastChange = "2013-12-19 10:54:20 +0100";
layers = (
{
layerId = "F9064169-91CB-4D1F-AD97-42715B9ED178";
name = Light;
paths = (
{
closed = 1;
nodes = (
"250 683 LINE",
"-50 0 LINE",
"35 0 LINE",
"335 683 LINE"
);
}
);
width = 275;
}
);
unicode = 002F;
},
{
color = 4;
glyphname = underscore;
lastChange = "2013-12-19 10:54:20 +0100";
layers = (
{
layerId = "F9064169-91CB-4D1F-AD97-42715B9ED178";
name = Light;
paths = (
{
closed = 1;
nodes = (
"8 -120 LINE",
"-2 -185 LINE",
"478 -185 LINE",
"488 -120 LINE"
);
}
);
width = 610;
}
);
leftKerningGroup = emdash;
rightKerningGroup = emdash;
unicode = 005F;
},
{
color = 4;
glyphname = braceleft;
lastChange = "2013-12-19 10:54:20 +0100";
layers = (
{
background = {
paths = (
{
closed = 1;
nodes = (
"194 799 OFFCURVE",
"162 769 OFFCURVE",
"141 616 CURVE SMOOTH",
"118 449 LINE SMOOTH",
"109 387 OFFCURVE",
"89 369 OFFCURVE",
"41 369 CURVE SMOOTH",
"16 369 LINE",
"7 299 LINE",
"32 299 LINE SMOOTH",
"80 299 OFFCURVE",
"94 280 OFFCURVE",
"85 219 CURVE SMOOTH",
"63 61 LINE SMOOTH",
"42 -86 OFFCURVE",
"67 -119 OFFCURVE",
"209 -119 CURVE",
"219 -49 LINE",
"145 -49 OFFCURVE",
"135 -35 OFFCURVE",
"145 40 CURVE SMOOTH",
"170 219 LINE SMOOTH",
"180 287 OFFCURVE",
"167 320 OFFCURVE",
"128 334 CURVE",
"170 347 OFFCURVE",
"193 381 OFFCURVE",
"203 449 CURVE SMOOTH",
"229 635 LINE SMOOTH",
"240 715 OFFCURVE",
"254 720 OFFCURVE",
"326 709 CURVE",
"336 781 LINE"
);
}
);
};
layerId = "F9064169-91CB-4D1F-AD97-42715B9ED178";
name = Light;
paths = (
{
closed = 1;
nodes = (
"191 767 OFFCURVE",
"161 737 OFFCURVE",
"138 584 CURVE SMOOTH",
"118 449 LINE SMOOTH",
"109 387 OFFCURVE",
"89 369 OFFCURVE",
"41 369 CURVE SMOOTH",
"16 369 LINE",
"7 299 LINE",
"32 299 LINE SMOOTH",
"80 299 OFFCURVE",
"94 280 OFFCURVE",
"85 219 CURVE SMOOTH",
"66 88 LINE SMOOTH",
"45 -59 OFFCURVE",
"70 -92 OFFCURVE",
"212 -92 CURVE",
"222 -22 LINE",
"148 -22 OFFCURVE",
"137 -8 OFFCURVE",
"148 67 CURVE SMOOTH",
"170 219 LINE SMOOTH",
"180 287 OFFCURVE",
"167 320 OFFCURVE",
"128 334 CURVE",
"170 347 OFFCURVE",
"193 381 OFFCURVE",
"203 449 CURVE SMOOTH",
"226 603 LINE SMOOTH",
"238 683 OFFCURVE",
"251 688 OFFCURVE",
"323 677 CURVE",
"333 749 LINE"
);
}
);
width = 256;
}
);
unicode = 007B;
},
{
color = 4;
glyphname = braceright;
lastChange = "2013-12-19 10:54:20 +0100";
layers = (
{
background = {
paths = (
{
closed = 1;
nodes = (
"50 717 LINE",
"124 717 OFFCURVE",
"134 703 OFFCURVE",
"124 628 CURVE SMOOTH",
"99 449 LINE SMOOTH",
"89 381 OFFCURVE",
"102 348 OFFCURVE",
"141 334 CURVE",
"99 321 OFFCURVE",
"76 287 OFFCURVE",
"66 219 CURVE SMOOTH",
"40 33 LINE SMOOTH",
"29 -47 OFFCURVE",
"15 -52 OFFCURVE",
"-57 -41 CURVE",
"-67 -113 LINE",
"75 -131 OFFCURVE",
"107 -101 OFFCURVE",
"128 52 CURVE SMOOTH",
"151 219 LINE SMOOTH",
"160 281 OFFCURVE",
"180 299 OFFCURVE",
"228 299 CURVE SMOOTH",
"253 299 LINE",
"262 369 LINE",
"237 369 LINE SMOOTH",
"189 369 OFFCURVE",
"175 388 OFFCURVE",
"184 449 CURVE",
"206 607 LINE",
"227 754 OFFCURVE",
"202 787 OFFCURVE",
"60 787 CURVE"
);
}
);
};
layerId = "F9064169-91CB-4D1F-AD97-42715B9ED178";
name = Light;
paths = (
{
closed = 1;
nodes = (
"45 677 LINE",
"119 677 OFFCURVE",
"130 663 OFFCURVE",
"119 588 CURVE SMOOTH",
"98 449 LINE SMOOTH",
"88 381 OFFCURVE",
"101 348 OFFCURVE",
"140 334 CURVE",
"98 321 OFFCURVE",
"74 287 OFFCURVE",
"65 219 CURVE SMOOTH",
"43 52 LINE SMOOTH",
"32 -28 OFFCURVE",
"18 -33 OFFCURVE",
"-54 -22 CURVE",
"-64 -94 LINE",
"78 -112 OFFCURVE",
"111 -82 OFFCURVE",
"131 71 CURVE SMOOTH",
"150 219 LINE SMOOTH",
"158 281 OFFCURVE",
"179 299 OFFCURVE",
"227 299 CURVE SMOOTH",
"252 299 LINE",
"261 369 LINE",
"236 369 LINE SMOOTH",
"188 369 OFFCURVE",
"174 388 OFFCURVE",
"183 449 CURVE SMOOTH",
"201 567 LINE SMOOTH",
"223 714 OFFCURVE",
"197 747 OFFCURVE",
"55 747 CURVE"
);
}
);
width = 256;
}
);
unicode = 007D;
},
{
color = 4;
glyphname = bracketleft;
lastChange = "2013-12-19 10:54:20 +0100";
layers = (
{
background = {
paths = (
{
closed = 1;
nodes = (
"140 784 LINE",
"13 -116 LINE",
"218 -116 LINE",
"228 -46 LINE",
"108 -46 LINE",
"215 714 LINE",
"335 714 LINE",
"345 784 LINE"
);
}
);
};
layerId = "F9064169-91CB-4D1F-AD97-42715B9ED178";
name = Light;
paths = (
{
closed = 1;
nodes = (
"135 747 LINE",
"16 -92 LINE",
"221 -92 LINE",
"231 -22 LINE",
"111 -22 LINE",
"210 677 LINE",
"330 677 LINE",
"340 747 LINE"
);
}
);
width = 260;
}
);
unicode = 005B;
},
{
color = 4;
glyphname = bracketright;
lastChange = "2013-12-19 10:54:20 +0100";
layers = (
{
background = {
paths = (
{
closed = 1;
nodes = (
"55 784 LINE",
"45 714 LINE",
"165 714 LINE",
"58 -46 LINE",
"-61 -46 LINE",
"-71 -116 LINE",
"133 -116 LINE",
"260 784 LINE"
);
}
);
};
layerId = "F9064169-91CB-4D1F-AD97-42715B9ED178";
name = Light;
paths = (
{
closed = 1;
nodes = (
"50 747 LINE",
"40 677 LINE",
"160 677 LINE",
"61 -22 LINE",
"-58 -22 LINE",
"-68 -92 LINE",
"136 -92 LINE",
"255 747 LINE"
);
}
);
width = 260;
}
);
unicode = 005D;
},
{
color = 4;
glyphname = parenleft;
lastChange = "2013-12-19 10:54:20 +0100";
layers = (
{
background = {
paths = (
{
closed = 1;
nodes = (
"171 799 OFFCURVE",
"138 769 OFFCURVE",
"117 622 CURVE SMOOTH",
"39 65 LINE SMOOTH",
"18 -82 OFFCURVE",
"42 -119 OFFCURVE",
"184 -119 CURVE",
"194 -47 LINE",
"117 -44 OFFCURVE",
"111 -28 OFFCURVE",
"121 45 CURVE SMOOTH",
"206 651 LINE SMOOTH",
"214 709 OFFCURVE",
"229 720 OFFCURVE",
"301 709 CURVE",
"311 781 LINE"
);
}
);
};
layerId = "F9064169-91CB-4D1F-AD97-42715B9ED178";
name = Light;
paths = (
{
closed = 1;
nodes = (
"168 767 OFFCURVE",
"135 737 OFFCURVE",
"114 590 CURVE SMOOTH",
"42 90 LINE SMOOTH",
"21 -57 OFFCURVE",
"45 -94 OFFCURVE",
"187 -94 CURVE",
"197 -22 LINE",
"120 -19 OFFCURVE",
"114 -3 OFFCURVE",
"124 70 CURVE SMOOTH",
"203 619 LINE SMOOTH",
"211 677 OFFCURVE",
"226 688 OFFCURVE",
"298 677 CURVE",
"308 749 LINE"
);
}
);
width = 231;
}
);
unicode = 0028;
},
{
color = 4;
glyphname = parenright;
lastChange = "2013-12-19 10:54:20 +0100";
layers = (
{
background = {
paths = (
{
closed = 1;
nodes = (
"50 716 LINE",
"127 713 OFFCURVE",
"133 697 OFFCURVE",
"123 624 CURVE SMOOTH",
"38 18 LINE SMOOTH",
"30 -40 OFFCURVE",
"15 -51 OFFCURVE",
"-57 -40 CURVE",
"-67 -112 LINE",
"73 -130 OFFCURVE",
"106 -100 OFFCURVE",
"127 47 CURVE",
"205 604 LINE",
"226 751 OFFCURVE",
"202 788 OFFCURVE",
"60 788 CURVE"
);
}
);
};
layerId = "F9064169-91CB-4D1F-AD97-42715B9ED178";
name = Light;
paths = (
{
closed = 1;
nodes = (
"45 677 LINE",
"122 674 OFFCURVE",
"128 658 OFFCURVE",
"118 585 CURVE SMOOTH",
"40 36 LINE SMOOTH",
"32 -22 OFFCURVE",
"17 -33 OFFCURVE",
"-55 -22 CURVE",
"-65 -94 LINE",
"75 -112 OFFCURVE",
"108 -82 OFFCURVE",
"129 65 CURVE",
"200 565 LINE",
"221 712 OFFCURVE",
"197 749 OFFCURVE",
"55 749 CURVE"
);
}
);
width = 231;
}
);
unicode = 0029;
},
{
color = 4;
glyphname = emdash;
lastChange = "2013-12-19 10:54:20 +0100";
layers = (
{
layerId = "F9064169-91CB-4D1F-AD97-42715B9ED178";
name = Light;
paths = (
{
closed = 1;
nodes = (
"71 328 LINE",
"61 263 LINE",
"641 263 LINE",
"651 328 LINE"
);
}
);
width = 710;
}
);
leftKerningGroup = emdash;
rightKerningGroup = emdash;
unicode = 2014;
},
{
color = 4;
glyphname = endash;
lastChange = "2013-12-19 10:54:20 +0100";
layers = (
{
layerId = "F9064169-91CB-4D1F-AD97-42715B9ED178";
name = Light;
paths = (
{
closed = 1;
nodes = (
"71 328 LINE",
"61 263 LINE",
"541 263 LINE",
"551 328 LINE"
);
}
);
width = 610;
}
);
leftKerningGroup = emdash;
rightKerningGroup = emdash;
unicode = 2013;
},
{
color = 4;
glyphname = hyphen;
lastChange = "2013-12-19 10:54:20 +0100";
layers = (
{
layerId = "F9064169-91CB-4D1F-AD97-42715B9ED178";
name = Light;
paths = (
{
closed = 1;
nodes = (
"71 328 LINE",
"61 263 LINE",
"281 263 LINE",
"291 328 LINE"
);
}
);
width = 350;
}
);
leftKerningGroup = emdash;
rightKerningGroup = emdash;
unicode = 002D;
},
{
color = 4;
glyphname = guillemotleft;
lastChange = "2013-12-19 11:08:39 +0100";
layers = (
{
layerId = "F9064169-91CB-4D1F-AD97-42715B9ED178";
name = Light;
paths = (
{
closed = 1;
nodes = (
"193 438 LINE",
"69 268 LINE",
"145 98 LINE",
"233 98 LINE",
"164 268 LINE",
"281 438 LINE"
);
},
{
closed = 1;
nodes = (
"363 438 LINE",
"239 268 LINE",
"315 98 LINE",
"403 98 LINE",
"334 268 LINE",
"451 438 LINE"
);
}
);
width = 488;
}
);
unicode = 00AB;
},
{
color = 4;
glyphname = guillemotright;
lastChange = "2013-12-19 11:08:49 +0100";
layers = (
{
layerId = "F9064169-91CB-4D1F-AD97-42715B9ED178";
name = Light;
paths = (
{
closed = 1;
nodes = (
"263 438 LINE",
"332 268 LINE",
"215 98 LINE",
"303 98 LINE",
"427 268 LINE",
"351 438 LINE"
);
},
{
closed = 1;
nodes = (
"93 438 LINE",
"162 268 LINE",
"45 98 LINE",
"133 98 LINE",
"257 268 LINE",
"181 438 LINE"
);
}
);
width = 488;
}
);
unicode = 00BB;
},
{
color = 4;
glyphname = guilsinglleft;
lastChange = "2013-12-19 10:54:20 +0100";
layers = (
{
layerId = "F9064169-91CB-4D1F-AD97-42715B9ED178";
name = Light;
paths = (
{
closed = 1;
nodes = (
"193 438 LINE",
"69 268 LINE",
"145 98 LINE",
"233 98 LINE",
"164 268 LINE",
"281 438 LINE"
);
}
);
width = 318;
}
);
leftKerningGroup = guillemetleft;
rightKerningGroup = guillemetleft;
unicode = 2039;
},
{
color = 4;
glyphname = guilsinglright;
lastChange = "2013-12-19 10:54:20 +0100";
layers = (
{
layerId = "F9064169-91CB-4D1F-AD97-42715B9ED178";
name = Light;
paths = (
{
closed = 1;
nodes = (
"93 438 LINE",
"162 268 LINE",
"45 98 LINE",
"133 98 LINE",
"257 268 LINE",
"181 438 LINE"
);
}
);
width = 318;
}
);
leftKerningGroup = guillemetright;
rightKerningGroup = guillemetright;
unicode = 203A;
},
{
color = 4;
glyphname = quotedblbase;
lastChange = "2013-12-19 10:54:20 +0100";
layers = (
{
layerId = "F9064169-91CB-4D1F-AD97-42715B9ED178";
name = Light;
paths = (
{
closed = 1;
nodes = (
"189 105 OFFCURVE",
"170 95 OFFCURVE",
"166 66 CURVE SMOOTH",
"162 39 LINE SMOOTH",
"159 16 OFFCURVE",
"170 -3 OFFCURVE",
"190 -9 CURVE",
"153 -108 LINE",
"212 -108 LINE",
"255 -20 LINE SMOOTH",
"263 -4 OFFCURVE",
"266 7 OFFCURVE",
"269 26 CURVE",
"273 56 LINE",
"277 85 OFFCURVE",
"258 105 OFFCURVE",
"223 105 CURVE SMOOTH"
);
},
{
closed = 1;
nodes = (
"47 105 OFFCURVE",
"28 95 OFFCURVE",
"24 66 CURVE SMOOTH",
"20 39 LINE SMOOTH",
"17 16 OFFCURVE",
"28 -3 OFFCURVE",
"48 -9 CURVE",
"11 -108 LINE",
"70 -108 LINE",
"113 -20 LINE SMOOTH",
"121 -4 OFFCURVE",
"124 7 OFFCURVE",
"127 26 CURVE",
"131 56 LINE",
"135 85 OFFCURVE",
"116 105 OFFCURVE",
"81 105 CURVE SMOOTH"
);
}
);
width = 362;
}
);
leftKerningGroup = period;
rightKerningGroup = period;
unicode = 201E;
},
{
color = 4;
glyphname = quotedblleft;
lastChange = "2013-12-19 10:54:20 +0100";
layers = (
{
layerId = "F9064169-91CB-4D1F-AD97-42715B9ED178";
name = Light;
paths = (
{
closed = 1;
nodes = (
"293 695 LINE",
"250 607 LINE SMOOTH",
"242 591 OFFCURVE",
"239 580 OFFCURVE",
"236 561 CURVE SMOOTH",
"232 531 LINE SMOOTH",
"228 502 OFFCURVE",
"247 482 OFFCURVE",
"282 482 CURVE SMOOTH",
"316 482 OFFCURVE",
"335 492 OFFCURVE",
"339 521 CURVE SMOOTH",
"343 548 LINE SMOOTH",
"346 571 OFFCURVE",
"335 590 OFFCURVE",
"315 596 CURVE",
"352 695 LINE"
);
},
{
closed = 1;
nodes = (
"151 695 LINE",
"108 607 LINE SMOOTH",
"100 591 OFFCURVE",
"97 580 OFFCURVE",
"94 561 CURVE SMOOTH",
"90 531 LINE SMOOTH",
"86 502 OFFCURVE",
"105 482 OFFCURVE",
"140 482 CURVE SMOOTH",
"174 482 OFFCURVE",
"193 492 OFFCURVE",
"197 521 CURVE SMOOTH",
"201 548 LINE SMOOTH",
"204 571 OFFCURVE",
"193 590 OFFCURVE",
"173 596 CURVE",
"210 695 LINE"
);
}
);
width = 362;
}
);
unicode = 201C;
},
{
color = 4;
glyphname = quotedblright;
lastChange = "2013-12-19 10:54:20 +0100";
layers = (
{
layerId = "F9064169-91CB-4D1F-AD97-42715B9ED178";
name = Light;
paths = (
{
closed = 1;
nodes = (
"273 695 OFFCURVE",
"254 685 OFFCURVE",
"250 656 CURVE SMOOTH",
"246 629 LINE SMOOTH",
"243 606 OFFCURVE",
"254 587 OFFCURVE",
"274 581 CURVE",
"237 482 LINE",
"296 482 LINE",
"339 570 LINE SMOOTH",
"347 586 OFFCURVE",
"350 597 OFFCURVE",
"353 616 CURVE",
"357 646 LINE",
"361 675 OFFCURVE",
"342 695 OFFCURVE",
"307 695 CURVE SMOOTH"
);
},
{
closed = 1;
nodes = (
"131 695 OFFCURVE",
"112 685 OFFCURVE",
"108 656 CURVE SMOOTH",
"104 629 LINE SMOOTH",
"101 606 OFFCURVE",
"112 587 OFFCURVE",
"132 581 CURVE",
"95 482 LINE",
"154 482 LINE",
"197 570 LINE SMOOTH",
"205 586 OFFCURVE",
"208 597 OFFCURVE",
"211 616 CURVE",
"215 646 LINE",
"219 675 OFFCURVE",
"200 695 OFFCURVE",
"165 695 CURVE SMOOTH"
);
}
);
width = 362;
}
);
leftKerningGroup = quotedblright;
rightKerningGroup = quotedblright;
unicode = 201D;
},
{
color = 4;
glyphname = quoteleft;
lastChange = "2013-12-19 10:54:20 +0100";
layers = (
{
layerId = "F9064169-91CB-4D1F-AD97-42715B9ED178";
name = Light;
paths = (
{
closed = 1;
nodes = (
"151 695 LINE",
"108 607 LINE SMOOTH",
"100 591 OFFCURVE",
"97 580 OFFCURVE",
"94 561 CURVE SMOOTH",
"90 531 LINE SMOOTH",
"86 502 OFFCURVE",
"105 482 OFFCURVE",
"140 482 CURVE SMOOTH",
"174 482 OFFCURVE",
"193 492 OFFCURVE",
"197 521 CURVE SMOOTH",
"201 548 LINE SMOOTH",
"204 571 OFFCURVE",
"193 590 OFFCURVE",
"173 596 CURVE",
"210 695 LINE"
);
}
);
width = 217;
}
);
leftKerningGroup = quotedblleft;
rightKerningGroup = quotedblleft;
unicode = 2018;
},
{
color = 4;
glyphname = quoteright;
lastChange = "2013-12-19 10:54:20 +0100";
layers = (
{
layerId = "F9064169-91CB-4D1F-AD97-42715B9ED178";
name = Light;
paths = (
{
closed = 1;
nodes = (
"130 695 OFFCURVE",
"111 685 OFFCURVE",
"107 656 CURVE SMOOTH",
"103 629 LINE SMOOTH",
"100 606 OFFCURVE",
"111 587 OFFCURVE",
"131 581 CURVE",
"94 482 LINE",
"153 482 LINE",
"196 570 LINE SMOOTH",
"204 586 OFFCURVE",
"207 597 OFFCURVE",
"210 616 CURVE",
"214 646 LINE",
"218 675 OFFCURVE",
"199 695 OFFCURVE",
"164 695 CURVE SMOOTH"
);
}
);
width = 217;
}
);
unicode = 2019;
},
{
color = 4;
glyphname = quotesinglbase;
lastChange = "2013-12-19 10:54:20 +0100";
layers = (
{
layerId = "F9064169-91CB-4D1F-AD97-42715B9ED178";
name = Light;
paths = (
{
closed = 1;
nodes = (
"46 105 OFFCURVE",
"27 95 OFFCURVE",
"23 66 CURVE SMOOTH",
"19 39 LINE SMOOTH",
"16 16 OFFCURVE",
"27 -3 OFFCURVE",
"47 -9 CURVE",
"10 -108 LINE",
"69 -108 LINE",
"112 -20 LINE SMOOTH",
"120 -4 OFFCURVE",
"123 7 OFFCURVE",
"126 26 CURVE SMOOTH",
"130 56 LINE SMOOTH",
"134 85 OFFCURVE",
"115 105 OFFCURVE",
"80 105 CURVE SMOOTH"
);
}
);
width = 217;
}
);
leftKerningGroup = period;
rightKerningGroup = period;
unicode = 201A;
},
{
color = 4;
glyphname = florin;
lastChange = "2013-12-19 10:54:20 +0100";
layers = (
{
layerId = "F9064169-91CB-4D1F-AD97-42715B9ED178";
name = Light;
paths = (
{
closed = 1;
nodes = (
"184 613 OFFCURVE",
"128 565 OFFCURVE",
"113 457 CURVE SMOOTH",
"105 400 LINE",
"29 386 LINE",
"22 336 LINE",
"96 336 LINE",
"23 -185 LINE",
"109 -185 LINE",
"181 336 LINE",
"271 336 LINE",
"281 406 LINE",
"191 406 LINE",
"199 462 LINE SMOOTH",
"208 525 OFFCURVE",
"231 544 OFFCURVE",
"269 544 CURVE SMOOTH",
"290 544 OFFCURVE",
"318 539 OFFCURVE",
"343 532 CURVE",
"352 602 LINE",
"331 608 OFFCURVE",
"297 613 OFFCURVE",
"275 613 CURVE SMOOTH"
);
}
);
width = 313;
}
);
leftKerningGroup = f;
rightKerningGroup = f;
unicode = 0192;
},
{
color = 4;
glyphname = Euro;
lastChange = "2013-12-19 11:09:12 +0100";
layers = (
{
layerId = "F9064169-91CB-4D1F-AD97-42715B9ED178";
name = Light;
paths = (
{
closed = 1;
nodes = (
"194 617 OFFCURVE",
"131 558 OFFCURVE",
"110 416 CURVE SMOOTH",
"107 396 LINE",
"52 396 LINE",
"22 326 LINE",
"98 326 LINE",
"89 264 LINE",
"34 264 LINE",
"4 194 LINE",
"80 194 LINE",
"79 185 LINE",
"67 51 OFFCURVE",
"124 -12 OFFCURVE",
"246 -12 CURVE SMOOTH",
"291 -12 OFFCURVE",
"350 1 OFFCURVE",
"394 19 CURVE",
"402 99 LINE",
"346 77 OFFCURVE",
"305 66 OFFCURVE",
"259 66 CURVE SMOOTH",
"183 66 OFFCURVE",
"155 98 OFFCURVE",
"165 186 CURVE SMOOTH",
"166 194 LINE",
"333 194 LINE",
"363 264 LINE",
"175 264 LINE",
"183 326 LINE",
"351 326 LINE",
"381 396 LINE",
"193 396 LINE",
"196 419 LINE SMOOTH",
"207 505 OFFCURVE",
"243 543 OFFCURVE",
"315 543 CURVE SMOOTH",
"355 543 OFFCURVE",
"403 532 OFFCURVE",
"449 515 CURVE",
"463 593 LINE",
"415 607 OFFCURVE",
"361 617 OFFCURVE",
"317 617 CURVE SMOOTH"
);
}
);
width = 454;
}
);
unicode = 20AC;
},
{
color = 4;
glyphname = cent;
lastChange = "2013-12-19 10:54:20 +0100";
layers = (
{
components = (
{
disableAlignment = 1;
name = c;
transform = "{1, 0, 0, 1, -5, 0}";
}
);
layerId = "F9064169-91CB-4D1F-AD97-42715B9ED178";
name = Light;
paths = (
{
closed = 1;
nodes = (
"226 576 LINE",
"207 439 LINE",
"282 439 LINE",
"301 576 LINE"
);
},
{
closed = 1;
nodes = (
"152 49 LINE",
"133 -88 LINE",
"208 -88 LINE",
"227 49 LINE"
);
}
);
width = 390;
}
);
unicode = 00A2;
},
{
color = 4;
glyphname = currency;
lastChange = "2013-12-19 10:54:20 +0100";
layers = (
{
layerId = "F9064169-91CB-4D1F-AD97-42715B9ED178";
name = Light;
paths = (
{
closed = 1;
nodes = (
"363 466 LINE",
"338 484 OFFCURVE",
"304 494 OFFCURVE",
"262 494 CURVE SMOOTH",
"221 494 OFFCURVE",
"186 485 OFFCURVE",
"155 468 CURVE",
"109 523 LINE",
"45 467 LINE",
"95 410 LINE",
"78 384 OFFCURVE",
"69 358 OFFCURVE",
"64 323 CURVE SMOOTH",
"61 303 LINE SMOOTH",
"56 265 OFFCURVE",
"60 237 OFFCURVE",
"71 210 CURVE",
"0 149 LINE",
"49 93 LINE",
"117 154 LINE",
"142 139 OFFCURVE",
"173 132 OFFCURVE",
"211 132 CURVE SMOOTH",
"250 132 OFFCURVE",
"284 140 OFFCURVE",
"313 156 CURVE",
"367 93 LINE",
"430 149 LINE",
"374 213 LINE",
"392 240 OFFCURVE",
"403 266 OFFCURVE",
"408 303 CURVE SMOOTH",
"411 323 LINE SMOOTH",
"416 357 OFFCURVE",
"414 382 OFFCURVE",
"406 407 CURVE",
"475 467 LINE",
"427 523 LINE"
);
},
{
closed = 1;
nodes = (
"319 421 OFFCURVE",
"337 378 OFFCURVE",
"329 323 CURVE SMOOTH",
"326 303 LINE SMOOTH",
"318 247 OFFCURVE",
"287 204 OFFCURVE",
"221 204 CURVE SMOOTH",
"154 204 OFFCURVE",
"135 247 OFFCURVE",
"143 303 CURVE SMOOTH",
"146 323 LINE SMOOTH",
"154 378 OFFCURVE",
"186 421 OFFCURVE",
"252 421 CURVE SMOOTH"
);
}
);
width = 470;
}
);
unicode = 00A4;
},
{
color = 4;
glyphname = dollar;
lastChange = "2013-12-19 10:54:20 +0100";
layers = (
{
layerId = "F9064169-91CB-4D1F-AD97-42715B9ED178";
name = Light;
paths = (
{
closed = 1;
nodes = (
"251 695 LINE",
"240 612 LINE",
"128 606 OFFCURVE",
"78 559 OFFCURVE",
"64 474 CURVE SMOOTH",
"63 468 LINE SMOOTH",
"47 371 OFFCURVE",
"75 307 OFFCURVE",
"179 270 CURVE SMOOTH",
"235 250 LINE SMOOTH",
"295 229 OFFCURVE",
"317 198 OFFCURVE",
"311 153 CURVE SMOOTH",
"309 138 LINE SMOOTH",
"302 87 OFFCURVE",
"271 61 OFFCURVE",
"182 61 CURVE SMOOTH",
"174 61 OFFCURVE",
"168 61 OFFCURVE",
"160 62 CURVE",
"124 68 OFFCURVE",
"81 81 OFFCURVE",
"42 97 CURVE",
"31 19 LINE",
"65 5 OFFCURVE",
"112 -7 OFFCURVE",
"152 -11 CURVE",
"140 -94 LINE",
"215 -94 LINE",
"227 -10 LINE",
"341 1 OFFCURVE",
"383 52 OFFCURVE",
"395 135 CURVE SMOOTH",
"396 142 LINE SMOOTH",
"409 228 OFFCURVE",
"373 291 OFFCURVE",
"272 327 CURVE SMOOTH",
"212 348 LINE SMOOTH",
"159 366 OFFCURVE",
"139 401 OFFCURVE",
"148 457 CURVE SMOOTH",
"149 463 LINE SMOOTH",
"157 511 OFFCURVE",
"190 540 OFFCURVE",
"262 540 CURVE SMOOTH",
"269 540 OFFCURVE",
"283 540 OFFCURVE",
"292 539 CURVE",
"326 532 OFFCURVE",
"366 521 OFFCURVE",
"404 509 CURVE",
"417 585 LINE",
"386 597 OFFCURVE",
"350 605 OFFCURVE",
"314 610 CURVE",
"326 695 LINE"
);
}
);
width = 441;
}
);
unicode = 0024;
},
{
color = 4;
glyphname = sterling;
lastChange = "2013-12-19 10:54:20 +0100";
layers = (
{
layerId = "F9064169-91CB-4D1F-AD97-42715B9ED178";
name = Light;
paths = (
{
closed = 1;
nodes = (
"175 613 OFFCURVE",
"124 566 OFFCURVE",
"109 460 CURVE SMOOTH",
"97 375 LINE",
"27 375 LINE",
"17 305 LINE",
"87 305 LINE",
"69 176 LINE SMOOTH",
"63 131 OFFCURVE",
"46 94 OFFCURVE",
"13 60 CURVE",
"5 0 LINE",
"352 0 LINE",
"362 74 LINE",
"99 74 LINE",
"134 101 OFFCURVE",
"148 130 OFFCURVE",
"158 204 CURVE SMOOTH",
"172 305 LINE",
"267 305 LINE",
"277 375 LINE",
"182 375 LINE",
"194 465 LINE SMOOTH",
"202 522 OFFCURVE",
"227 543 OFFCURVE",
"279 543 CURVE SMOOTH",
"310 543 OFFCURVE",
"353 532 OFFCURVE",
"381 521 CURVE",
"391 593 LINE",
"363 603 OFFCURVE",
"308 613 OFFCURVE",
"277 613 CURVE SMOOTH"
);
}
);
width = 397;
}
);
unicode = 00A3;
},
{
color = 4;
glyphname = yen;
lastChange = "2013-12-19 10:54:20 +0100";
layers = (
{
layerId = "F9064169-91CB-4D1F-AD97-42715B9ED178";
name = Light;
paths = (
{
closed = 1;
nodes = (
"404 601 LINE",
"348 494 OFFCURVE",
"286 387 OFFCURVE",
"221 280 CURVE",
"195 387 OFFCURVE",
"166 493 OFFCURVE",
"130 601 CURVE",
"39 601 LINE",
"157 259 LINE",
"86 259 LINE",
"76 189 LINE",
"170 189 LINE",
"164 148 LINE",
"70 148 LINE",
"60 78 LINE",
"155 78 LINE",
"145 0 LINE",
"230 0 LINE",
"240 78 LINE",
"334 78 LINE",
"344 148 LINE",
"249 148 LINE",
"255 189 LINE",
"350 189 LINE",
"359 259 LINE",
"287 259 LINE",
"504 601 LINE"
);
}
);
width = 455;
}
);
unicode = 00A5;
},
{
color = 4;
glyphname = approxequal;
lastChange = "2013-12-19 10:54:20 +0100";
layers = (
{
layerId = "F9064169-91CB-4D1F-AD97-42715B9ED178";
name = Light;
paths = (
{
closed = 1;
nodes = (
"392 431 OFFCURVE",
"328 406 OFFCURVE",
"291 406 CURVE SMOOTH",
"225 406 OFFCURVE",
"209 434 OFFCURVE",
"138 434 CURVE SMOOTH",
"80 434 OFFCURVE",
"35 406 OFFCURVE",
"35 406 CURVE",
"25 336 LINE",
"25 336 OFFCURVE",
"89 361 OFFCURVE",
"126 361 CURVE SMOOTH",
"194 361 OFFCURVE",
"207 333 OFFCURVE",
"278 333 CURVE SMOOTH",
"336 333 OFFCURVE",
"382 361 OFFCURVE",
"382 361 CURVE",
"392 431 LINE"
);
},
{
closed = 1;
nodes = (
"371 281 OFFCURVE",
"306 256 OFFCURVE",
"269 256 CURVE SMOOTH",
"203 256 OFFCURVE",
"188 284 OFFCURVE",
"117 284 CURVE SMOOTH",
"59 284 OFFCURVE",
"13 256 OFFCURVE",
"13 256 CURVE",
"4 186 LINE",
"4 186 OFFCURVE",
"68 211 OFFCURVE",
"105 211 CURVE SMOOTH",
"173 211 OFFCURVE",
"186 183 OFFCURVE",
"257 183 CURVE SMOOTH",
"315 183 OFFCURVE",
"361 211 OFFCURVE",
"361 211 CURVE",
"371 281 LINE"
);
}
);
width = 390;
}
);
leftKerningGroup = plus;
rightKerningGroup = plus;
unicode = 2248;
},
{
color = 4;
glyphname = asciitilde;
lastChange = "2013-12-19 10:54:20 +0100";
layers = (
{
layerId = "F9064169-91CB-4D1F-AD97-42715B9ED178";
name = Light;
paths = (
{
closed = 1;
nodes = (
"381 349 OFFCURVE",
"316 324 OFFCURVE",
"279 324 CURVE SMOOTH",
"213 324 OFFCURVE",
"198 352 OFFCURVE",
"127 352 CURVE SMOOTH",
"69 352 OFFCURVE",
"23 324 OFFCURVE",
"23 324 CURVE",
"13 254 LINE",
"13 254 OFFCURVE",
"78 279 OFFCURVE",
"115 279 CURVE SMOOTH",
"183 279 OFFCURVE",
"196 251 OFFCURVE",
"267 251 CURVE SMOOTH",
"325 251 OFFCURVE",
"371 279 OFFCURVE",
"371 279 CURVE",
"381 349 LINE"
);
}
);
width = 390;
}
);
leftKerningGroup = plus;
rightKerningGroup = plus;
unicode = 007E;
},
{
color = 4;
glyphname = divide;
lastChange = "2013-12-19 10:54:20 +0100";
layers = (
{
layerId = "F9064169-91CB-4D1F-AD97-42715B9ED178";
name = Light;
paths = (
{
closed = 1;
nodes = (
"25 335 LINE",
"15 265 LINE",
"369 265 LINE",
"379 335 LINE"
);
},
{
closed = 1;
nodes = (
"153 215 OFFCURVE",
"136 198 OFFCURVE",
"131 171 CURVE SMOOTH",
"128 154 LINE SMOOTH",
"124 128 OFFCURVE",
"138 111 OFFCURVE",
"170 111 CURVE SMOOTH",
"203 111 OFFCURVE",
"221 128 OFFCURVE",
"225 154 CURVE SMOOTH",
"228 171 LINE SMOOTH",
"233 198 OFFCURVE",
"218 215 OFFCURVE",
"185 215 CURVE SMOOTH"
);
},
{
closed = 1;
nodes = (
"191 489 OFFCURVE",
"173 472 OFFCURVE",
"169 445 CURVE SMOOTH",
"167 428 LINE SMOOTH",
"163 402 OFFCURVE",
"177 385 OFFCURVE",
"209 385 CURVE SMOOTH",
"242 385 OFFCURVE",
"260 402 OFFCURVE",
"264 428 CURVE SMOOTH",
"266 445 LINE SMOOTH",
"270 472 OFFCURVE",
"256 489 OFFCURVE",
"223 489 CURVE SMOOTH"
);
}
);
width = 390;
}
);
leftKerningGroup = plus;
rightKerningGroup = plus;
unicode = 00F7;
},
{
color = 4;
glyphname = equal;
lastChange = "2013-12-19 10:54:20 +0100";
layers = (
{
layerId = "F9064169-91CB-4D1F-AD97-42715B9ED178";
name = Light;
paths = (
{
closed = 1;
nodes = (
"37 421 LINE",
"27 351 LINE",
"381 351 LINE",
"391 421 LINE"
);
},
{
closed = 1;
nodes = (
"13 250 LINE",
"3 180 LINE",
"357 180 LINE",
"367 250 LINE"
);
}
);
width = 390;
}
);
leftKerningGroup = plus;
rightKerningGroup = plus;
unicode = 003D;
},
{
color = 4;
glyphname = greater;
lastChange = "2013-12-19 10:54:20 +0100";
layers = (
{
layerId = "F9064169-91CB-4D1F-AD97-42715B9ED178";
name = Light;
paths = (
{
closed = 1;
nodes = (
"32 411 LINE",
"292 297 LINE",
"0 182 LINE",
"-12 99 LINE",
"371 259 LINE",
"381 334 LINE",
"44 494 LINE"
);
}
);
width = 390;
}
);
leftKerningGroup = plus;
rightKerningGroup = plus;
unicode = 003E;
},
{
color = 4;
glyphname = greaterequal;
lastChange = "2013-12-19 10:54:20 +0100";
layers = (
{
layerId = "F9064169-91CB-4D1F-AD97-42715B9ED178";
name = Light;
paths = (
{
closed = 1;
nodes = (
"32 411 LINE",
"292 297 LINE",
"0 182 LINE",
"-12 99 LINE",
"371 259 LINE",
"381 334 LINE",
"44 494 LINE"
);
},
{
closed = 1;
nodes = (
"-16 70 LINE",
"-25 0 LINE",
"335 0 LINE",
"344 70 LINE"
);
}
);
width = 390;
}
);
leftKerningGroup = plus;
rightKerningGroup = plus;
unicode = 2265;
},
{
color = 4;
glyphname = infinity;
lastChange = "2013-12-19 10:54:20 +0100";
layers = (
{
layerId = "F9064169-91CB-4D1F-AD97-42715B9ED178";
name = Light;
paths = (
{
closed = 1;
nodes = (
"336 432 OFFCURVE",
"303 412 OFFCURVE",
"277 383 CURVE",
"259 412 OFFCURVE",
"219 432 OFFCURVE",
"171 432 CURVE SMOOTH",
"74 432 OFFCURVE",
"22 386 OFFCURVE",
"15 306 CURVE SMOOTH",
"14 295 LINE SMOOTH",
"7 214 OFFCURVE",
"48 161 OFFCURVE",
"145 161 CURVE SMOOTH",
"193 161 OFFCURVE",
"226 181 OFFCURVE",
"252 210 CURVE",
"270 181 OFFCURVE",
"308 161 OFFCURVE",
"356 161 CURVE SMOOTH",
"453 161 OFFCURVE",
"501 207 OFFCURVE",
"512 287 CURVE",
"513 298 LINE SMOOTH",
"520 379 OFFCURVE",
"481 432 OFFCURVE",
"384 432 CURVE SMOOTH"
);
},
{
closed = 1;
nodes = (
"208 362 OFFCURVE",
"225 340 OFFCURVE",
"222 302 CURVE SMOOTH",
"221 291 LINE SMOOTH",
"218 253 OFFCURVE",
"196 231 OFFCURVE",
"152 231 CURVE SMOOTH",
"108 231 OFFCURVE",
"92 253 OFFCURVE",
"95 291 CURVE SMOOTH",
"96 302 LINE SMOOTH",
"99 340 OFFCURVE",
"120 362 OFFCURVE",
"164 362 CURVE SMOOTH"
);
},
{
closed = 1;
nodes = (
"419 362 OFFCURVE",
"436 340 OFFCURVE",
"433 302 CURVE SMOOTH",
"432 291 LINE SMOOTH",
"429 253 OFFCURVE",
"407 231 OFFCURVE",
"363 231 CURVE SMOOTH",
"319 231 OFFCURVE",
"303 253 OFFCURVE",
"306 291 CURVE SMOOTH",
"307 302 LINE SMOOTH",
"310 340 OFFCURVE",
"331 362 OFFCURVE",
"375 362 CURVE SMOOTH"
);
}
);
width = 517;
}
);
leftKerningGroup = plus;
rightKerningGroup = plus;
unicode = 221E;
},
{
color = 4;
glyphname = integral;
lastChange = "2013-12-19 10:54:20 +0100";
layers = (
{
layerId = "F9064169-91CB-4D1F-AD97-42715B9ED178";
name = Light;
paths = (
{
closed = 1;
nodes = (
"217 695 OFFCURVE",
"162 646 OFFCURVE",
"147 539 CURVE SMOOTH",
"67 -37 LINE SMOOTH",
"58 -105 OFFCURVE",
"38 -125 OFFCURVE",
"1 -125 CURVE SMOOTH",
"-21 -125 OFFCURVE",
"-48 -120 OFFCURVE",
"-71 -112 CURVE",
"-81 -183 LINE",
"-59 -190 OFFCURVE",
"-20 -197 OFFCURVE",
"7 -197 CURVE SMOOTH",
"93 -197 OFFCURVE",
"137 -148 OFFCURVE",
"153 -32 CURVE SMOOTH",
"233 544 LINE SMOOTH",
"242 606 OFFCURVE",
"265 626 OFFCURVE",
"304 626 CURVE SMOOTH",
"323 626 OFFCURVE",
"352 621 OFFCURVE",
"377 614 CURVE",
"386 684 LINE",
"365 690 OFFCURVE",
"331 695 OFFCURVE",
"309 695 CURVE SMOOTH"
);
}
);
width = 316;
}
);
unicode = 222B;
},
{
color = 4;
glyphname = less;
lastChange = "2013-12-19 10:54:20 +0100";
layers = (
{
layerId = "F9064169-91CB-4D1F-AD97-42715B9ED178";
name = Light;
paths = (
{
closed = 1;
nodes = (
"21 334 LINE",
"11 259 LINE",
"348 99 LINE",
"360 182 LINE",
"100 297 LINE",
"392 411 LINE",
"404 494 LINE"
);
}
);
width = 390;
}
);
leftKerningGroup = plus;
rightKerningGroup = plus;
unicode = 003C;
},
{
color = 4;
glyphname = lessequal;
lastChange = "2013-12-19 10:54:20 +0100";
layers = (
{
layerId = "F9064169-91CB-4D1F-AD97-42715B9ED178";
name = Light;
paths = (
{
closed = 1;
nodes = (
"21 334 LINE",
"11 259 LINE",
"348 99 LINE",
"360 182 LINE",
"100 297 LINE",
"392 411 LINE",
"404 494 LINE"
);
},
{
closed = 1;
nodes = (
"-16 70 LINE",
"-25 0 LINE",
"335 0 LINE",
"344 70 LINE"
);
}
);
width = 390;
}
);
leftKerningGroup = plus;
rightKerningGroup = plus;
unicode = 2264;
},
{
color = 4;
glyphname = logicalnot;
lastChange = "2013-12-19 10:54:20 +0100";
layers = (
{
layerId = "F9064169-91CB-4D1F-AD97-42715B9ED178";
name = Light;
paths = (
{
closed = 1;
nodes = (
"21 335 LINE",
"11 265 LINE",
"296 265 LINE",
"274 113 LINE",
"350 113 LINE",
"382 335 LINE"
);
}
);
width = 390;
}
);
leftKerningGroup = plus;
rightKerningGroup = plus;
unicode = 00AC;
},
{
color = 4;
glyphname = minus;
lastChange = "2013-12-19 10:54:20 +0100";
layers = (
{
layerId = "F9064169-91CB-4D1F-AD97-42715B9ED178";
name = Light;
paths = (
{
closed = 1;
nodes = (
"25 335 LINE",
"15 265 LINE",
"369 265 LINE",
"379 335 LINE"
);
}
);
width = 390;
}
);
leftKerningGroup = plus;
rightKerningGroup = plus;
unicode = 2212;
},
{
color = 4;
glyphname = multiply;
lastChange = "2013-12-19 10:54:20 +0100";
layers = (
{
layerId = "F9064169-91CB-4D1F-AD97-42715B9ED178";
name = Light;
paths = (
{
closed = 1;
nodes = (
"205 352 LINE",
"112 460 LINE",
"52 406 LINE",
"143 298 LINE",
"24 193 LINE",
"67 143 LINE",
"186 248 LINE",
"279 141 LINE",
"341 194 LINE",
"248 302 LINE",
"369 408 LINE",
"326 458 LINE"
);
}
);
width = 390;
}
);
unicode = 00D7;
},
{
color = 4;
glyphname = notequal;
lastChange = "2013-12-19 10:54:20 +0100";
layers = (
{
layerId = "F9064169-91CB-4D1F-AD97-42715B9ED178";
name = Light;
paths = (
{
closed = 1;
nodes = (
"300 484 LINE",
"251 421 LINE",
"37 421 LINE",
"27 351 LINE",
"198 351 LINE",
"121 250 LINE",
"13 250 LINE",
"3 180 LINE",
"67 180 LINE",
"18 115 LINE",
"94 115 LINE",
"143 180 LINE",
"357 180 LINE",
"367 250 LINE",
"197 250 LINE",
"274 351 LINE",
"381 351 LINE",
"391 421 LINE",
"327 421 LINE",
"376 484 LINE"
);
}
);
width = 390;
}
);
leftKerningGroup = plus;
rightKerningGroup = plus;
unicode = 2260;
},
{
color = 4;
glyphname = partialdiff;
lastChange = "2013-12-19 10:54:20 +0100";
layers = (
{
layerId = "F9064169-91CB-4D1F-AD97-42715B9ED178";
name = Light;
paths = (
{
closed = 1;
nodes = (
"143 631 LINE",
"275 631 OFFCURVE",
"352 543 OFFCURVE",
"330 386 CURVE SMOOTH",
"326 361 LINE",
"296 415 OFFCURVE",
"247 439 OFFCURVE",
"202 439 CURVE SMOOTH",
"120 439 OFFCURVE",
"70 393 OFFCURVE",
"55 282 CURVE SMOOTH",
"39 167 LINE SMOOTH",
"22 51 OFFCURVE",
"78 -12 OFFCURVE",
"199 -12 CURVE SMOOTH",
"313 -12 OFFCURVE",
"368 48 OFFCURVE",
"384 165 CURVE SMOOTH",
"408 335 LINE SMOOTH",
"441 571 OFFCURVE",
"349 695 OFFCURVE",
"152 695 CURVE"
);
},
{
closed = 1;
nodes = (
"249 363 OFFCURVE",
"290 336 OFFCURVE",
"315 281 CURVE",
"296 148 LINE SMOOTH",
"288 90 OFFCURVE",
"261 59 OFFCURVE",
"201 59 CURVE SMOOTH",
"144 59 OFFCURVE",
"112 91 OFFCURVE",
"120 152 CURVE SMOOTH",
"136 264 LINE SMOOTH",
"146 337 OFFCURVE",
"174 363 OFFCURVE",
"213 363 CURVE SMOOTH"
);
}
);
width = 461;
}
);
unicode = 2202;
},
{
color = 4;
glyphname = percent;
lastChange = "2013-12-19 10:54:20 +0100";
layers = (
{
layerId = "F9064169-91CB-4D1F-AD97-42715B9ED178";
name = Light;
paths = (
{
closed = 1;
nodes = (
"606 613 LINE",
"185 0 LINE",
"276 0 LINE",
"697 613 LINE"
);
},
{
closed = 1;
nodes = (
"140 625 OFFCURVE",
"88 578 OFFCURVE",
"71 476 CURVE SMOOTH",
"66 446 LINE SMOOTH",
"49 344 OFFCURVE",
"102 275 OFFCURVE",
"207 275 CURVE SMOOTH",
"309 275 OFFCURVE",
"367 327 OFFCURVE",
"381 431 CURVE",
"385 461 LINE SMOOTH",
"399 565 OFFCURVE",
"349 625 OFFCURVE",
"245 625 CURVE SMOOTH"
);
},
{
closed = 1;
nodes = (
"286 550 OFFCURVE",
"308 524 OFFCURVE",
"300 463 CURVE SMOOTH",
"296 433 LINE SMOOTH",
"288 374 OFFCURVE",
"263 350 OFFCURVE",
"215 350 CURVE SMOOTH",
"164 350 OFFCURVE",
"143 379 OFFCURVE",
"151 438 CURVE SMOOTH",
"155 468 LINE SMOOTH",
"163 526 OFFCURVE",
"189 550 OFFCURVE",
"237 550 CURVE SMOOTH"
);
},
{
closed = 1;
nodes = (
"571 338 OFFCURVE",
"519 291 OFFCURVE",
"502 189 CURVE SMOOTH",
"497 159 LINE SMOOTH",
"480 57 OFFCURVE",
"533 -12 OFFCURVE",
"638 -12 CURVE SMOOTH",
"740 -12 OFFCURVE",
"798 40 OFFCURVE",
"812 144 CURVE",
"816 174 LINE SMOOTH",
"830 278 OFFCURVE",
"780 338 OFFCURVE",
"676 338 CURVE SMOOTH"
);
},
{
closed = 1;
nodes = (
"717 263 OFFCURVE",
"739 237 OFFCURVE",
"731 176 CURVE SMOOTH",
"727 146 LINE SMOOTH",
"719 87 OFFCURVE",
"694 63 OFFCURVE",
"646 63 CURVE SMOOTH",
"595 63 OFFCURVE",
"574 92 OFFCURVE",
"582 151 CURVE SMOOTH",
"586 181 LINE SMOOTH",
"594 239 OFFCURVE",
"620 263 OFFCURVE",
"668 263 CURVE SMOOTH"
);
}
);
width = 860;
}
);
unicode = 0025;
},
{
color = 4;
glyphname = perthousand;
lastChange = "2013-12-19 10:54:20 +0100";
layers = (
{
layerId = "F9064169-91CB-4D1F-AD97-42715B9ED178";
name = Light;
paths = (
{
closed = 1;
nodes = (
"606 613 LINE",
"185 0 LINE",
"276 0 LINE",
"697 613 LINE"
);
},
{
closed = 1;
nodes = (
"140 625 OFFCURVE",
"88 578 OFFCURVE",
"71 476 CURVE SMOOTH",
"66 446 LINE SMOOTH",
"49 344 OFFCURVE",
"102 275 OFFCURVE",
"207 275 CURVE SMOOTH",
"309 275 OFFCURVE",
"367 327 OFFCURVE",
"381 431 CURVE",
"385 461 LINE SMOOTH",
"399 565 OFFCURVE",
"349 625 OFFCURVE",
"245 625 CURVE SMOOTH"
);
},
{
closed = 1;
nodes = (
"286 550 OFFCURVE",
"308 524 OFFCURVE",
"300 463 CURVE SMOOTH",
"296 433 LINE SMOOTH",
"288 374 OFFCURVE",
"263 350 OFFCURVE",
"215 350 CURVE SMOOTH",
"164 350 OFFCURVE",
"143 379 OFFCURVE",
"151 438 CURVE SMOOTH",
"155 468 LINE SMOOTH",
"163 526 OFFCURVE",
"189 550 OFFCURVE",
"237 550 CURVE SMOOTH"
);
},
{
closed = 1;
nodes = (
"571 338 OFFCURVE",
"519 291 OFFCURVE",
"502 189 CURVE SMOOTH",
"497 159 LINE SMOOTH",
"480 57 OFFCURVE",
"533 -12 OFFCURVE",
"638 -12 CURVE SMOOTH",
"740 -12 OFFCURVE",
"798 40 OFFCURVE",
"812 144 CURVE",
"816 174 LINE SMOOTH",
"830 278 OFFCURVE",
"780 338 OFFCURVE",
"676 338 CURVE SMOOTH"
);
},
{
closed = 1;
nodes = (
"717 263 OFFCURVE",
"739 237 OFFCURVE",
"731 176 CURVE SMOOTH",
"727 146 LINE SMOOTH",
"719 87 OFFCURVE",
"694 63 OFFCURVE",
"646 63 CURVE SMOOTH",
"595 63 OFFCURVE",
"574 92 OFFCURVE",
"582 151 CURVE SMOOTH",
"586 181 LINE SMOOTH",
"594 239 OFFCURVE",
"620 263 OFFCURVE",
"668 263 CURVE SMOOTH"
);
},
{
closed = 1;
nodes = (
"950 338 OFFCURVE",
"898 291 OFFCURVE",
"881 189 CURVE SMOOTH",
"876 159 LINE SMOOTH",
"859 57 OFFCURVE",
"912 -12 OFFCURVE",
"1017 -12 CURVE SMOOTH",
"1119 -12 OFFCURVE",
"1177 40 OFFCURVE",
"1191 144 CURVE",
"1195 174 LINE SMOOTH",
"1209 278 OFFCURVE",
"1159 338 OFFCURVE",
"1055 338 CURVE SMOOTH"
);
},
{
closed = 1;
nodes = (
"1096 263 OFFCURVE",
"1118 237 OFFCURVE",
"1110 176 CURVE SMOOTH",
"1106 146 LINE SMOOTH",
"1098 87 OFFCURVE",
"1073 63 OFFCURVE",
"1025 63 CURVE SMOOTH",
"974 63 OFFCURVE",
"953 92 OFFCURVE",
"961 151 CURVE SMOOTH",
"965 181 LINE SMOOTH",
"973 239 OFFCURVE",
"999 263 OFFCURVE",
"1047 263 CURVE SMOOTH"
);
}
);
width = 1240;
}
);
unicode = 2030;
},
{
color = 4;
glyphname = plus;
lastChange = "2013-12-19 10:54:20 +0100";
layers = (
{
layerId = "F9064169-91CB-4D1F-AD97-42715B9ED178";
name = Light;
paths = (
{
closed = 1;
nodes = (
"185 488 LINE",
"164 336 LINE",
"24 336 LINE",
"14 265 LINE",
"154 265 LINE",
"132 113 LINE",
"208 113 LINE",
"230 265 LINE",
"370 265 LINE",
"380 336 LINE",
"240 336 LINE",
"261 488 LINE"
);
}
);
width = 390;
}
);
leftKerningGroup = plus;
rightKerningGroup = plus;
unicode = 002B;
},
{
color = 4;
glyphname = plusminus;
lastChange = "2013-12-19 10:54:20 +0100";
layers = (
{
layerId = "F9064169-91CB-4D1F-AD97-42715B9ED178";
name = Light;
paths = (
{
closed = 1;
nodes = (
"185 488 LINE",
"164 336 LINE",
"24 336 LINE",
"14 265 LINE",
"154 265 LINE",
"132 113 LINE",
"208 113 LINE",
"230 265 LINE",
"370 265 LINE",
"380 336 LINE",
"240 336 LINE",
"261 488 LINE"
);
},
{
closed = 1;
nodes = (
"-15 70 LINE",
"-24 0 LINE",
"332 0 LINE",
"341 70 LINE"
);
}
);
width = 390;
}
);
leftKerningGroup = plus;
rightKerningGroup = plus;
unicode = 00B1;
},
{
color = 4;
glyphname = product;
lastChange = "2013-12-19 10:54:20 +0100";
layers = (
{
layerId = "F9064169-91CB-4D1F-AD97-42715B9ED178";
name = Light;
paths = (
{
closed = 1;
nodes = (
"40 655 LINE",
"29 575 LINE",
"118 575 LINE",
"26 -185 LINE",
"110 -185 LINE",
"203 575 LINE",
"438 575 LINE",
"345 -185 LINE",
"430 -185 LINE",
"523 575 LINE",
"613 575 LINE",
"624 655 LINE"
);
}
);
width = 575;
}
);
unicode = 220F;
},
{
color = 4;
glyphname = radical;
lastChange = "2013-12-19 10:54:20 +0100";
layers = (
{
layerId = "F9064169-91CB-4D1F-AD97-42715B9ED178";
name = Light;
paths = (
{
closed = 1;
nodes = (
"465 683 LINE",
"382 474 OFFCURVE",
"288 267 OFFCURVE",
"183 62 CURVE",
"170 204 OFFCURVE",
"154 346 OFFCURVE",
"133 488 CURVE",
"48 488 LINE",
"124 0 LINE",
"234 0 LINE",
"522 613 LINE",
"606 613 LINE",
"615 683 LINE"
);
}
);
width = 480;
}
);
unicode = 221A;
},
{
color = 4;
glyphname = summation;
lastChange = "2013-12-19 10:54:20 +0100";
layers = (
{
layerId = "F9064169-91CB-4D1F-AD97-42715B9ED178";
name = Light;
paths = (
{
closed = 1;
nodes = (
"48 655 LINE",
"39 588 LINE",
"205 238 LINE",
"-46 -118 LINE",
"-55 -185 LINE",
"333 -185 LINE",
"342 -108 LINE",
"59 -108 LINE",
"284 217 LINE",
"288 256 LINE",
"135 578 LINE",
"427 578 LINE",
"437 655 LINE"
);
}
);
width = 399;
}
);
unicode = 2211;
},
{
color = 4;
glyphname = uni00B5;
lastChange = "2013-12-19 11:10:23 +0100";
layers = (
{
layerId = "F9064169-91CB-4D1F-AD97-42715B9ED178";
name = Light;
paths = (
{
closed = 1;
nodes = (
"359 488 LINE",
"336 326 LINE SMOOTH",
"323 235 OFFCURVE",
"277 64 OFFCURVE",
"181 64 CURVE SMOOTH",
"142 64 OFFCURVE",
"124 90 OFFCURVE",
"137 175 CURVE SMOOTH",
"183 488 LINE",
"98 488 LINE",
"48 143 LINE",
"27 -2 OFFCURVE",
"7 -111 OFFCURVE",
"-12 -185 CURVE",
"72 -185 LINE",
"85 -138 OFFCURVE",
"102 -63 OFFCURVE",
"112 1 CURVE",
"125 -8 OFFCURVE",
"140 -12 OFFCURVE",
"157 -12 CURVE SMOOTH",
"229 -12 OFFCURVE",
"293 48 OFFCURVE",
"341 191 CURVE",
"344 192 LINE",
"346 190 LINE",
"300 28 LINE",
"296 0 LINE",
"376 0 LINE",
"445 488 LINE"
);
}
);
width = 480;
}
);
unicode = 00B5;
},
{
color = 4;
glyphname = uni2126;
lastChange = "2013-12-19 12:17:28 +0100";
layers = (
{
anchors = (
{
name = topleft;
position = "{99, 655}";
}
);
layerId = "F9064169-91CB-4D1F-AD97-42715B9ED178";
name = Light;
paths = (
{
closed = 1;
nodes = (
"170 667 OFFCURVE",
"106 599 OFFCURVE",
"89 457 CURVE SMOOTH",
"63 246 LINE SMOOTH",
"53 166 OFFCURVE",
"67 116 OFFCURVE",
"104 80 CURVE",
"38 80 LINE",
"30 0 LINE",
"230 0 LINE",
"236 77 LINE",
"227 77 LINE SMOOTH",
"173 77 OFFCURVE",
"138 126 OFFCURVE",
"147 216 CURVE SMOOTH",
"173 465 LINE SMOOTH",
"182 549 OFFCURVE",
"230 592 OFFCURVE",
"318 592 CURVE SMOOTH",
"401 592 OFFCURVE",
"451 545 OFFCURVE",
"441 455 CURVE SMOOTH",
"412 206 LINE SMOOTH",
"403 124 OFFCURVE",
"359 77 OFFCURVE",
"301 77 CURVE SMOOTH",
"292 77 LINE",
"286 0 LINE",
"486 0 LINE",
"493 80 LINE",
"428 80 LINE",
"473 121 OFFCURVE",
"490 163 OFFCURVE",
"499 236 CURVE SMOOTH",
"525 444 LINE SMOOTH",
"542 581 OFFCURVE",
"472 667 OFFCURVE",
"323 667 CURVE SMOOTH"
);
}
);
width = 576;
}
);
unicode = 2126;
},
{
color = 4;
glyphname = uni2206;
lastChange = "2013-12-19 11:15:12 +0100";
layers = (
{
layerId = "F9064169-91CB-4D1F-AD97-42715B9ED178";
name = Light;
paths = (
{
closed = 1;
nodes = (
"249 655 LINE",
"3 57 LINE",
"-5 0 LINE",
"469 0 LINE",
"474 57 LINE",
"350 655 LINE"
);
},
{
closed = 1;
nodes = (
"328 407 OFFCURVE",
"358 250 OFFCURVE",
"380 76 CURVE",
"93 76 LINE",
"168 247 OFFCURVE",
"234 417 OFFCURVE",
"289 577 CURVE"
);
}
);
width = 522;
}
);
unicode = 2206;
},
{
color = 4;
glyphname = uni2215;
lastChange = "2013-12-19 11:18:05 +0100";
layers = (
{
layerId = "F9064169-91CB-4D1F-AD97-42715B9ED178";
name = Light;
paths = (
{
closed = 1;
nodes = (
"250 683 LINE",
"-50 0 LINE",
"35 0 LINE",
"335 683 LINE"
);
}
);
width = 275;
}
);
unicode = 2215;
},
{
color = 4;
glyphname = uni2219;
lastChange = "2013-12-19 11:18:19 +0100";
layers = (
{
layerId = "F9064169-91CB-4D1F-AD97-42715B9ED178";
name = Light;
paths = (
{
closed = 1;
nodes = (
"78 335 OFFCURVE",
"59 320 OFFCURVE",
"54 285 CURVE SMOOTH",
"49 256 LINE SMOOTH",
"43 221 OFFCURVE",
"70 200 OFFCURVE",
"109 200 CURVE SMOOTH",
"151 200 OFFCURVE",
"168 213 OFFCURVE",
"174 249 CURVE SMOOTH",
"179 279 LINE SMOOTH",
"184 312 OFFCURVE",
"160 335 OFFCURVE",
"118 335 CURVE SMOOTH"
);
}
);
width = 235;
}
);
unicode = 2219;
},
{
color = 4;
glyphname = lozenge;
lastChange = "2013-12-19 10:54:20 +0100";
layers = (
{
layerId = "F9064169-91CB-4D1F-AD97-42715B9ED178";
name = Light;
paths = (
{
closed = 1;
nodes = (
"290 683 LINE",
"13 342 LINE",
"195 0 LINE",
"263 0 LINE",
"541 342 LINE",
"358 683 LINE"
);
},
{
closed = 1;
nodes = (
"439 342 LINE",
"241 90 LINE",
"115 342 LINE",
"312 593 LINE"
);
}
);
width = 538;
}
);
unicode = 25CA;
},
{
color = 4;
glyphname = ampersand;
lastChange = "2013-12-19 10:54:20 +0100";
layers = (
{
layerId = "F9064169-91CB-4D1F-AD97-42715B9ED178";
name = Light;
paths = (
{
closed = 1;
nodes = (
"176 667 OFFCURVE",
"108 607 OFFCURVE",
"96 522 CURVE SMOOTH",
"93 500 LINE SMOOTH",
"84 433 OFFCURVE",
"116 369 OFFCURVE",
"187 340 CURVE",
"92 319 OFFCURVE",
"38 265 OFFCURVE",
"26 198 CURVE SMOOTH",
"23 181 LINE SMOOTH",
"3 70 OFFCURVE",
"67 -12 OFFCURVE",
"221 -12 CURVE SMOOTH",
"285 -12 OFFCURVE",
"331 -2 OFFCURVE",
"419 23 CURVE",
"457 298 LINE",
"531 298 LINE",
"541 367 LINE",
"467 367 LINE",
"477 440 LINE",
"395 440 LINE",
"385 367 LINE",
"294 367 LINE SMOOTH",
"212 367 OFFCURVE",
"170 417 OFFCURVE",
"176 483 CURVE SMOOTH",
"178 505 LINE SMOOTH",
"183 564 OFFCURVE",
"221 597 OFFCURVE",
"288 597 CURVE SMOOTH",
"330 597 OFFCURVE",
"375 587 OFFCURVE",
"408 577 CURVE",
"420 651 LINE",
"377 660 OFFCURVE",
"331 667 OFFCURVE",
"294 667 CURVE SMOOTH"
);
},
{
closed = 1;
nodes = (
"344 75 LINE",
"309 66 OFFCURVE",
"272 61 OFFCURVE",
"238 61 CURVE SMOOTH",
"142 61 OFFCURVE",
"99 107 OFFCURVE",
"108 172 CURVE SMOOTH",
"110 186 LINE SMOOTH",
"120 254 OFFCURVE",
"178 298 OFFCURVE",
"278 298 CURVE SMOOTH",
"375 298 LINE"
);
}
);
width = 540;
}
);
unicode = 0026;
},
{
color = 4;
glyphname = asciicircum;
lastChange = "2013-12-19 10:54:20 +0100";
layers = (
{
layerId = "F9064169-91CB-4D1F-AD97-42715B9ED178";
name = Light;
paths = (
{
closed = 1;
nodes = (
"265 683 LINE",
"81 403 LINE",
"167 403 LINE",
"294 604 LINE",
"366 403 LINE",
"446 403 LINE",
"340 683 LINE"
);
}
);
width = 495;
}
);
unicode = 005E;
},
{
color = 4;
glyphname = at;
lastChange = "2013-12-19 10:54:20 +0100";
layers = (
{
layerId = "F9064169-91CB-4D1F-AD97-42715B9ED178";
name = Light;
paths = (
{
closed = 1;
nodes = (
"184 695 OFFCURVE",
"62 527 OFFCURVE",
"62 288 CURVE SMOOTH",
"62 188 LINE SMOOTH",
"62 -54 OFFCURVE",
"187 -185 OFFCURVE",
"457 -185 CURVE SMOOTH",
"592 -185 LINE",
"592 -109 LINE",
"457 -109 LINE SMOOTH",
"251 -109 OFFCURVE",
"147 -6 OFFCURVE",
"147 188 CURVE SMOOTH",
"147 288 LINE SMOOTH",
"147 501 OFFCURVE",
"262 619 OFFCURVE",
"457 619 CURVE SMOOTH",
"677 619 OFFCURVE",
"787 515 OFFCURVE",
"787 318 CURVE SMOOTH",
"787 268 LINE SMOOTH",
"787 164 OFFCURVE",
"730 90 OFFCURVE",
"660 90 CURVE SMOOTH",
"615 90 OFFCURVE",
"607 118 OFFCURVE",
"613 165 CURVE SMOOTH",
"654 475 LINE",
"574 475 LINE",
"567 425 LINE",
"535 463 OFFCURVE",
"493 487 OFFCURVE",
"447 487 CURVE SMOOTH",
"368 487 OFFCURVE",
"300 430 OFFCURVE",
"285 312 CURVE SMOOTH",
"269 192 LINE SMOOTH",
"254 76 OFFCURVE",
"301 16 OFFCURVE",
"376 16 CURVE SMOOTH",
"448 16 OFFCURVE",
"512 76 OFFCURVE",
"560 219 CURVE",
"563 220 LINE",
"565 218 LINE",
"533 111 LINE",
"538 52 OFFCURVE",
"584 15 OFFCURVE",
"659 15 CURVE SMOOTH",
"792 15 OFFCURVE",
"872 121 OFFCURVE",
"872 268 CURVE SMOOTH",
"872 318 LINE SMOOTH",
"872 566 OFFCURVE",
"740 695 OFFCURVE",
"457 695 CURVE SMOOTH"
);
},
{
closed = 1;
nodes = (
"493 414 OFFCURVE",
"530 393 OFFCURVE",
"556 358 CURVE",
"548 294 LINE",
"527 205 OFFCURVE",
"477 92 OFFCURVE",
"400 92 CURVE SMOOTH",
"361 92 OFFCURVE",
"345 117 OFFCURVE",
"356 203 CURVE SMOOTH",
"370 307 LINE SMOOTH",
"380 381 OFFCURVE",
"414 414 OFFCURVE",
"458 414 CURVE SMOOTH"
);
}
);
width = 930;
}
);
unicode = 0040;
},
{
color = 4;
glyphname = bar;
lastChange = "2013-12-19 10:54:20 +0100";
layers = (
{
layerId = "F9064169-91CB-4D1F-AD97-42715B9ED178";
name = Light;
paths = (
{
closed = 1;
nodes = (
"142 798 LINE",
"14 -112 LINE",
"99 -112 LINE",
"227 798 LINE"
);
}
);
width = 225;
}
);
unicode = 007C;
},
{
color = 4;
glyphname = brokenbar;
lastChange = "2013-12-19 10:54:20 +0100";
layers = (
{
layerId = "F9064169-91CB-4D1F-AD97-42715B9ED178";
name = Light;
paths = (
{
closed = 1;
nodes = (
"142 801 LINE",
"87 408 LINE",
"172 408 LINE",
"227 801 LINE"
);
},
{
closed = 1;
nodes = (
"69 278 LINE",
"13 -115 LINE",
"98 -115 LINE",
"154 278 LINE"
);
}
);
width = 225;
}
);
unicode = 00A6;
},
{
color = 4;
glyphname = copyright;
lastChange = "2013-12-19 10:54:20 +0100";
layers = (
{
layerId = "F9064169-91CB-4D1F-AD97-42715B9ED178";
name = Light;
paths = (
{
closed = 1;
nodes = (
"191 616 OFFCURVE",
"104 549 OFFCURVE",
"85 408 CURVE SMOOTH",
"58 211 LINE SMOOTH",
"40 82 OFFCURVE",
"114 -15 OFFCURVE",
"294 -15 CURVE SMOOTH",
"463 -15 OFFCURVE",
"545 56 OFFCURVE",
"564 193 CURVE SMOOTH",
"591 390 LINE",
"608 522 OFFCURVE",
"531 616 OFFCURVE",
"356 616 CURVE SMOOTH"
);
},
{
closed = 1;
nodes = (
"266 480 OFFCURVE",
"220 441 OFFCURVE",
"206 343 CURVE SMOOTH",
"198 287 LINE SMOOTH",
"183 185 OFFCURVE",
"226 129 OFFCURVE",
"313 129 CURVE",
"338 129 OFFCURVE",
"359 133 OFFCURVE",
"394 146 CURVE",
"401 212 LINE",
"375 202 OFFCURVE",
"351 197 OFFCURVE",
"322 197 CURVE",
"290 197 OFFCURVE",
"271 223 OFFCURVE",
"279 283 CURVE SMOOTH",
"286 338 LINE SMOOTH",
"293 394 OFFCURVE",
"317 414 OFFCURVE",
"354 414 CURVE SMOOTH",
"375 414 OFFCURVE",
"397 409 OFFCURVE",
"422 400 CURVE",
"433 468 LINE",
"410 475 OFFCURVE",
"380 480 OFFCURVE",
"355 480 CURVE SMOOTH"
);
},
{
closed = 1;
nodes = (
"475 550 OFFCURVE",
"534 491 OFFCURVE",
"521 397 CURVE SMOOTH",
"492 185 LINE",
"480 100 OFFCURVE",
"414 51 OFFCURVE",
"297 51 CURVE SMOOTH",
"176 51 OFFCURVE",
"116 110 OFFCURVE",
"129 204 CURVE SMOOTH",
"158 416 LINE SMOOTH",
"170 502 OFFCURVE",
"237 550 OFFCURVE",
"354 550 CURVE SMOOTH"
);
}
);
width = 646;
}
);
unicode = 00A9;
},
{
color = 4;
glyphname = dagger;
lastChange = "2013-12-19 10:54:20 +0100";
layers = (
{
layerId = "F9064169-91CB-4D1F-AD97-42715B9ED178";
name = Light;
paths = (
{
closed = 1;
nodes = (
"219 655 LINE",
"195 488 LINE",
"43 488 LINE",
"32 408 LINE",
"184 408 LINE",
"127 0 LINE",
"212 0 LINE",
"269 408 LINE",
"421 408 LINE",
"432 488 LINE",
"280 488 LINE",
"304 655 LINE"
);
}
);
width = 419;
}
);
unicode = 2020;
},
{
color = 4;
glyphname = daggerdbl;
lastChange = "2013-12-19 10:54:20 +0100";
layers = (
{
layerId = "F9064169-91CB-4D1F-AD97-42715B9ED178";
name = Light;
paths = (
{
closed = 1;
nodes = (
"229 655 LINE",
"205 488 LINE",
"53 488 LINE",
"42 408 LINE",
"194 408 LINE",
"174 268 LINE",
"22 268 LINE",
"11 188 LINE",
"163 188 LINE",
"137 0 LINE",
"222 0 LINE",
"248 188 LINE",
"400 188 LINE",
"411 268 LINE",
"259 268 LINE",
"279 408 LINE",
"431 408 LINE",
"442 488 LINE",
"290 488 LINE",
"314 655 LINE"
);
}
);
width = 439;
}
);
unicode = 2021;
},
{
color = 4;
glyphname = degree;
lastChange = "2013-12-19 10:54:20 +0100";
layers = (
{
layerId = "F9064169-91CB-4D1F-AD97-42715B9ED178";
name = Light;
paths = (
{
closed = 1;
nodes = (
"134 695 OFFCURVE",
"84 646 OFFCURVE",
"68 537 CURVE SMOOTH",
"65 516 LINE SMOOTH",
"50 408 OFFCURVE",
"109 339 OFFCURVE",
"215 339 CURVE SMOOTH",
"322 339 OFFCURVE",
"369 388 OFFCURVE",
"386 497 CURVE",
"388 518 LINE SMOOTH",
"403 626 OFFCURVE",
"347 695 OFFCURVE",
"240 695 CURVE SMOOTH"
);
},
{
closed = 1;
nodes = (
"290 626 OFFCURVE",
"320 590 OFFCURVE",
"310 522 CURVE SMOOTH",
"307 501 LINE SMOOTH",
"299 445 OFFCURVE",
"277 408 OFFCURVE",
"216 408 CURVE SMOOTH",
"154 408 OFFCURVE",
"136 457 OFFCURVE",
"144 512 CURVE SMOOTH",
"147 533 LINE SMOOTH",
"155 599 OFFCURVE",
"184 626 OFFCURVE",
"238 626 CURVE SMOOTH"
);
}
);
width = 390;
}
);
unicode = 00B0;
},
{
color = 4;
glyphname = estimated;
lastChange = "2013-12-19 10:54:20 +0100";
layers = (
{
layerId = "F9064169-91CB-4D1F-AD97-42715B9ED178";
name = Light;
paths = (
{
closed = 1;
nodes = (
"260 703 OFFCURVE",
"79 545 OFFCURVE",
"79 335 CURVE SMOOTH",
"79 125 OFFCURVE",
"252 -27 OFFCURVE",
"481 -27 CURVE SMOOTH",
"620 -27 OFFCURVE",
"727 25 OFFCURVE",
"800 110 CURVE",
"742 110 LINE",
"686 45 OFFCURVE",
"576 12 OFFCURVE",
"482 12 CURVE SMOOTH",
"388 12 OFFCURVE",
"269 46 OFFCURVE",
"227 109 CURVE",
"227 327 LINE",
"884 327 LINE",
"884 550 OFFCURVE",
"695 703 OFFCURVE",
"481 703 CURVE SMOOTH"
);
},
{
closed = 1;
nodes = (
"599 664 OFFCURVE",
"680 623 OFFCURVE",
"736 562 CURVE",
"736 367 LINE",
"227 367 LINE",
"227 563 LINE",
"278 625 OFFCURVE",
"365 664 OFFCURVE",
"482 664 CURVE SMOOTH"
);
}
);
width = 955;
}
);
unicode = 212E;
},
{
color = 4;
glyphname = paragraph;
lastChange = "2013-12-19 10:54:20 +0100";
layers = (
{
layerId = "F9064169-91CB-4D1F-AD97-42715B9ED178";
name = Light;
paths = (
{
closed = 1;
nodes = (
"197 683 LINE SMOOTH",
"113 683 OFFCURVE",
"69 645 OFFCURVE",
"58 570 CURVE SMOOTH",
"41 449 LINE SMOOTH",
"29 365 OFFCURVE",
"75 312 OFFCURVE",
"155 312 CURVE SMOOTH",
"197 312 LINE",
"127 -185 LINE",
"213 -185 LINE",
"335 683 LINE"
);
},
{
closed = 1;
nodes = (
"207 388 LINE",
"170 388 LINE SMOOTH",
"135 388 OFFCURVE",
"119 407 OFFCURVE",
"126 462 CURVE",
"137 544 LINE SMOOTH",
"144 596 OFFCURVE",
"160 610 OFFCURVE",
"197 610 CURVE SMOOTH",
"238 610 LINE"
);
},
{
closed = 1;
nodes = (
"440 683 LINE",
"318 -185 LINE",
"404 -185 LINE",
"526 683 LINE"
);
}
);
width = 546;
}
);
unicode = 00B6;
},
{
color = 4;
glyphname = registered;
lastChange = "2013-12-19 10:54:20 +0100";
layers = (
{
layerId = "F9064169-91CB-4D1F-AD97-42715B9ED178";
name = Light;
paths = (
{
closed = 1;
nodes = (
"164 695 OFFCURVE",
"117 638 OFFCURVE",
"102 526 CURVE SMOOTH",
"97 492 LINE SMOOTH",
"81 380 OFFCURVE",
"133 299 OFFCURVE",
"272 299 CURVE SMOOTH",
"412 299 OFFCURVE",
"465 356 OFFCURVE",
"481 468 CURVE SMOOTH",
"485 501 LINE SMOOTH",
"500 625 OFFCURVE",
"445 695 OFFCURVE",
"304 695 CURVE SMOOTH"
);
},
{
closed = 1;
nodes = (
"406 651 OFFCURVE",
"451 598 OFFCURVE",
"439 514 CURVE SMOOTH",
"432 461 LINE SMOOTH",
"420 378 OFFCURVE",
"378 343 OFFCURVE",
"275 343 CURVE SMOOTH",
"172 343 OFFCURVE",
"132 398 OFFCURVE",
"144 481 CURVE SMOOTH",
"151 533 LINE SMOOTH",
"162 616 OFFCURVE",
"200 651 OFFCURVE",
"303 651 CURVE SMOOTH"
);
},
{
closed = 1;
nodes = (
"288 617 OFFCURVE",
"261 615 OFFCURVE",
"234 612 CURVE",
"201 382 LINE",
"244 382 LINE",
"256 469 LINE",
"267 467 OFFCURVE",
"279 466 OFFCURVE",
"290 466 CURVE",
"303 443 OFFCURVE",
"316 415 OFFCURVE",
"328 382 CURVE",
"377 382 LINE",
"333 473 LINE",
"364 484 OFFCURVE",
"383 503 OFFCURVE",
"387 531 CURVE SMOOTH",
"388 537 LINE SMOOTH",
"395 581 OFFCURVE",
"368 617 OFFCURVE",
"305 617 CURVE SMOOTH"
);
},
{
closed = 1;
nodes = (
"336 579 OFFCURVE",
"348 562 OFFCURVE",
"344 540 CURVE SMOOTH",
"343 535 LINE SMOOTH",
"339 517 OFFCURVE",
"326 503 OFFCURVE",
"296 503 CURVE SMOOTH",
"288 503 OFFCURVE",
"272 504 OFFCURVE",
"262 505 CURVE",
"271 577 LINE",
"279 578 OFFCURVE",
"295 579 OFFCURVE",
"302 579 CURVE SMOOTH"
);
}
);
width = 528;
}
);
unicode = 00AE;
},
{
color = 4;
glyphname = section;
lastChange = "2013-12-19 10:54:20 +0100";
layers = (
{
layerId = "F9064169-91CB-4D1F-AD97-42715B9ED178";
name = Light;
paths = (
{
closed = 1;
nodes = (
"149 695 OFFCURVE",
"104 644 OFFCURVE",
"96 575 CURVE SMOOTH",
"94 558 LINE SMOOTH",
"86 504 OFFCURVE",
"102 453 OFFCURVE",
"151 422 CURVE",
"83 407 OFFCURVE",
"36 363 OFFCURVE",
"27 303 CURVE SMOOTH",
"25 287 LINE SMOOTH",
"17 221 OFFCURVE",
"47 170 OFFCURVE",
"112 141 CURVE SMOOTH",
"210 97 LINE SMOOTH",
"241 83 OFFCURVE",
"253 58 OFFCURVE",
"249 21 CURVE SMOOTH",
"248 12 LINE SMOOTH",
"244 -24 OFFCURVE",
"220 -49 OFFCURVE",
"167 -49 CURVE SMOOTH",
"158 -49 OFFCURVE",
"141 -48 OFFCURVE",
"131 -47 CURVE",
"109 -42 OFFCURVE",
"77 -31 OFFCURVE",
"50 -21 CURVE",
"38 -98 LINE",
"80 -110 OFFCURVE",
"128 -118 OFFCURVE",
"160 -118 CURVE SMOOTH",
"272 -118 OFFCURVE",
"319 -67 OFFCURVE",
"327 2 CURVE SMOOTH",
"329 19 LINE SMOOTH",
"335 73 OFFCURVE",
"320 123 OFFCURVE",
"271 155 CURVE",
"341 170 OFFCURVE",
"389 213 OFFCURVE",
"396 274 CURVE",
"398 290 LINE SMOOTH",
"406 356 OFFCURVE",
"377 406 OFFCURVE",
"311 436 CURVE SMOOTH",
"213 480 LINE SMOOTH",
"182 494 OFFCURVE",
"170 519 OFFCURVE",
"174 556 CURVE SMOOTH",
"175 565 LINE SMOOTH",
"179 601 OFFCURVE",
"202 626 OFFCURVE",
"247 626 CURVE SMOOTH",
"256 626 OFFCURVE",
"273 625 OFFCURVE",
"283 624 CURVE",
"305 619 OFFCURVE",
"337 608 OFFCURVE",
"364 598 CURVE",
"376 675 LINE",
"334 687 OFFCURVE",
"286 695 OFFCURVE",
"254 695 CURVE SMOOTH"
);
},
{
closed = 1;
nodes = (
"268 368 LINE SMOOTH",
"305 352 OFFCURVE",
"320 322 OFFCURVE",
"315 288 CURVE SMOOTH",
"314 282 LINE SMOOTH",
"304 222 OFFCURVE",
"246 194 OFFCURVE",
"183 196 CURVE",
"155 209 LINE SMOOTH",
"120 225 OFFCURVE",
"103 255 OFFCURVE",
"108 289 CURVE SMOOTH",
"109 295 LINE SMOOTH",
"118 355 OFFCURVE",
"176 383 OFFCURVE",
"240 380 CURVE"
);
}
);
width = 418;
}
);
unicode = 00A7;
},
{
color = 4;
glyphname = trademark;
lastChange = "2013-12-19 10:54:20 +0100";
layers = (
{
layerId = "F9064169-91CB-4D1F-AD97-42715B9ED178";
name = Light;
paths = (
{
closed = 1;
nodes = (
"695 683 LINE",
"661 606 OFFCURVE",
"621 525 OFFCURVE",
"580 450 CURVE",
"565 527 OFFCURVE",
"547 608 OFFCURVE",
"527 683 CURVE",
"448 683 LINE",
"395 350 LINE",
"464 350 LINE",
"497 558 LINE",
"537 381 LINE",
"607 381 LINE",
"698 558 LINE",
"668 350 LINE",
"737 350 LINE",
"781 683 LINE"
);
},
{
closed = 1;
nodes = (
"100 683 LINE",
"92 625 LINE",
"204 625 LINE",
"166 350 LINE",
"239 350 LINE",
"277 625 LINE",
"388 625 LINE",
"396 683 LINE"
);
}
);
width = 773;
}
);
unicode = 2122;
},
{
color = 4;
glyphname = acute;
lastChange = "2013-12-19 10:54:20 +0100";
layers = (
{
anchors = (
{
name = _top;
position = "{81, 488}";
}
);
layerId = "F9064169-91CB-4D1F-AD97-42715B9ED178";
name = Light;
paths = (
{
closed = 1;
nodes = (
"210 685 LINE",
"120 685 LINE",
"30 546 LINE",
"101 546 LINE"
);
}
);
width = 240;
}
);
unicode = 00B4;
},
{
color = 4;
glyphname = breve;
lastChange = "2013-12-19 10:54:20 +0100";
layers = (
{
anchors = (
{
name = _top;
position = "{166, 488}";
}
);
layerId = "F9064169-91CB-4D1F-AD97-42715B9ED178";
name = Light;
paths = (
{
closed = 1;
nodes = (
"302 685 LINE",
"302 685 OFFCURVE",
"242 620 OFFCURVE",
"163 620 CURVE SMOOTH",
"84 620 OFFCURVE",
"42 685 OFFCURVE",
"42 685 CURVE",
"30 606 LINE",
"30 606 OFFCURVE",
"66 545 OFFCURVE",
"152 545 CURVE SMOOTH",
"240 545 OFFCURVE",
"290 602 OFFCURVE",
"290 602 CURVE"
);
}
);
width = 332;
}
);
unicode = 02D8;
},
{
color = 4;
glyphname = caron;
lastChange = "2013-12-19 10:54:20 +0100";
layers = (
{
anchors = (
{
name = _top;
position = "{165, 488}";
}
);
layerId = "F9064169-91CB-4D1F-AD97-42715B9ED178";
name = Light;
paths = (
{
closed = 1;
nodes = (
"39 690 LINE",
"30 622 LINE",
"149 546 LINE",
"290 616 LINE",
"299 690 LINE",
"157 623 LINE"
);
}
);
width = 329;
}
);
unicode = 02C7;
},
{
color = 4;
glyphname = cedilla;
lastChange = "2013-12-19 10:54:20 +0100";
layers = (
{
anchors = (
{
name = _bottom;
position = "{108, 0}";
}
);
layerId = "F9064169-91CB-4D1F-AD97-42715B9ED178";
name = Light;
paths = (
{
closed = 1;
nodes = (
"102 28 LINE",
"61 -60 LINE",
"58 -80 LINE",
"84 -80 LINE SMOOTH",
"109 -80 OFFCURVE",
"121 -92 OFFCURVE",
"118 -113 CURVE",
"117 -120 LINE",
"115 -133 OFFCURVE",
"104 -143 OFFCURVE",
"82 -143 CURVE SMOOTH",
"67 -143 OFFCURVE",
"51 -139 OFFCURVE",
"37 -133 CURVE",
"30 -188 LINE",
"47 -193 OFFCURVE",
"73 -197 OFFCURVE",
"89 -197 CURVE SMOOTH",
"148 -197 OFFCURVE",
"178 -169 OFFCURVE",
"184 -121 CURVE SMOOTH",
"185 -112 LINE SMOOTH",
"190 -70 OFFCURVE",
"166 -41 OFFCURVE",
"129 -41 CURVE SMOOTH",
"127 -41 LINE",
"157 28 LINE"
);
}
);
width = 216;
}
);
unicode = 00B8;
},
{
color = 4;
glyphname = circumflex;
lastChange = "2013-12-19 10:54:20 +0100";
layers = (
{
anchors = (
{
name = _top;
position = "{165, 488}";
}
);
layerId = "F9064169-91CB-4D1F-AD97-42715B9ED178";
name = Light;
paths = (
{
closed = 1;
nodes = (
"290 546 LINE",
"299 613 LINE",
"180 690 LINE",
"39 618 LINE",
"30 546 LINE",
"172 613 LINE"
);
}
);
width = 329;
}
);
unicode = 02C6;
},
{
color = 4;
glyphname = dieresis;
lastChange = "2013-12-19 10:54:20 +0100";
layers = (
{
anchors = (
{
name = _top;
position = "{173, 488}";
}
);
layerId = "F9064169-91CB-4D1F-AD97-42715B9ED178";
name = Light;
paths = (
{
closed = 1;
nodes = (
"143 648 LINE SMOOTH",
"147 678 OFFCURVE",
"127 695 OFFCURVE",
"91 695 CURVE SMOOTH",
"57 695 OFFCURVE",
"38 682 OFFCURVE",
"34 652 CURVE SMOOTH",
"30 624 LINE SMOOTH",
"26 596 OFFCURVE",
"49 577 OFFCURVE",
"83 577 CURVE SMOOTH",
"119 577 OFFCURVE",
"135 591 OFFCURVE",
"139 619 CURVE SMOOTH"
);
},
{
closed = 1;
nodes = (
"315 648 LINE SMOOTH",
"319 678 OFFCURVE",
"298 695 OFFCURVE",
"263 695 CURVE SMOOTH",
"228 695 OFFCURVE",
"210 682 OFFCURVE",
"206 652 CURVE SMOOTH",
"202 624 LINE SMOOTH",
"198 596 OFFCURVE",
"220 577 OFFCURVE",
"255 577 CURVE SMOOTH",
"290 577 OFFCURVE",
"307 591 OFFCURVE",
"311 619 CURVE SMOOTH"
);
}
);
width = 345;
}
);
unicode = 00A8;
},
{
color = 4;
glyphname = dotaccent;
lastChange = "2013-12-19 10:54:20 +0100";
layers = (
{
anchors = (
{
name = _center;
position = "{86, 636}";
},
{
name = _top;
position = "{88, 488}";
}
);
background = {
paths = (
{
closed = 1;
nodes = (
"145 646 LINE SMOOTH",
"149 676 OFFCURVE",
"128 695 OFFCURVE",
"92 695 CURVE SMOOTH",
"57 695 OFFCURVE",
"38 682 OFFCURVE",
"34 652 CURVE",
"34 652 OFFCURVE",
"30 623 OFFCURVE",
"30 623 CURVE SMOOTH",
"26 594 OFFCURVE",
"48 575 OFFCURVE",
"83 575 CURVE SMOOTH",
"119 575 OFFCURVE",
"137 588 OFFCURVE",
"141 617 CURVE SMOOTH"
);
}
);
};
layerId = "F9064169-91CB-4D1F-AD97-42715B9ED178";
name = Light;
paths = (
{
closed = 1;
nodes = (
"145 646 LINE SMOOTH",
"149 676 OFFCURVE",
"128 695 OFFCURVE",
"92 695 CURVE SMOOTH",
"57 695 OFFCURVE",
"38 682 OFFCURVE",
"34 652 CURVE SMOOTH",
"30 623 LINE SMOOTH",
"26 593 OFFCURVE",
"48 575 OFFCURVE",
"83 575 CURVE SMOOTH",
"119 575 OFFCURVE",
"137 588 OFFCURVE",
"141 617 CURVE SMOOTH"
);
}
);
width = 175;
}
);
unicode = 02D9;
},
{
color = 4;
glyphname = grave;
lastChange = "2013-12-19 10:54:20 +0100";
layers = (
{
anchors = (
{
name = _top;
position = "{181, 488}";
}
);
layerId = "F9064169-91CB-4D1F-AD97-42715B9ED178";
name = Light;
paths = (
{
closed = 1;
nodes = (
"139 546 LINE",
"210 546 LINE",
"120 685 LINE",
"30 685 LINE"
);
}
);
width = 240;
}
);
unicode = 0060;
},
{
color = 4;
glyphname = hungarumlaut;
lastChange = "2013-12-19 10:54:20 +0100";
layers = (
{
anchors = (
{
name = _top;
position = "{146, 488}";
}
);
background = {
paths = (
{
closed = 1;
nodes = (
"331 685 LINE",
"251 685 LINE",
"170 555 LINE",
"243 555 LINE"
);
},
{
closed = 1;
nodes = (
"191 685 LINE",
"111 685 LINE",
"30 555 LINE",
"103 555 LINE"
);
}
);
};
layerId = "F9064169-91CB-4D1F-AD97-42715B9ED178";
name = Light;
paths = (
{
closed = 1;
nodes = (
"251 685 LINE",
"166 546 LINE",
"239 546 LINE",
"331 685 LINE"
);
},
{
closed = 1;
nodes = (
"111 685 LINE",
"26 546 LINE",
"99 546 LINE",
"191 685 LINE"
);
}
);
width = 361;
}
);
unicode = 02DD;
},
{
color = 4;
glyphname = macron;
lastChange = "2013-12-19 10:54:20 +0100";
layers = (
{
anchors = (
{
name = _top;
position = "{143, 488}";
}
);
layerId = "F9064169-91CB-4D1F-AD97-42715B9ED178";
name = Light;
paths = (
{
closed = 1;
nodes = (
"245 606 LINE",
"255 681 LINE",
"40 681 LINE",
"30 606 LINE"
);
}
);
width = 285;
}
);
unicode = 00AF;
},
{
color = 4;
glyphname = ogonek;
lastChange = "2013-12-19 10:54:20 +0100";
layers = (
{
anchors = (
{
name = _ogonek;
position = "{192, 10}";
}
);
layerId = "F9064169-91CB-4D1F-AD97-42715B9ED178";
name = Light;
paths = (
{
closed = 1;
nodes = (
"176 -131 LINE",
"164 -133 OFFCURVE",
"152 -134 OFFCURVE",
"143 -134 CURVE SMOOTH",
"113 -134 OFFCURVE",
"102 -123 OFFCURVE",
"106 -97 CURVE SMOOTH",
"107 -87 LINE SMOOTH",
"113 -49 OFFCURVE",
"144 -10 OFFCURVE",
"192 7 CURVE",
"160 22 LINE",
"93 9 OFFCURVE",
"40 -50 OFFCURVE",
"33 -103 CURVE SMOOTH",
"31 -116 LINE SMOOTH",
"24 -164 OFFCURVE",
"51 -197 OFFCURVE",
"119 -197 CURVE SMOOTH",
"134 -197 OFFCURVE",
"150 -196 OFFCURVE",
"168 -192 CURVE"
);
}
);
width = 222;
}
);
unicode = 02DB;
},
{
color = 4;
glyphname = ring;
lastChange = "2013-12-19 10:54:20 +0100";
layers = (
{
anchors = (
{
name = _top;
position = "{143, 488}";
}
);
layerId = "F9064169-91CB-4D1F-AD97-42715B9ED178";
name = Light;
paths = (
{
closed = 1;
nodes = (
"73 723 OFFCURVE",
"30 682 OFFCURVE",
"30 619 CURVE SMOOTH",
"30 563 OFFCURVE",
"77 529 OFFCURVE",
"137 529 CURVE SMOOTH",
"215 529 OFFCURVE",
"256 574 OFFCURVE",
"256 634 CURVE SMOOTH",
"256 688 OFFCURVE",
"211 723 OFFCURVE",
"149 723 CURVE SMOOTH"
);
},
{
closed = 1;
nodes = (
"177 672 OFFCURVE",
"195 657 OFFCURVE",
"195 632 CURVE SMOOTH",
"195 596 OFFCURVE",
"181 580 OFFCURVE",
"141 580 CURVE SMOOTH",
"109 580 OFFCURVE",
"92 598 OFFCURVE",
"92 623 CURVE SMOOTH",
"92 658 OFFCURVE",
"107 672 OFFCURVE",
"147 672 CURVE SMOOTH"
);
}
);
width = 286;
}
);
unicode = 02DA;
},
{
color = 4;
glyphname = tilde;
lastChange = "2013-12-19 10:54:20 +0100";
layers = (
{
anchors = (
{
name = _top;
position = "{167, 488}";
}
);
layerId = "F9064169-91CB-4D1F-AD97-42715B9ED178";
name = Light;
paths = (
{
closed = 1;
nodes = (
"304 685 LINE",
"304 685 OFFCURVE",
"255 660 OFFCURVE",
"222 660 CURVE SMOOTH",
"188 660 OFFCURVE",
"174 685 OFFCURVE",
"124 685 CURVE SMOOTH",
"78 685 OFFCURVE",
"40 653 OFFCURVE",
"40 653 CURVE",
"30 585 LINE",
"30 585 OFFCURVE",
"78 610 OFFCURVE",
"111 610 CURVE SMOOTH",
"148 610 OFFCURVE",
"170 585 OFFCURVE",
"210 585 CURVE SMOOTH",
"256 585 OFFCURVE",
"294 613 OFFCURVE",
"294 613 CURVE"
);
}
);
width = 334;
}
);
unicode = 02DC;
},
{
color = 4;
glyphname = caron.alt;
lastChange = "2013-12-19 10:54:20 +0100";
layers = (
{
anchors = (
{
name = _topleft;
position = "{79, 488}";
}
);
layerId = "F9064169-91CB-4D1F-AD97-42715B9ED178";
name = Light;
paths = (
{
closed = 1;
nodes = (
"128 649 LINE SMOOTH",
"133 679 OFFCURVE",
"116 695 OFFCURVE",
"81 695 CURVE SMOOTH",
"51 695 OFFCURVE",
"39 683 OFFCURVE",
"35 658 CURVE SMOOTH",
"32 638 LINE SMOOTH",
"29 617 OFFCURVE",
"36 603 OFFCURVE",
"56 596 CURVE",
"30 525 LINE",
"82 525 LINE",
"110 584 LINE SMOOTH",
"118 601 OFFCURVE",
"122 612 OFFCURVE",
"125 629 CURVE SMOOTH"
);
}
);
width = 79;
}
);
},
{
color = 4;
glyphname = acute.case;
lastChange = "2013-12-19 10:54:20 +0100";
layers = (
{
anchors = (
{
name = _top;
position = "{74, 655}";
}
);
layerId = "F9064169-91CB-4D1F-AD97-42715B9ED178";
name = Light;
paths = (
{
closed = 1;
nodes = (
"197 829 LINE",
"108 829 LINE",
"30 710 LINE",
"100 710 LINE"
);
}
);
width = 227;
}
);
},
{
color = 4;
glyphname = breve.case;
lastChange = "2013-12-19 10:54:20 +0100";
layers = (
{
anchors = (
{
name = _top;
position = "{175, 655}";
}
);
layerId = "F9064169-91CB-4D1F-AD97-42715B9ED178";
name = Light;
paths = (
{
closed = 1;
nodes = (
"319 830 LINE",
"319 830 OFFCURVE",
"243 777 OFFCURVE",
"174 777 CURVE SMOOTH",
"104 777 OFFCURVE",
"39 830 OFFCURVE",
"39 830 CURVE",
"30 752 LINE",
"30 752 OFFCURVE",
"89 705 OFFCURVE",
"166 705 CURVE SMOOTH",
"239 705 OFFCURVE",
"310 752 OFFCURVE",
"310 752 CURVE"
);
}
);
width = 349;
}
);
},
{
color = 4;
glyphname = caron.case;
lastChange = "2013-12-19 10:54:20 +0100";
layers = (
{
anchors = (
{
name = _top;
position = "{174, 655}";
}
);
layerId = "F9064169-91CB-4D1F-AD97-42715B9ED178";
name = Light;
paths = (
{
closed = 1;
nodes = (
"38 841 LINE",
"30 773 LINE",
"164 712 LINE",
"310 773 LINE",
"318 841 LINE",
"173 792 LINE"
);
}
);
width = 348;
}
);
},
{
color = 4;
glyphname = circumflex.case;
lastChange = "2013-12-19 10:54:20 +0100";
layers = (
{
anchors = (
{
name = _top;
position = "{174, 655}";
}
);
layerId = "F9064169-91CB-4D1F-AD97-42715B9ED178";
name = Light;
paths = (
{
closed = 1;
nodes = (
"175 760 LINE",
"310 711 LINE",
"317 779 LINE",
"184 840 LINE",
"37 779 LINE",
"30 711 LINE"
);
}
);
width = 347;
}
);
},
{
color = 4;
glyphname = dieresis.case;
lastChange = "2013-12-19 10:54:20 +0100";
layers = (
{
anchors = (
{
name = _top;
position = "{173, 655}";
}
);
layerId = "F9064169-91CB-4D1F-AD97-42715B9ED178";
name = Light;
paths = (
{
closed = 1;
nodes = (
"143 781 LINE",
"145 811 OFFCURVE",
"125 828 OFFCURVE",
"89 828 CURVE SMOOTH",
"55 828 OFFCURVE",
"38 815 OFFCURVE",
"34 785 CURVE SMOOTH",
"30 757 LINE SMOOTH",
"26 729 OFFCURVE",
"51 710 OFFCURVE",
"85 710 CURVE SMOOTH",
"121 710 OFFCURVE",
"137 724 OFFCURVE",
"139 752 CURVE SMOOTH"
);
},
{
closed = 1;
nodes = (
"315 781 LINE",
"317 811 OFFCURVE",
"296 828 OFFCURVE",
"261 828 CURVE SMOOTH",
"226 828 OFFCURVE",
"210 815 OFFCURVE",
"206 785 CURVE SMOOTH",
"202 757 LINE SMOOTH",
"198 729 OFFCURVE",
"222 710 OFFCURVE",
"257 710 CURVE SMOOTH",
"292 710 OFFCURVE",
"309 724 OFFCURVE",
"311 752 CURVE SMOOTH"
);
}
);
width = 345;
}
);
},
{
color = 4;
glyphname = dotaccent.case;
lastChange = "2013-12-19 10:54:20 +0100";
layers = (
{
anchors = (
{
name = _center;
position = "{86, 770}";
},
{
name = _top;
position = "{88, 655}";
}
);
layerId = "F9064169-91CB-4D1F-AD97-42715B9ED178";
name = Light;
paths = (
{
closed = 1;
nodes = (
"145 780 LINE SMOOTH",
"147 810 OFFCURVE",
"126 829 OFFCURVE",
"90 829 CURVE SMOOTH",
"55 829 OFFCURVE",
"38 816 OFFCURVE",
"34 786 CURVE SMOOTH",
"30 757 LINE SMOOTH",
"26 728 OFFCURVE",
"50 709 OFFCURVE",
"85 709 CURVE SMOOTH",
"121 709 OFFCURVE",
"139 722 OFFCURVE",
"141 751 CURVE SMOOTH"
);
}
);
width = 175;
}
);
},
{
color = 4;
glyphname = grave.case;
lastChange = "2013-12-19 10:54:20 +0100";
layers = (
{
anchors = (
{
name = _top;
position = "{144, 655}";
}
);
layerId = "F9064169-91CB-4D1F-AD97-42715B9ED178";
name = Light;
paths = (
{
closed = 1;
nodes = (
"103 710 LINE",
"173 710 LINE",
"119 829 LINE",
"30 829 LINE"
);
}
);
width = 203;
}
);
},
{
color = 4;
glyphname = hungarumlaut.case;
lastChange = "2013-12-19 10:54:20 +0100";
layers = (
{
anchors = (
{
name = _top;
position = "{166, 655}";
}
);
layerId = "F9064169-91CB-4D1F-AD97-42715B9ED178";
name = Light;
paths = (
{
closed = 1;
nodes = (
"322 829 LINE",
"242 829 LINE",
"170 710 LINE",
"245 710 LINE"
);
},
{
closed = 1;
nodes = (
"182 829 LINE",
"102 829 LINE",
"30 710 LINE",
"105 710 LINE"
);
}
);
width = 352;
}
);
},
{
color = 4;
glyphname = macron.case;
lastChange = "2013-12-19 10:54:20 +0100";
layers = (
{
anchors = (
{
name = _top;
position = "{153, 655}";
}
);
layerId = "F9064169-91CB-4D1F-AD97-42715B9ED178";
name = Light;
paths = (
{
closed = 1;
nodes = (
"265 710 LINE",
"275 785 LINE",
"40 785 LINE",
"30 710 LINE"
);
}
);
width = 305;
}
);
},
{
color = 4;
glyphname = ring.case;
lastChange = "2013-12-19 10:54:20 +0100";
layers = (
{
anchors = (
{
name = _top;
position = "{146, 655}";
}
);
layerId = "F9064169-91CB-4D1F-AD97-42715B9ED178";
name = Light;
paths = (
{
closed = 1;
nodes = (
"79 885 OFFCURVE",
"28 850 OFFCURVE",
"30 773 CURVE SMOOTH",
"32 716 OFFCURVE",
"77 685 OFFCURVE",
"140 685 CURVE SMOOTH",
"217 685 OFFCURVE",
"264 723 OFFCURVE",
"262 800 CURVE SMOOTH",
"260 856 OFFCURVE",
"217 885 OFFCURVE",
"154 885 CURVE SMOOTH"
);
},
{
closed = 1;
nodes = (
"182 830 OFFCURVE",
"197 814 OFFCURVE",
"197 793 CURVE SMOOTH",
"199 762 OFFCURVE",
"184 740 OFFCURVE",
"143 740 CURVE SMOOTH",
"110 740 OFFCURVE",
"98 758 OFFCURVE",
"96 780 CURVE SMOOTH",
"96 814 OFFCURVE",
"113 830 OFFCURVE",
"150 830 CURVE SMOOTH"
);
}
);
width = 292;
}
);
},
{
color = 4;
glyphname = tilde.case;
lastChange = "2013-12-19 10:54:20 +0100";
layers = (
{
anchors = (
{
name = _top;
position = "{175, 655}";
}
);
layerId = "F9064169-91CB-4D1F-AD97-42715B9ED178";
name = Light;
paths = (
{
closed = 1;
nodes = (
"320 810 LINE",
"320 810 OFFCURVE",
"273 785 OFFCURVE",
"240 785 CURVE SMOOTH",
"202 785 OFFCURVE",
"174 810 OFFCURVE",
"120 810 CURVE SMOOTH",
"74 810 OFFCURVE",
"37 780 OFFCURVE",
"37 780 CURVE",
"30 710 LINE",
"30 710 OFFCURVE",
"78 735 OFFCURVE",
"111 735 CURVE SMOOTH",
"152 735 OFFCURVE",
"186 710 OFFCURVE",
"230 710 CURVE SMOOTH",
"276 710 OFFCURVE",
"314 740 OFFCURVE",
"314 740 CURVE"
);
}
);
width = 350;
}
);
},
{
color = 4;
glyphname = commaabove;
lastChange = "2013-12-19 10:54:20 +0100";
layers = (
{
anchors = (
{
name = _top;
position = "{79, 488}";
}
);
layerId = "F9064169-91CB-4D1F-AD97-42715B9ED178";
name = Light;
paths = (
{
closed = 1;
nodes = (
"128 649 LINE SMOOTH",
"133 679 OFFCURVE",
"116 695 OFFCURVE",
"81 695 CURVE SMOOTH",
"51 695 OFFCURVE",
"39 683 OFFCURVE",
"35 658 CURVE SMOOTH",
"32 638 LINE SMOOTH",
"29 617 OFFCURVE",
"36 603 OFFCURVE",
"56 596 CURVE",
"30 525 LINE",
"82 525 LINE",
"110 584 LINE SMOOTH",
"118 601 OFFCURVE",
"122 612 OFFCURVE",
"125 629 CURVE SMOOTH"
);
}
);
width = 159;
}
);
unicode = 0313;
},
{
color = 4;
glyphname = commaaccent;
lastChange = "2013-12-19 10:54:20 +0100";
layers = (
{
anchors = (
{
name = _bottom;
position = "{79, 0}";
}
);
layerId = "F9064169-91CB-4D1F-AD97-42715B9ED178";
name = Light;
paths = (
{
closed = 1;
nodes = (
"128 -102 LINE SMOOTH",
"133 -72 OFFCURVE",
"116 -56 OFFCURVE",
"81 -56 CURVE SMOOTH",
"51 -56 OFFCURVE",
"39 -68 OFFCURVE",
"35 -93 CURVE SMOOTH",
"32 -113 LINE SMOOTH",
"29 -134 OFFCURVE",
"36 -148 OFFCURVE",
"56 -155 CURVE",
"30 -226 LINE",
"82 -226 LINE",
"110 -167 LINE SMOOTH",
"118 -150 OFFCURVE",
"122 -139 OFFCURVE",
"125 -122 CURVE SMOOTH"
);
}
);
width = 159;
}
);
unicode = 0326;
},
{
color = 4;
glyphname = commaturnedabove;
lastChange = "2013-12-19 10:54:20 +0100";
layers = (
{
anchors = (
{
name = _top;
position = "{80, 488}";
}
);
layerId = "F9064169-91CB-4D1F-AD97-42715B9ED178";
name = Light;
paths = (
{
closed = 1;
nodes = (
"31 604 LINE",
"26 574 OFFCURVE",
"43 558 OFFCURVE",
"78 558 CURVE SMOOTH",
"108 558 OFFCURVE",
"120 570 OFFCURVE",
"124 595 CURVE SMOOTH",
"127 615 LINE SMOOTH",
"130 636 OFFCURVE",
"123 650 OFFCURVE",
"103 657 CURVE",
"129 728 LINE",
"77 728 LINE",
"49 669 LINE SMOOTH",
"41 652 OFFCURVE",
"37 641 OFFCURVE",
"34 624 CURVE"
);
}
);
width = 159;
}
);
unicode = 0312;
},
{
color = 4;
glyphname = commaaccent.case;
lastChange = "2013-12-19 10:54:20 +0100";
layers = (
{
anchors = (
{
name = _bottom;
position = "{79, 0}";
}
);
layerId = "F9064169-91CB-4D1F-AD97-42715B9ED178";
name = Light;
paths = (
{
closed = 1;
nodes = (
"128 -102 LINE SMOOTH",
"133 -72 OFFCURVE",
"116 -56 OFFCURVE",
"81 -56 CURVE SMOOTH",
"51 -56 OFFCURVE",
"39 -68 OFFCURVE",
"35 -93 CURVE SMOOTH",
"32 -113 LINE SMOOTH",
"29 -134 OFFCURVE",
"36 -148 OFFCURVE",
"56 -155 CURVE",
"30 -226 LINE",
"82 -226 LINE",
"110 -167 LINE SMOOTH",
"118 -150 OFFCURVE",
"122 -139 OFFCURVE",
"125 -122 CURVE SMOOTH"
);
}
);
width = 159;
}
);
},
{
color = 4;
glyphname = apostrophemod;
lastChange = "2013-12-19 10:54:20 +0100";
layers = (
{
anchors = (
{
name = _apo;
position = "{57, 488}";
}
);
layerId = "F9064169-91CB-4D1F-AD97-42715B9ED178";
name = Light;
paths = (
{
closed = 1;
nodes = (
"128 649 LINE SMOOTH",
"133 679 OFFCURVE",
"116 695 OFFCURVE",
"81 695 CURVE SMOOTH",
"51 695 OFFCURVE",
"39 683 OFFCURVE",
"35 658 CURVE SMOOTH",
"32 638 LINE SMOOTH",
"29 617 OFFCURVE",
"36 603 OFFCURVE",
"56 596 CURVE",
"30 525 LINE",
"82 525 LINE",
"110 584 LINE SMOOTH",
"118 601 OFFCURVE",
"122 612 OFFCURVE",
"125 629 CURVE SMOOTH"
);
}
);
width = 159;
}
);
unicode = 02BC;
},
